<?xml version="1.0" standalone="no"?>
<!DOCTYPE svg PUBLIC "-//W3C//DTD SVG 1.1//EN" "http://www.w3.org/Graphics/SVG/1.1/DTD/svg11.dtd" >
<svg>
<metadata>
Created by FontForge 20110222 at Sat Apr  5 08:24:25 2014
 By Orthosie Webhosting
Copyright 1990-1997 Bitstream Inc.  All rights reserved.
</metadata>
<defs>
<font id="OzHandicraftWin95BTRoman" horiz-adv-x="2048" >
  <font-face 
    font-family="OzHandicraftWin95BTRoman"
    font-weight="400"
    font-stretch="condensed"
    units-per-em="2048"
    panose-1="3 8 7 2 2 3 2 2 2 6"
    ascent="1638"
    descent="-410"
    x-height="1155"
    cap-height="1534"
    bbox="-268 -524 2087 2093"
    underline-thickness="117"
    underline-position="-141"
    unicode-range="U+0020-FB02"
  />
<missing-glyph horiz-adv-x="1229" 
d="M102 -362v1806h1024v-1806h-1024zM217 -248h795v1577h-795v-1577z" />
    <glyph glyph-name=".notdef" horiz-adv-x="1229" 
d="M102 -362v1806h1024v-1806h-1024zM217 -248h795v1577h-795v-1577z" />
    <glyph glyph-name=".null" horiz-adv-x="0" 
 />
    <glyph glyph-name="nonmarkingreturn" horiz-adv-x="352" 
 />
    <glyph glyph-name="space" unicode=" " horiz-adv-x="352" 
 />
    <glyph glyph-name="exclam" unicode="!" horiz-adv-x="426" 
d="M154 328q-15 214 -22 391t-7 323q0 76 1.5 177t4.5 226q12 3 23.5 4t21.5 1q36 0 59.5 -10t45.5 -36q1 -50 1.5 -108t0.5 -172q0 -215 -6.5 -414.5t-18.5 -381.5q-15 -13 -28.5 -20t-24.5 -7q-14 0 -25 5.5t-26 21.5zM138 18q-6 26 -7.5 38t-1.5 20q0 9 4 42q3 21 4 31
q15 7 28.5 10t24.5 3q17 0 42 -1t32 -1l16 -8q6 -40 8.5 -62t2.5 -35t-6 -39q-2 -7 -2 -10q-23 -6 -40 -9t-28 -3q-16 0 -35 6t-42 18z" />
    <glyph glyph-name="quotedbl" unicode="&#x22;" horiz-adv-x="590" 
d="M496 1434v-553h-119v553h119zM211 1434v-553h-117v553h117z" />
    <glyph glyph-name="numbersign" unicode="#" horiz-adv-x="1575" 
d="M973 862h-264l-95 -272h263zM922 1456l-166 -471h260l168 471h143l-164 -471h307l-43 -123h-311l-94 -272h330l-43 -123h-332l-166 -469h-145l168 469h-265l-168 -469h-143l166 469h-320l43 123h320l96 272h-342l43 123h344l168 471h146z" />
    <glyph glyph-name="dollar" unicode="$" horiz-adv-x="592" 
d="M215 -21q-62 8 -107.5 41.5t-88.5 103.5q7 38 29 59.5t75 41.5q21 -43 54 -65.5t75 -22.5q56 0 86.5 37.5t30.5 106.5q0 68 -34.5 158t-115.5 229q-12 20 -35 60q-155 263 -155 396q0 92 48 149t138 73v55q0 21 2.5 54t8.5 71q6 1 17 3q25 5 31 5q9 0 21.5 -2t36.5 -8
q6 -36 9 -72.5t3 -75.5v-30q37 -4 68 -11t59 -19q-2 -68 -14 -96t-41 -40q-37 14 -67 21t-54 7q-55 0 -82 -23.5t-27 -72.5q0 -67 106 -244q27 -46 42 -71l2 -4q196 -334 196 -517q0 -111 -53 -193t-135 -99q0 -8 -1 -25q-6 -139 -17 -186q-22 -9 -33 -12t-19 -3t-21.5 2.5
t-27.5 6.5q-7 30 -10.5 63.5t-3.5 71.5q0 13 1 29z" />
    <glyph glyph-name="percent" unicode="%" horiz-adv-x="1104" 
d="M831 729q97 0 161.5 -100t64.5 -258q0 -176 -70.5 -285t-179.5 -109q-99 0 -160 98.5t-61 260.5q0 171 71 282t174 111zM856 582h-8q-59 0 -95 -64.5t-36 -173.5q0 -96 16.5 -148t54.5 -83l82 16q27 49 40.5 103.5t13.5 111.5q0 99 -17 159t-51 79zM295 1229q-3 1 -5 1.5
t-5 0.5q-39 0 -74 -71.5t-35 -164.5q0 -59 12.5 -104t41.5 -93q11 -19 21 -25.5t23 -6.5h5q49 48 77.5 117t28.5 139q0 65 -22 115t-68 92zM127 686q-41 51 -60.5 125t-19.5 176q0 163 71.5 271t168.5 108q88 0 158.5 -99.5t70.5 -232.5q0 -172 -78.5 -288.5t-191.5 -116.5
q-39 0 -67 13.5t-52 43.5zM928 1444q46 0 67.5 -15t26.5 -48q-274 -449 -457.5 -803.5t-308.5 -673.5l-48 -4q-32 7 -49.5 29.5t-23.5 66.5q209 452 406 812.5t387 635.5z" />
    <glyph glyph-name="ampersand" unicode="&#x26;" horiz-adv-x="930" 
d="M520 692q-32 -24 -47.5 -62t-15.5 -89q0 -20 3 -39t9 -39q-24 -13 -44.5 -19t-39.5 -6q-7 0 -28 3q-8 1 -11 1q-14 32 -20.5 58.5t-6.5 52.5q0 141 194 298q39 32 60 50q108 92 153.5 173.5t45.5 176.5q0 5 -1 17t-1 18q32 13 56.5 19t45.5 6q15 0 29.5 -4.5t32.5 -14.5
q0 -5 1 -15t1 -15q0 -117 -66.5 -223t-216.5 -226q104 -73 151.5 -167.5t47.5 -227.5q0 -191 -114.5 -318t-286.5 -127q-191 0 -306.5 143.5t-115.5 379.5q0 176 73.5 314.5t221.5 240.5q-72 36 -106 91t-34 134q0 131 80.5 209t214.5 78q26 0 52.5 -5.5t56.5 -17.5
q9 -16 13.5 -30t4.5 -29q0 -18 -5 -32.5t-17 -29.5q-23 9 -41.5 13t-36.5 4q-75 0 -117.5 -44t-42.5 -122q0 -74 44.5 -120t115.5 -46h16q6 -15 9 -25.5t4 -15.5q-1 -10 -2.5 -20.5t-4.5 -20.5q-148 -25 -238.5 -165t-90.5 -345q0 -191 67.5 -295t190.5 -104q100 0 167.5 86
t67.5 217q0 113 -41 179.5t-131 96.5z" />
    <glyph glyph-name="quotesingle" unicode="'" horiz-adv-x="305" 
d="M211 1434v-553h-117v553h117z" />
    <glyph glyph-name="parenleft" unicode="(" horiz-adv-x="455" 
d="M340 1618q48 -6 73.5 -25.5t34.5 -55.5q-99 -130 -153.5 -360.5t-54.5 -527.5q0 -346 41 -579.5t128 -384.5q-13 -38 -43.5 -57t-86.5 -25q-109 145 -161 383.5t-52 584.5q0 385 72 658t202 389z" />
    <glyph glyph-name="parenright" unicode=")" horiz-adv-x="455" 
d="M115 -397q-48 5 -74 24.5t-35 57.5q101 130 156 360t55 524q0 347 -41.5 581.5t-128.5 385.5q13 38 43 56.5t88 25.5q107 -145 159 -383.5t52 -587.5q0 -383 -72 -656t-202 -388z" />
    <glyph glyph-name="asterisk" unicode="*" horiz-adv-x="616" 
d="M52 1388q6 19 14 34t18 28q49 -18 138 -56q21 -9 32 -13q2 41 5.5 85.5t8.5 91.5q15 4 24 5.5t13 1.5q8 0 30 -3q5 -1 7 -1q9 -52 14.5 -97t8.5 -83q55 27 90.5 42t70.5 27q12 -9 21.5 -22.5t17.5 -32.5q-43 -35 -79.5 -62t-69.5 -49q35 -21 72 -46.5t77 -55.5
q-4 -17 -12.5 -32.5t-21.5 -30.5q-43 14 -84 31.5t-80 37.5q-1 -7 -2 -21q-8 -98 -17 -159q-13 -3 -22.5 -3.5t-18.5 -0.5q-5 0 -15 1t-16 1q-6 42 -11 87t-9 94q-56 -27 -93.5 -42.5t-72.5 -26.5q-9 8 -18.5 21t-19.5 33q36 28 71 55t76 57q-19 11 -56 37t-91 67z" />
    <glyph glyph-name="plus" unicode="+" horiz-adv-x="1706" 
d="M913 1221v-551h539v-117h-539v-553h-118v553h-541v117h541v551h118z" />
    <glyph glyph-name="comma" unicode="," horiz-adv-x="358" 
d="M152 -16q-25 33 -45 70t-35 77q33 35 65 51.5t68 16.5h12q26 -44 38.5 -88t12.5 -95q0 -74 -22.5 -150.5t-65.5 -148.5l-67 11q4 21 13 63q26 122 26 182v11z" />
    <glyph glyph-name="hyphen" unicode="-" horiz-adv-x="408" 
d="M63 523q-10 28 -16 55t-6 45q0 8 1.5 19.5t4.5 22.5q58 13 113 19t112 6q11 0 52 -2q27 -1 44 -2q-1 -41 -9.5 -76t-24.5 -69q-98 -2 -161 -6.5t-110 -11.5z" />
    <glyph glyph-name="period" unicode="." horiz-adv-x="358" 
d="M160 -29q-36 26 -57.5 60.5t-32.5 85.5q23 25 57 43.5t84 34.5q27 -27 40.5 -64t16.5 -92q-24 -24 -50.5 -40.5t-57.5 -27.5z" />
    <glyph glyph-name="slash" unicode="/" horiz-adv-x="584" 
d="M442 1575q20 6 34 9t22 3q20 0 40 -7.5t46 -27.5q-75 -245 -153 -515.5t-167 -598.5l-178 -645q-23 -6 -34 -8t-19 -2q-25 0 -45 10.5t-39 34.5q120 399 243 834.5t250 912.5z" />
    <glyph glyph-name="zero" unicode="0" horiz-adv-x="631" 
d="M313 1008q-53 0 -84.5 -129t-31.5 -353q0 -193 31.5 -282.5t99.5 -89.5q55 0 79.5 104t24.5 346q0 179 -34 291.5t-85 112.5zM47 557q0 295 73 449.5t212 154.5q123 0 186.5 -146t63.5 -431q0 -299 -69.5 -454t-203.5 -155q-120 0 -191 156t-71 426z" />
    <glyph glyph-name="one" unicode="1" horiz-adv-x="469" 
d="M352 1147q10 -73 14.5 -147t4.5 -156q0 -211 -10 -422t-29 -416q-30 -16 -53.5 -24.5t-36.5 -8.5q-8 0 -17 3.5t-20 9.5q-4 201 -6 408t-2 423v225l-191 7q-18 0 -27.5 7t-9.5 21q0 15 15 26t47 19q65 17 146 29t118 12q14 0 28 -4t29 -12z" />
    <glyph glyph-name="two" unicode="2" horiz-adv-x="606" 
d="M242 146q19 -4 36 -5.5t33 -1.5q53 0 114.5 13.5t162.5 47.5q9 -20 12.5 -39t3.5 -48q0 -9 -1.5 -24t-8.5 -62q-60 -20 -136 -29.5t-169 -9.5q-68 0 -122.5 8.5t-106.5 25.5q1 59 19.5 127t74.5 199q10 25 30 73q109 255 109 386q0 79 -20.5 123.5t-66.5 62.5
q-39 -4 -74.5 -18t-70.5 -39q-43 30 -60 54.5t-17 56.5v10q51 49 117 76.5t135 27.5q95 0 160 -94.5t65 -237.5q0 -131 -96 -359.5t-123 -323.5z" />
    <glyph glyph-name="three" unicode="3" horiz-adv-x="573" 
d="M63 -356h17q123 0 187.5 69.5t64.5 204.5q0 102 -59.5 176t-137.5 74q-13 0 -22 -3t-17 -9q-29 19 -43 41.5t-14 50.5q0 2 1 6.5t1 7.5q149 131 212.5 247.5t63.5 254.5q0 120 -57.5 189t-157.5 69q-13 0 -54 -3q-11 -1 -15 -1q-6 17 -9.5 34t-3.5 35q1 14 4 44q0 4 1 6
q28 12 56 18t58 6q152 0 249 -110t97 -285q0 -128 -56 -244.5t-181 -245.5q124 -41 191 -140t67 -240q0 -162 -116.5 -275t-274.5 -113q-17 1 -32.5 2t-37.5 5q-12 17 -17 31t-5 28q0 18 9.5 34.5t30.5 35.5z" />
    <glyph glyph-name="four" unicode="4" horiz-adv-x="707" 
d="M389 934l-31 -4q-45 -150 -94 -341.5t-104 -434.5q40 3 94 6.5t143 7.5v219q0 68 -4 308q-2 149 -4 239zM406 -389q-7 107 -10 206.5t-3 190.5q-17 -1 -37 -1.5t-59 -0.5q-70 0 -141 3t-144 9l-14 21q70 284 142.5 550t148.5 517q60 29 116 46.5t114 24.5l18 -18
q8 -197 12 -439t4 -552q42 0 83.5 -5t84.5 -16v-12q0 -27 -5.5 -52t-17.5 -50q-32 -9 -67 -13t-78 -4q-2 -101 -6.5 -201t-11.5 -197q-19 -10 -35 -14.5t-33 -4.5q-15 0 -29 2.5t-32 9.5z" />
    <glyph glyph-name="five" unicode="5" horiz-adv-x="537" 
d="M10 -283q25 -5 46 -7.5t38 -2.5q119 0 179.5 75t60.5 222q0 133 -61 204t-175 71l-26 50q-1 20 -1.5 43t-0.5 70q0 164 22 337t66 358q77 19 136.5 28t111.5 9l84 -1q5 -16 7.5 -28.5t2.5 -22.5q0 -16 -5.5 -39.5t-15.5 -54.5q-57 -5 -105 -11.5t-89 -15.5
q-30 -134 -45 -277.5t-15 -299.5q134 -26 206.5 -134t72.5 -280q0 -206 -105.5 -325t-287.5 -119q-32 0 -62 4.5t-63 13.5q-6 16 -8.5 25t-2.5 16q0 16 9 39t26 53z" />
    <glyph glyph-name="six" unicode="6" horiz-adv-x="680" 
d="M248 791q-17 -105 -25 -211t-8 -218q0 -131 18.5 -192t57.5 -61q63 0 118.5 125.5t55.5 297.5q0 132 -37.5 211.5t-95.5 79.5q-16 0 -33.5 -6.5t-50.5 -25.5zM260 1550q15 7 28.5 11t22.5 4q25 0 42 -16t26 -46l-102 -538q19 9 36.5 13.5t34.5 4.5q111 0 194 -135
t83 -334q0 -238 -97 -399.5t-233 -161.5q-119 0 -181.5 106t-62.5 310q0 216 53.5 520t155.5 661z" />
    <glyph glyph-name="seven" unicode="7" horiz-adv-x="563" 
d="M84 -420q64 230 130.5 563.5t154.5 870.5l-338 -56q-10 35 -14.5 56.5t-4.5 36.5q0 13 3 29.5t8 33.5q88 9 170 19t155 22l80 12q17 3 29.5 4.5t17.5 2.5q11 0 24.5 -4t32.5 -13q-35 -179 -94 -556l-8 -48l-156 -987q-25 -19 -46.5 -27t-47.5 -8q-36 0 -58 11t-38 38z
" />
    <glyph glyph-name="eight" unicode="8" horiz-adv-x="631" 
d="M324 936q54 78 79 152.5t25 156.5q0 71 -17 111.5t-46 40.5q-39 0 -69 -83t-30 -198q0 -31 13.5 -73t44.5 -107zM303 727q-55 -69 -81.5 -151.5t-26.5 -184.5q0 -112 44 -189t103 -77q42 0 71 56.5t29 140.5q0 80 -30 170.5t-109 234.5zM231 834q-48 83 -73 170t-25 174
q0 156 67 254t173 98q92 0 149.5 -77t57.5 -200q0 -17 -2 -40t-5 -48q-14 -80 -53.5 -158t-122.5 -184q107 -140 157 -263.5t50 -244.5q0 -138 -81.5 -241t-188.5 -103q-118 0 -212.5 108.5t-94.5 258.5q0 119 50.5 241.5t153.5 254.5z" />
    <glyph glyph-name="nine" unicode="9" horiz-adv-x="649" 
d="M410 365q3 76 4.5 138.5t1.5 108.5q0 162 -26.5 278t-59.5 116q-32 0 -74.5 -133.5t-42.5 -276.5q0 -129 25 -186.5t79 -57.5q16 0 35.5 2.5t57.5 10.5zM477 -436q-27 -12 -43.5 -16.5t-30.5 -4.5q-18 0 -30.5 7.5t-26.5 25.5q0 93 20 315.5t27 329.5l-11 -3
q-101 -30 -134 -30q-87 0 -143 102.5t-56 266.5q0 149 39.5 277t122.5 249q31 45 63.5 68t65.5 23q111 0 176.5 -151t65.5 -413q0 -204 -27 -473.5t-78 -572.5z" />
    <glyph glyph-name="colon" unicode=":" horiz-adv-x="387" 
d="M154 651q-27 35 -43.5 71t-24.5 75q24 23 56.5 40.5t84.5 32.5q22 -25 38 -61t30 -86q-23 -23 -57 -40.5t-84 -31.5zM174 -29q-36 26 -57.5 60.5t-32.5 85.5q31 29 63.5 49t69.5 33q32 -32 50 -67t24 -79q-24 -30 -52.5 -50t-64.5 -32z" />
    <glyph glyph-name="semicolon" unicode=";" horiz-adv-x="387" 
d="M166 -16q-25 33 -45 70.5t-34 77.5q31 28 66 44t78 23q27 -58 39.5 -105t12.5 -94q0 -56 -18.5 -124.5t-59.5 -164.5l-78 17q4 21 13 63q26 122 26 182v11zM156 659q-30 35 -47 69t-23 69q24 23 56.5 40.5t84.5 32.5q22 -25 38 -61t30 -86q-23 -25 -56 -40t-83 -24z" />
    <glyph glyph-name="less" unicode="&#x3c;" horiz-adv-x="1706" 
d="M1442 1018l-1000 -408l1000 -405v-129l-1178 483v103l1178 483v-127z" />
    <glyph glyph-name="equal" unicode="=" horiz-adv-x="1706" 
d="M1452 477v-117h-1198v117h1198zM1452 860v-117h-1198v117h1198z" />
    <glyph glyph-name="greater" unicode="&#x3e;" horiz-adv-x="1706" 
d="M1442 662v-103l-1178 -483v129l1000 405l-1000 408v127z" />
    <glyph glyph-name="question" unicode="?" horiz-adv-x="530" 
d="M119 18q-4 20 -6 37t-2 29q0 21 7 61q0 3 1 4q18 7 32 10t27 3q18 0 39 -2.5t45 -8.5q6 -29 8 -49.5t2 -38.5q0 -17 -7 -52q0 -2 -1 -5q-23 -6 -40 -9t-27 -3q-17 0 -35.5 6t-42.5 18zM260 578v-41q0 -58 -3.5 -112t-11.5 -110q-11 -5 -25 -7.5t-32 -2.5q-10 0 -24 2.5
t-31 8.5q-14 70 -21.5 129t-7.5 108q0 26 6 101q2 22 3 32q91 9 139.5 88t48.5 219q0 154 -57.5 235.5t-171.5 90.5q-1 7 -1.5 15t-0.5 22q0 33 8.5 57t27.5 43h15q160 0 252 -120t92 -330q0 -161 -53 -271t-152 -157z" />
    <glyph glyph-name="at" unicode="@" 
d="M1292 844l58 121h110l-141 -568q-6 -24 -9 -44t-3 -36q0 -44 27.5 -67t82.5 -23q45 0 100 24t103 64q89 76 139.5 196.5t50.5 254.5q0 266 -195.5 428t-518.5 162q-168 0 -312.5 -52t-259.5 -153q-140 -122 -211 -282.5t-71 -354.5q0 -173 60.5 -304t186.5 -230
q101 -81 240 -124.5t295 -43.5q172 0 334.5 48.5t296.5 139.5l45 -66q-147 -109 -313 -165t-347 -56q-191 0 -348 46.5t-276 138.5q-153 117 -228 272t-75 352q0 163 50.5 309t149.5 269q146 176 349.5 267t453.5 91q165 0 311 -43.5t248 -124.5q129 -99 195.5 -230
t66.5 -282q0 -169 -62.5 -308.5t-182.5 -236.5q-69 -55 -148.5 -83.5t-163.5 -28.5q-99 0 -148.5 39t-49.5 116q0 3 1 11t1 12q-51 -87 -127 -132.5t-170 -45.5q-153 0 -233.5 85t-80.5 247q0 230 137 389t332 159q91 0 153.5 -39.5t96.5 -117.5zM1202 473l60 242
q-17 90 -72 140t-135 50q-146 0 -244 -131.5t-98 -327.5q0 -110 51 -169.5t145 -59.5q102 0 183.5 70.5t109.5 185.5z" />
    <glyph glyph-name="A" unicode="A" horiz-adv-x="649" 
d="M342 1210q-30 -172 -56 -334t-55 -348h12q58 -4 83 -4q9 0 40 2q23 2 35 2q-19 172 -33.5 342t-25.5 340zM444 1542q32 -323 78 -704t105 -807q-23 -21 -47 -31t-52 -10q-22 0 -35 1t-24 3q-16 113 -34 253t-19 146q-16 1 -41 2q-37 2 -47 2q-32 0 -104 -3q-9 -1 -13 -1
q-15 -108 -26.5 -205t-18.5 -173q-31 -17 -53.5 -24t-42.5 -7q-21 0 -40 7t-40 23q66 433 140 813.5t159 716.5q28 8 48 11.5t36 3.5t33.5 -4t37.5 -13z" />
    <glyph glyph-name="B" unicode="B" horiz-adv-x="684" 
d="M268 943q6 -2 11.5 -2.5t15.5 -0.5q65 0 94 51.5t29 171.5q0 124 -30.5 191t-86.5 67q-9 0 -17.5 -0.5t-17.5 -1.5q0 -83 2 -180v-31v-265zM246 152q7 -1 20 -4t17 -3q68 0 109.5 98t41.5 263t-34.5 238t-110.5 73q-3 0 -10.5 -1t-10.5 -1q0 -146 -5.5 -311t-16.5 -352z
M457 887q77 -63 113 -159.5t36 -244.5q0 -246 -91.5 -372.5t-268.5 -126.5q-20 0 -88 3q-51 3 -82 5q15 281 22.5 537.5t7.5 488.5q0 150 -2 268t-7 226q41 21 86 31.5t96 10.5q150 0 229.5 -92.5t79.5 -269.5q0 -114 -31.5 -186.5t-99.5 -118.5z" />
    <glyph glyph-name="C" unicode="C" horiz-adv-x="573" 
d="M549 1444q-19 -19 -103 -89.5t-122 -129.5q-52 -80 -80.5 -228.5t-28.5 -341.5q0 -223 61 -362t152 -139q14 0 46 15q19 9 29 13q22 -14 34 -36t12 -48q0 -8 -2.5 -18t-7.5 -22q-30 -46 -59 -63.5t-74 -17.5q-160 0 -263.5 187.5t-103.5 492.5q0 372 112 594.5t341 304.5
q29 -14 43 -37.5t14 -58.5v-16z" />
    <glyph glyph-name="D" unicode="D" horiz-adv-x="662" 
d="M274 1401q-6 -162 -9 -351.5t-3 -400.5q0 -145 2.5 -269t8.5 -241h1q84 0 118 140t34 524q0 292 -36 446t-103 154q-2 0 -6.5 -1t-6.5 -1zM111 1548h106q216 0 300.5 -171.5t84.5 -616.5q0 -438 -79.5 -606t-276.5 -168q-46 0 -76.5 1t-60.5 3q-9 218 -13 399.5t-4 337.5
q0 142 4 322.5t15 498.5z" />
    <glyph glyph-name="E" unicode="E" horiz-adv-x="573" 
d="M514 1440l-26 -57q-37 2 -54.5 2.5t-34.5 0.5q-39 0 -77 -4.5t-76 -13.5q2 -91 5.5 -167.5t8.5 -145.5h55q28 0 58.5 0.5t90.5 3.5q22 -11 32.5 -26.5t13.5 -41.5q-3 -29 -14.5 -50.5t-35.5 -39.5q-39 3 -77 4.5t-76 1.5h-47q2 -78 3 -147.5t1 -136.5q0 -124 -3.5 -237.5
t-10.5 -219.5q1 0 4 -1q117 -18 158 -18q34 0 64.5 4.5t60.5 12.5q13 -24 21 -49t11 -54q-15 -26 -35.5 -47.5t-43.5 -35.5q-24 -2 -44 -2.5t-43 -0.5q-98 0 -185.5 10t-160.5 29q20 162 29.5 335.5t9.5 367.5q0 102 -5 312t-15 493q84 12 190.5 18t259.5 8q4 -12 6.5 -22.5
t2.5 -18.5q0 -13 -5.5 -30t-15.5 -37z" />
    <glyph glyph-name="F" unicode="F" horiz-adv-x="541" 
d="M244 1006q52 1 110.5 2.5t124.5 3.5q8 -17 12.5 -31.5t4.5 -24.5q0 -8 -3 -20t-12 -39q-32 -18 -113.5 -28t-117.5 -17q2 -51 5 -142q11 -282 11 -378q0 -60 -3 -131t-11 -170q-9 -26 -24.5 -37t-46.5 -14q-6 -2 -10 -2.5t-13 -0.5q-22 0 -41.5 9t-40.5 28q12 74 17 175
t5 262q0 188 -22.5 564t-28.5 519q70 14 127 20.5t107 6.5q38 0 102 -7.5t157 -21.5q4 -13 5.5 -23t1.5 -18q0 -2 -2 -11.5t-4 -18.5q-8 -16 -18.5 -27t-27.5 -21q-23 -3 -43 -4.5t-36 -1.5q-22 0 -53.5 2t-40.5 2q-35 0 -56 -1t-43 -3q7 -154 18 -348q2 -38 3 -53z" />
    <glyph glyph-name="G" unicode="G" horiz-adv-x="674" 
d="M582 1006l22 -23q1 -41 1.5 -89t0.5 -138q0 -260 -13 -447t-40 -309q-34 -25 -67 -36t-72 -11q-195 0 -281 205.5t-86 679.5q0 375 111 559t338 184h9q4 -15 5.5 -27t1.5 -18q0 -24 -8 -45t-25 -43q-38 -11 -75.5 -29.5t-75.5 -46.5q-53 -71 -77 -196t-24 -340
q0 -202 14 -349t42 -239q15 -44 42 -79.5t66 -66.5l39 17q6 136 9 274t3 277v198q-25 2 -54.5 5t-65.5 8q-6 20 -8.5 33t-2.5 22q0 8 5 36q2 12 4 19q39 8 85.5 11.5t116.5 3.5h60z" />
    <glyph glyph-name="H" unicode="H" horiz-adv-x="721" 
d="M74 1500q7 29 32 40.5t84 11.5q9 0 18.5 -2.5t28.5 -11.5q8 -143 15 -304.5t8 -176.5h47q42 0 79.5 2t70.5 6v129q0 102 2 185t6 155q27 13 51 19t49 6q16 -1 32 -3t38 -8q-1 -34 -2 -96q-6 -236 -6 -324q0 -124 1 -414t1 -456l-1 -244q-28 -13 -48.5 -18.5t-40.5 -5.5
q-26 0 -81 11q-4 1 -5 1q3 137 4.5 276.5t1.5 280.5q0 124 -0.5 204t-1.5 158l-103 -1q-27 0 -50 -2t-44 -7v-397q0 -145 -5 -275t-15 -247q-26 -8 -51.5 -11t-55.5 -4h-22l-29 19q7 150 10.5 305t3.5 315q0 186 -5.5 405t-16.5 479z" />
    <glyph glyph-name="I" unicode="I" horiz-adv-x="342" 
d="M92 -6l-2 422q-1 176 -2.5 380.5t-1.5 231.5q0 101 1 212t3 267q3 15 10.5 24t20.5 13q11 1 26 2.5t19 1.5q19 0 36.5 -5.5t39.5 -18.5q8 -219 12 -411t4 -365q0 -175 -3 -366t-9 -396q-18 -9 -39 -13t-47 -4h-17z" />
    <glyph glyph-name="J" unicode="J" horiz-adv-x="500" 
d="M106 109l9 -3q19 -6 24 -6q61 0 86 177t25 643q0 121 -4.5 260t-14.5 331q25 25 44 34t42 9q16 0 34.5 -4t41.5 -12q14 -170 20.5 -318.5t6.5 -281.5q0 -599 -61 -781t-226 -182q-79 0 -129.5 53t-50.5 134q0 13 4 25.5t12 25.5q16 6 29.5 9t28.5 3q8 0 23 -3t34 -9
q2 -32 7 -57t15 -47z" />
    <glyph glyph-name="K" unicode="K" horiz-adv-x="698" 
d="M246 950q111 218 176 361.5t88 220.5l57 -2q32 -6 51.5 -20t32.5 -39q-46 -132 -107.5 -260t-140.5 -257q68 -264 143.5 -485t153.5 -385v-6q0 -34 -18 -56.5t-76 -52.5l-61 8q-64 136 -138 376.5t-161 596.5zM59 2q9 134 13 289.5t4 462.5q0 288 -3 463t-10 301l38 20
q24 5 36.5 6.5t22.5 1.5q16 0 33.5 -7t35.5 -21q5 -184 8 -387.5t3 -417.5q0 -213 -3.5 -377.5t-11.5 -319.5q-14 -20 -26.5 -27t-34.5 -7q-21 0 -46.5 5t-58.5 15z" />
    <glyph glyph-name="L" unicode="L" horiz-adv-x="588" 
d="M265 1556l22 -18q-15 -228 -22 -441t-7 -411q0 -164 6.5 -303t20.5 -266l30 3q167 15 178 39l7 1q14 0 29.5 -6t37.5 -21q15 -16 22 -34.5t7 -41.5q0 -4 -1 -11t-1 -11q-48 -29 -116.5 -46t-174.5 -26q-75 16 -118 37.5t-72 56.5q-12 197 -17.5 381t-5.5 361
q0 190 8 372.5t25 360.5q16 16 34.5 23.5t45.5 7.5q15 0 30 -1.5t32 -5.5z" />
    <glyph glyph-name="M" unicode="M" horiz-adv-x="862" 
d="M625 1202q-85 -237 -112.5 -325t-37.5 -138q-11 -11 -25 -18t-33 -10l-38 10q-27 119 -58.5 243.5t-66.5 254.5q-13 -350 -18 -573.5t-5 -409.5q0 -97 0.5 -144t1.5 -88q-19 -13 -37 -18.5t-42 -5.5q-26 0 -50 4.5t-47 13.5q8 476 28.5 872.5t49.5 657.5q22 10 42 15
t38 5q14 0 28.5 -4t35.5 -14q34 -98 68 -221.5t83 -337.5q41 123 92.5 257t122.5 298q16 14 29.5 20t27.5 6q15 0 33.5 -5t40.5 -15q-4 -176 -6 -342.5t-2 -323.5q0 -189 5 -396t15 -445q-22 -13 -46 -19t-54 -6q-23 0 -41 4.5t-35 13.5q-2 111 -3 220.5t-1 267.5
q0 159 4 331.5t13 364.5z" />
    <glyph glyph-name="N" unicode="N" horiz-adv-x="705" 
d="M211 1532q65 -174 129 -326t133 -297q0 13 -1 38q-3 131 -3 183q0 92 1 194t3 216q5 2 9 5.5t14 13.5l60 1q18 -3 36 -9t35 -15q2 -168 3 -274.5t1 -200.5q0 -353 -5.5 -630.5t-15.5 -457.5q-20 -5 -36 -11.5t-29 -14.5q-5 0 -12.5 -1t-10.5 -1q-16 0 -32 3.5t-35 12.5
q4 225 6 374.5t2 285.5q-81 159 -138.5 277t-93.5 200q4 -232 6.5 -423t2.5 -308q0 -86 -1.5 -181t-5.5 -201q-19 -8 -37.5 -12t-35.5 -4q-19 0 -37 6t-39 19q-3 308 -4.5 590.5t-1.5 539.5v402q11 8 22.5 12t22.5 4q19 0 40.5 -2.5t47.5 -7.5z" />
    <glyph glyph-name="O" unicode="O" horiz-adv-x="694" 
d="M270 1374q-23 -81 -33 -208.5t-10 -366.5q0 -284 17 -432.5t55 -221.5h6q86 0 125 156t39 500q0 331 -32 465.5t-107 134.5q-16 0 -31 -7t-29 -20zM291 -23q-119 0 -181.5 211.5t-62.5 616.5q0 295 27.5 429t93.5 220q45 59 85.5 83t96.5 24q148 0 222.5 -185t74.5 -553
q0 -284 -35 -456.5t-110 -262.5q-50 -60 -105.5 -93.5t-105.5 -33.5z" />
    <glyph glyph-name="P" unicode="P" horiz-adv-x="633" 
d="M254 1372q0 -69 -1 -148t-1 -89q0 -89 1 -184t3 -228q5 -1 10.5 -1.5t16.5 -0.5q73 0 106 74t33 239q0 176 -38.5 252t-129.5 86zM256 573q0 -181 2.5 -318t7.5 -253q-30 -7 -55 -10.5t-45 -3.5q-19 0 -38 3.5t-44 13.5q2 174 3 281t1 201q0 149 -2 421.5t-6 609.5l29 24
q253 0 369 -118t116 -377q0 -235 -83 -354.5t-247 -119.5h-8z" />
    <glyph glyph-name="Q" unicode="Q" horiz-adv-x="664" 
d="M307 188q75 55 106 176.5t31 389.5q0 210 -25 370.5t-71 245.5q-14 7 -25 11.5t-21 6.5q-44 -122 -66.5 -259t-22.5 -281q0 -187 24 -354.5t70 -305.5zM166 111q-60 148 -90.5 319t-30.5 363q0 308 84.5 538t181.5 230q163 0 234 -176.5t71 -589.5q0 -332 -55.5 -489
t-191.5 -251q29 -63 66.5 -116t84.5 -99q44 31 72.5 45t52.5 17q28 -4 43.5 -17.5t22.5 -40.5q-46 -76 -100.5 -125t-90.5 -49q-41 0 -125 87.5t-159 219.5q-30 -14 -63.5 -24t-70.5 -14q-23 25 -35 48t-12 44q0 7 3 25q1 6 1 10q29 8 55.5 19t51.5 26z" />
    <glyph glyph-name="R" unicode="R" horiz-adv-x="664" 
d="M244 860h24q81 0 109.5 44.5t28.5 195.5q0 204 -20.5 258.5t-82.5 54.5q-10 0 -21.5 -2.5t-33.5 -9.5q-3 -213 -3.5 -327t-0.5 -214zM74 1513q65 23 128.5 34.5t127.5 11.5q128 0 186.5 -95.5t58.5 -304.5q0 -135 -28 -214.5t-90 -121.5q122 -38 165 -770q0 -5 1 -8
l-33 -49q-23 -7 -39 -10.5t-27 -3.5q-16 0 -37.5 3.5t-50.5 12.5v129q0 154 -12 303.5t-27 216.5q-8 46 -30 66t-62 20q-13 0 -28 -1.5t-33 -4.5v-168q0 -100 3.5 -245.5t10.5 -310.5q-38 -9 -59.5 -12t-36.5 -3q-19 0 -37 3.5t-41 12.5q1 102 2 281q2 352 2 458
q0 225 -3.5 415t-10.5 355z" />
    <glyph glyph-name="S" unicode="S" horiz-adv-x="469" 
d="M368 1488q-87 -84 -130 -161t-43 -149q0 -77 104 -365q12 -33 18 -51q59 -159 85 -268.5t26 -190.5q0 -141 -71 -241.5t-216 -163.5q-55 24 -79.5 49t-24.5 57v4q137 87 179 145.5t42 141.5q0 118 -128 483q-6 16 -9 25q-55 156 -71.5 231t-16.5 142q0 82 24 152.5
t74 133.5q43 54 86.5 87.5t67.5 33.5q32 0 53 -23.5t30 -71.5z" />
    <glyph glyph-name="T" unicode="T" horiz-adv-x="604" 
d="M571 1378q-37 2 -76.5 3t-103.5 1q-9 -398 -13.5 -742.5t-4.5 -633.5q-29 -11 -50 -15.5t-38 -4.5q-19 0 -39.5 6t-46.5 20q9 271 13.5 543t4.5 549v37q-2 127 -2 241q-27 -1 -85 -2t-89 -2q-9 18 -13.5 37.5t-4.5 40.5q0 3 1 10.5t1 10.5q17 41 67 58t158 17
q77 0 164.5 -12.5t187.5 -38.5v-24q0 -33 -7.5 -56.5t-23.5 -42.5z" />
    <glyph glyph-name="U" unicode="U" horiz-adv-x="696" 
d="M359 146q46 52 68 194t22 389q0 175 -21 710q-1 39 -2 60q7 30 33 42.5t84 12.5q11 0 36 -11q7 -3 11 -5q13 -273 17.5 -426.5t4.5 -280.5q0 -445 -40 -596t-138 -239q-26 -11 -49 -17t-43 -6q-156 0 -212 100t-56 539v332q0 128 -0.5 281.5t-1.5 324.5q20 4 42 6.5
t46 2.5q24 -1 44 -5.5t44 -15.5v-467v-446v-109q0 -244 18 -309.5t66 -65.5q3 0 8.5 1t18.5 4z" />
    <glyph glyph-name="V" unicode="V" horiz-adv-x="623" 
d="M647 1544q-108 -561 -167 -922t-89 -636q-26 -7 -48 -10t-40 -3q-30 0 -54 10t-50 33q-23 258 -67 609t-124 907q28 14 52.5 21.5t48.5 7.5q21 0 42.5 -6.5t41.5 -18.5q15 -197 54 -596t56 -598q42 336 86 637t90 563q20 16 36 23.5t32 7.5q23 0 48 -7t52 -22z" />
    <glyph glyph-name="W" unicode="W" horiz-adv-x="868" 
d="M369 961q21 12 37 17t32 5q15 0 31 -4.5t39 -16.5q13 -98 37.5 -224.5t66.5 -313.5q12 305 31 578t47 522q3 1 11 5q50 25 75 25q26 0 44 -12.5t28 -38.5q-47 -371 -73.5 -693.5t-39.5 -651.5l-6 -142q-21 -9 -45.5 -13.5t-58.5 -4.5h-29l-47 16l-6 143q-4 84 -32 236
t-79 357q-85 -294 -116.5 -421.5t-36.5 -188.5l-13 -140q-10 -5 -21.5 -7.5t-35.5 -2.5q-4 0 -11 1t-10 1l-76 9q-6 11 -9 25t-3 44l-26 1454l65 24q9 3 18.5 4.5t18.5 1.5q25 0 40.5 -8.5t29.5 -30.5l-17 -1103q125 405 140 549z" />
    <glyph glyph-name="X" unicode="X" horiz-adv-x="653" 
d="M637 31q-21 -25 -45.5 -37t-50.5 -12q-18 0 -48 12q-7 3 -9 4q-19 143 -57.5 310t-100.5 376l-224 -715q-9 0 -19.5 1l-10.5 1q-45 0 -68 16t-47 62l285 858q-50 130 -104.5 264.5t-117.5 282.5q5 39 44.5 69.5t76.5 30.5q10 0 17.5 -0.5t13.5 -1.5q33 -110 114 -323
q34 -89 50 -133l147 437q21 12 35 16.5t29 4.5q26 0 51 -12t53 -39q-74 -181 -130.5 -329.5t-100.5 -274.5q93 -274 147 -491.5t70 -376.5z" />
    <glyph glyph-name="Y" unicode="Y" horiz-adv-x="502" 
d="M338 870l-8 -303q-5 -185 -7 -322t-4 -266l-90 -14q-21 14 -40.5 21t-40.5 10q8 308 11 438t3 215q0 71 -2 132t-6 116q-28 115 -67.5 253t-102.5 343q17 29 41 44t55 15q5 0 21 -2q8 -1 14 -2q42 -108 76 -223.5t61 -239.5q38 181 69.5 288t67.5 183q3 1 9 1q31 4 46 4
q13 0 37.5 -7.5t55.5 -19.5q-30 -57 -84.5 -238.5t-114.5 -425.5z" />
    <glyph glyph-name="Z" unicode="Z" horiz-adv-x="547" 
d="M508 1479q-73 -288 -140 -617.5t-130 -711.5h10q36 0 76 15t118 62q34 -27 48 -56.5t14 -74.5q0 -6 -2 -26.5t-2 -30.5q-85 -29 -151.5 -43t-117.5 -14q-25 0 -58 4t-77 12q-23 20 -37 43.5t-20 52.5l108 508q42 189 79.5 374.5t72.5 373.5h-12q-58 0 -116 12.5
t-120 38.5q-1 4 -3 10q-9 30 -9 43q0 19 5.5 42t16.5 48q54 -17 98.5 -25t84.5 -8q41 0 84.5 8.5t92.5 26.5q29 -6 48 -21t39 -46z" />
    <glyph glyph-name="bracketleft" unicode="[" horiz-adv-x="455" 
d="M109 1559l26 18q24 -5 67 -14q145 -31 201 -31h17q19 -14 27 -26.5t8 -30.5q0 -30 -9 -47.5t-26 -22.5h-55q-14 0 -38.5 2t-56.5 6q-8 -167 -12 -333t-4 -330q0 -273 8 -499.5t25 -426.5q31 3 54.5 4.5t41.5 1.5q21 0 35.5 -0.5t27.5 -1.5l15 -18v-17q0 -24 -8.5 -45.5
t-26.5 -44.5q-85 -2 -150.5 -6.5t-123.5 -11.5l-31 6q-11 273 -17 537t-6 517q0 177 2.5 376t8.5 438z" />
    <glyph glyph-name="backslash" unicode="\" horiz-adv-x="584" 
d="M139 1575q119 -445 243 -882t253 -865q-20 -25 -39 -35t-45 -10q-9 0 -22.5 2.5t-32.5 7.5l-177 645q-108 391 -181 644t-140 470q23 19 43.5 27t42.5 8q8 0 21.5 -3t33.5 -9z" />
    <glyph glyph-name="bracketright" unicode="]" horiz-adv-x="455" 
d="M346 1558q5 -240 7.5 -464.5t2.5 -427.5q0 -217 -5.5 -459.5t-16.5 -515.5l-29 -6q-70 7 -139 11.5t-137 6.5q-17 20 -25 41t-8 47v19l12 18q14 1 28.5 1.5t35.5 0.5q17 0 40.5 -1.5t54.5 -4.5q17 207 25.5 428t8.5 457q0 189 -4.5 366t-12.5 338h-6q-80 -8 -119 -8h-24
q-16 4 -24.5 21.5t-8.5 48.5q0 20 7 32t26 25h16q57 0 201 31q44 9 67 14z" />
    <glyph glyph-name="asciicircum" unicode="^" 
d="M1104 1458l520 -557h-158l-442 438l-442 -438h-160l520 557h162z" />
    <glyph glyph-name="underscore" unicode="_" horiz-adv-x="1024" 
d="M1024 -365v-118h-1024v118h1024z" />
    <glyph glyph-name="grave" unicode="`" horiz-adv-x="1024" 
d="M373 1505q24 15 44 22t38 7q9 0 28 -6q9 -3 14 -4q19 -71 47 -131.5t66 -112.5q-17 -21 -39.5 -33t-54.5 -18q-46 50 -81.5 118t-61.5 158z" />
    <glyph glyph-name="a" unicode="a" horiz-adv-x="602" 
d="M362 180q0 93 -1.5 186.5t-4.5 190.5q-5 1 -11 1.5t-17 0.5q-59 0 -89 -47t-30 -139q0 -124 22 -162.5t80 -38.5q9 0 35 5q10 2 16 3zM131 932h-6q-32 0 -56 26t-24 56q0 4 3 10t11 16q57 34 118 66t124 61q125 -24 173 -135.5t48 -529.5q0 -139 -7 -459q-1 -33 -1 -49
q-21 -9 -37 -13t-31 -4q-16 0 -33.5 5t-33.5 14l-8 47q-42 -20 -84.5 -31.5t-73.5 -11.5q-82 0 -122 81.5t-40 252.5q0 199 63.5 286t207.5 87h32q-1 124 -29 204t-67 80q-9 0 -23.5 -5t-29.5 -13z" />
    <glyph glyph-name="b" unicode="b" horiz-adv-x="608" 
d="M213 186q8 -31 22.5 -48t34.5 -17q63 0 98 118t35 330q0 221 -31 330t-93 109q-13 0 -25 -5t-23 -14q1 -54 1.5 -103t0.5 -93q0 -141 -5 -292.5t-15 -314.5zM37 113q16 104 23.5 247t7.5 428q0 260 -7.5 417.5t-23.5 307.5q19 26 40 38t46 12q13 0 28 -4.5t46 -18.5
q12 -101 19.5 -205t9.5 -214q28 18 54 28t48 10q108 0 174.5 -149.5t66.5 -399.5q0 -290 -76 -463.5t-200 -173.5q-56 0 -95 22.5t-71 72.5q-32 0 -52.5 10t-37.5 35z" />
    <glyph glyph-name="c" unicode="c" horiz-adv-x="473" 
d="M455 86q-11 -47 -51.5 -79t-90.5 -32q-122 0 -195 151t-73 409q0 219 43 375t121 223q28 13 53.5 19.5t54.5 6.5q48 0 80 -9.5t54 -29.5v-18q0 -28 -8 -57.5t-25 -63.5q-34 18 -53 24.5t-35 6.5q-59 0 -89 -111.5t-30 -331.5q0 -164 25.5 -266.5t74.5 -136.5
q7 -1 17 -1.5t28 -0.5q25 0 46 2t40 6q8 -21 11.5 -37.5t3.5 -30.5q0 -3 -1 -9t-1 -9z" />
    <glyph glyph-name="d" unicode="d" horiz-adv-x="639" 
d="M232 192q32 -9 56.5 -13.5t41.5 -4.5q18 0 55 14l2 1q7 127 11 321.5t5 505.5q-22 5 -38 7.5t-27 2.5q-63 0 -92 -133t-29 -424q0 -74 3.5 -142.5t11.5 -134.5zM238 -4q-41 0 -70 12.5t-51 38.5q-34 70 -50 166t-16 242q0 194 28.5 354.5t80.5 261.5q16 35 59.5 57.5
t91.5 22.5q20 0 43.5 -4t48.5 -12l-4 356q27 28 55.5 40.5t65.5 12.5q6 0 17 -1.5t44 -8.5q-9 -280 -13.5 -605.5t-4.5 -697.5v-215l-61 -34h-15q-25 0 -47 5t-43 16q-3 12 -5.5 27.5t-4.5 44.5q-29 -27 -65.5 -46.5t-83.5 -32.5z" />
    <glyph glyph-name="e" unicode="e" horiz-adv-x="551" 
d="M376 774q2 23 3.5 47.5t1.5 26.5q0 75 -15 108t-49 33q-28 0 -46 -51.5t-31 -175.5zM506 137q1 -9 1.5 -17t0.5 -16q0 -57 -42.5 -93t-107.5 -36q-154 0 -233.5 133t-79.5 390q0 282 86.5 472.5t206.5 190.5q80 0 130 -93t50 -245q0 -45 -6.5 -87t-19.5 -83
q-26 -5 -45 -7.5t-35 -2.5q-4 0 -64.5 3.5t-117.5 4.5q-6 -66 -7.5 -99t-1.5 -60q0 -209 47.5 -283t182.5 -74h20l12 1t23 1z" />
    <glyph glyph-name="f" unicode="f" horiz-adv-x="367" 
d="M205 -170q-4 0 -12.5 -1t-14.5 -1q-34 0 -67 12t-68 37q0 35 11 175q37 489 40 920q-4 0 -9 -0.5t-15 -0.5q-19 0 -36 3t-32 9v23q8 30 21 53t32 39l39 2q0 133 36.5 229.5t113.5 167.5q26 14 47.5 22.5t44.5 14.5q6 -1 15 -1q171 -14 171 -79q0 -20 -8.5 -39.5
t-28.5 -42.5q-5 0 -16 -1t-16 -1q-25 0 -49 4.5t-47 13.5q-55 -30 -79 -87.5t-24 -157.5v-41l104 2q13 -23 20 -47t7 -47q0 -3 -1 -10.5t-1 -9.5q-23 -12 -50 -17.5t-63 -5.5l-18 -1q-1 -40 -1.5 -85.5t-0.5 -132.5q0 -94 1 -199q1 -30 1 -37q0 -328 -11 -483.5t-36 -198.5z
" />
    <glyph glyph-name="g" unicode="g" horiz-adv-x="596" 
d="M387 -243l2 9q19 86 19 105q0 76 -179 189q-19 12 -28 18q-36 0 -56 -33.5t-20 -93.5q0 -91 46.5 -150t117.5 -59q17 0 76 10q14 3 22 5zM367 565q2 27 3 53.5t1 59.5q0 97 -16.5 177t-49.5 144q-5 1 -11.5 1.5t-14.5 0.5q-41 0 -54.5 -43.5t-13.5 -187.5q0 -111 27 -172
t75 -61q14 0 25.5 6t28.5 22zM429 1127q19 13 40.5 21t46.5 11q17 -10 37 -15t47 -8q3 -11 4.5 -21.5t1.5 -18.5t-3 -20.5t-9 -26.5q-23 -19 -46.5 -34.5t-51.5 -29.5q12 -80 18 -150t6 -122q0 -121 -68.5 -219.5t-162.5 -98.5q-11 0 -16.5 0.5t-10.5 1.5q-12 -26 -19 -48
t-9 -42q41 -56 168 -163q31 -26 47 -40q59 -51 77.5 -88t18.5 -114v-19q0 -34 -5 -57.5t-16 -46.5q-80 -89 -157 -142t-121 -53q-99 0 -178.5 86.5t-79.5 214.5q0 84 31 143t103 114q-12 16 -17 26t-5 18q0 49 10 83t27 47v12q0 24 6 48t16 45q-52 41 -80 124t-28 200
q0 72 15.5 145t46.5 150q65 64 112.5 90t99.5 31q26 -1 51.5 -9.5t52.5 -24.5z" />
    <glyph glyph-name="h" unicode="h" horiz-adv-x="682" 
d="M72 1501q22 26 55.5 39.5t73.5 13.5q8 0 17 -1.5t20 -4.5q14 -62 21 -127.5t7 -142.5q0 -32 -1.5 -77.5t-4.5 -102.5q67 32 115.5 48.5t77.5 16.5q81 0 117 -104.5t36 -345.5q0 -37 -5 -272.5t-5 -434.5q-28 -9 -51.5 -13.5t-42.5 -4.5q-29 0 -48 8t-32 25
q7 158 10.5 292t3.5 236v129q0 205 -18 261t-68 56q-28 0 -50 -9.5t-44 -31.5q-8 -126 -11 -288.5t-3 -427.5v-222q-25 -10 -48 -15t-44 -5q-18 0 -37 3.5t-39 10.5q-1 38 -1.5 83t-0.5 130q0 249 10 587.5t10 428.5q0 53 -5 115.5t-15 146.5z" />
    <glyph glyph-name="i" unicode="i" horiz-adv-x="336" 
d="M82 1456q24 6 47.5 9t44.5 3q11 0 31 -4t45 -12q9 -28 13.5 -47.5t4.5 -32.5t-4.5 -30t-15.5 -45q-27 -8 -49 -11.5t-37 -3.5q-12 0 -30.5 3.5t-47.5 10.5q-8 29 -12 50t-4 36q0 10 2.5 24t11.5 50zM96 -2q-7 178 -10.5 323t-3.5 275q0 85 3 204t11 339q19 6 37.5 9
t36.5 3q19 0 36 -2t35 -6q6 -215 8.5 -408.5t2.5 -374.5q0 -58 -1 -173.5t-1 -171.5q-23 -16 -46 -23.5t-46 -7.5q-13 0 -26 3t-36 11z" />
    <glyph glyph-name="j" unicode="j" horiz-adv-x="342" 
d="M260 1444q6 -36 8 -52.5t2 -25.5q0 -16 -4 -35t-16 -53q-31 -9 -48 -12.5t-28 -3.5q-15 0 -33.5 5t-44.5 17q-6 30 -9 50t-3 32q0 21 16 74l2 6q32 8 51 11t33 3q12 0 31.5 -4t42.5 -12zM92 1138q17 9 32.5 13t31.5 4q14 0 57 -7q20 -3 32 -5q9 -371 14 -669.5t5 -393.5
q0 -233 -61.5 -319t-220.5 -101q-22 19 -31.5 44t-9.5 65q0 17 0.5 26.5t1.5 18.5q30 8 60 17.5t60 21.5q18 45 25.5 136.5t7.5 248.5q0 129 -3 347.5t-3 309.5q0 87 0.5 140t1.5 103z" />
    <glyph glyph-name="k" unicode="k" horiz-adv-x="627" 
d="M242 801q21 37 58 106q118 220 181 268q44 -8 75.5 -30.5t59.5 -67.5q-78 -73 -186 -233q-47 -70 -72 -103l271 -688q-32 -37 -69.5 -54.5t-90.5 -18.5l-227 665q1 -233 5 -408t11 -323q-49 -9 -69 -11.5t-33 -2.5q-23 0 -41.5 3t-38.5 11q1 134 2.5 385t1.5 322
q0 234 -4.5 461t-13.5 444q32 13 54 18.5t42 5.5t42.5 -4t49.5 -12q-4 -147 -6 -326.5t-2 -406.5z" />
    <glyph glyph-name="l" unicode="l" horiz-adv-x="326" 
d="M252 1533q-4 -146 -6 -278.5t-2 -242.5q0 -382 3.5 -609.5t12.5 -402.5q-42 -8 -66.5 -11t-41.5 -3t-34 3.5t-42 12.5q2 170 3 322.5t1 285.5q0 236 -4.5 465t-13.5 451q31 13 54.5 18.5t43.5 5.5t42 -3.5t50 -13.5z" />
    <glyph glyph-name="m" unicode="m" horiz-adv-x="977" 
d="M29 27q22 73 31.5 162t9.5 284q0 130 -7.5 291t-21.5 342q18 23 45.5 35.5t72.5 19.5h9q30 0 46 -19.5t20 -59.5q28 30 63.5 45.5t75.5 15.5q45 0 78 -19.5t61 -62.5q49 50 100 75t105 25q106 0 153.5 -83t47.5 -275q0 -104 -7.5 -296.5t-7.5 -281.5q0 -49 1.5 -103.5
t4.5 -109.5q-36 -16 -65.5 -24t-52.5 -8q-17 0 -34.5 4.5t-43.5 16.5q14 177 21 329t7 282q0 262 -19.5 324.5t-74.5 62.5q-47 0 -65.5 -48.5t-18.5 -198.5q0 -28 1 -101.5t1 -120.5q0 -100 3 -236.5t3 -172.5q0 -26 -3 -76l-1 -6l-42 -22q-8 -2 -15 -2.5t-21 -0.5
q-31 0 -54.5 7.5t-43.5 24.5q2 61 4 168q6 292 6 337v111q0 213 -16 270t-59 57q-22 0 -44.5 -12t-43.5 -35q-2 -45 -3.5 -85.5t-1.5 -80.5q0 -250 7 -512q2 -55 2 -65q0 -63 -7.5 -114t-21.5 -87q-19 -5 -34 -7.5t-27 -2.5q-26 0 -56.5 9.5t-66.5 29.5z" />
    <glyph glyph-name="n" unicode="n" horiz-adv-x="649" 
d="M55 1067q27 31 61.5 48t80.5 21l18 -57q41 17 84 36.5t88 41.5q9 2 18.5 3t22.5 1q75 0 109 -63.5t34 -206.5v-234q0 -214 4 -367.5t13 -266.5q-25 -17 -48.5 -25t-50.5 -8q-23 0 -46.5 6.5t-49.5 19.5q6 145 9.5 283t3.5 270v43q0 254 -16.5 311.5t-63.5 57.5
q-29 0 -54.5 -15.5t-40.5 -41.5q7 -121 10 -242.5t3 -247.5q0 -78 -1 -214.5t-1 -194.5q-15 -19 -35 -27t-53 -8q-26 0 -49 6t-48 20q11 178 16 349t5 337q0 122 -5.5 205.5t-17.5 159.5z" />
    <glyph glyph-name="o" unicode="o" horiz-adv-x="592" 
d="M297 1010q-41 -19 -61.5 -123.5t-20.5 -298.5q0 -252 18 -349.5t62 -97.5q46 0 64 97t18 376q0 207 -18.5 297t-61.5 99zM49 535q0 314 73.5 470t221.5 156q103 0 151 -131.5t48 -415.5q0 -289 -80 -464t-209 -175q-110 0 -157.5 128.5t-47.5 431.5z" />
    <glyph glyph-name="p" unicode="p" horiz-adv-x="616" 
d="M240 524q0 -225 14.5 -304t50.5 -79q48 0 69 109.5t21 363.5q0 215 -21.5 306.5t-70.5 91.5q-35 0 -49 -31t-14 -125v-332zM76 1097q27 3 41.5 4t25.5 1q9 0 26 -1t26 -1q52 35 86.5 48t68.5 13q109 0 161 -129.5t52 -398.5q0 -315 -62.5 -486.5t-176.5 -171.5
q-21 0 -40.5 8t-43.5 27v-145q0 -77 2.5 -122t7.5 -87q-27 -25 -62 -40t-59 -15q-29 0 -42 26t-13 88q0 7 1 45t1 70v1267z" />
    <glyph glyph-name="q" unicode="q" horiz-adv-x="631" 
d="M374 125l1 851q-11 13 -24 20.5t-32 10.5q-20 -7 -32.5 -19t-20.5 -30q-28 -153 -42.5 -301.5t-14.5 -279.5q0 -150 25 -204t83 -54q5 0 18.5 1.5t38.5 4.5zM563 -323q-47 -33 -93.5 -51.5t-94.5 -22.5v383q-2 -1 -7 -1q-37 -3 -55 -3q-146 0 -211 98t-65 319
q0 166 36 343t103 339q55 33 121.5 53.5t153.5 30.5q30 -9 58 -23t52 -32q-10 -200 -15 -389t-5 -373q0 -165 5.5 -333.5t16.5 -337.5z" />
    <glyph glyph-name="r" unicode="r" horiz-adv-x="510" 
d="M76 16q5 137 7.5 238.5t2.5 183.5q0 181 -6.5 344t-20.5 314q24 26 53.5 41.5t69.5 21.5q32 -22 46 -64t18 -153q68 67 115.5 109.5t78.5 64.5q34 -13 53.5 -40.5t32.5 -84.5q-72 -43 -139 -100.5t-131 -132.5q-3 -95 -4.5 -192t-1.5 -197q0 -63 2 -152t6 -194l-31 -39
q-9 0 -27 1t-26 1q-36 0 -59 7t-39 23z" />
    <glyph glyph-name="s" unicode="s" horiz-adv-x="408" 
d="M254 1214q36 -12 58.5 -33.5t37.5 -60.5l-15 -16q-138 -151 -138 -238q0 -43 57 -210q28 -80 43 -128q35 -112 46 -169t11 -107q0 -112 -47 -191.5t-141 -123.5q-35 6 -54 22.5t-42 71.5q56 64 84 127.5t28 128.5q0 42 -14 99t-57 179q-1 2 -2 5q-74 215 -74 290
q0 105 56.5 196.5t162.5 157.5z" />
    <glyph glyph-name="t" unicode="t" horiz-adv-x="467" 
d="M266 1315q5 -19 7.5 -41.5t2.5 -50.5v-86q0 -1 -1 -10.5t0 -20.5q34 1 79 6.5t105 15.5q29 -24 42.5 -54t14.5 -72q-33 -17 -80 -27.5t-159 -22.5q-10 -161 -14.5 -308.5t-4.5 -278.5q0 -168 15 -205t57 -37q22 0 41 4.5t36 13.5q14 -12 20.5 -25t6.5 -28q0 -19 -8.5 -38
t-30.5 -46q-53 -23 -89.5 -33t-65.5 -10q-85 0 -121.5 70.5t-36.5 236.5q0 82 10 253t10 259q0 68 -0.5 103.5t-1.5 64.5q-26 7 -48.5 16.5t-43.5 22.5v10q0 27 7.5 53t21.5 52l69 6l7 197q22 18 42.5 27t41.5 9q15 0 31 -5.5t38 -20.5z" />
    <glyph glyph-name="u" unicode="u" horiz-adv-x="631" 
d="M250 -8q-171 43 -177 614q-4 320 -16 522q25 12 47 17.5t43 5.5t43.5 -6.5t51.5 -22.5q-2 -81 -3 -209.5t-1 -283.5v-45q0 -244 14 -320t51 -104h12q15 0 28.5 2.5t28.5 7.5q7 77 10 157t3 177q0 177 -5 337.5t-15 307.5q21 9 42 13.5t42 4.5q24 0 49 -6.5t55 -21.5v-78
q0 -11 -1 -67q-5 -306 -5 -617q0 -147 2.5 -223t7.5 -143q-20 -14 -44.5 -19.5t-66.5 -5.5h-30q-13 22 -21 40t-12 33q-34 -32 -65.5 -50.5t-51.5 -18.5q-1 0 -6.5 1t-9.5 1z" />
    <glyph glyph-name="v" unicode="v" horiz-adv-x="563" 
d="M184 1153l86 -743l16 85q85 457 107 649q23 10 46 14.5t46 4.5q25 0 53.5 -8t63.5 -25q-106 -353 -182.5 -640t-124.5 -508q-18 -7 -33 -10t-31 -3q-44 0 -61 174q-19 205 -49 367l-111 598q43 29 73.5 42t55.5 13q8 0 41 -9q2 0 4 -1z" />
    <glyph glyph-name="w" unicode="w" horiz-adv-x="819" 
d="M209 -6q-37 293 -90.5 566.5t-124.5 533.5q29 37 62.5 55t72.5 18q11 0 32 -5t29 -7v-37q0 -52 20.5 -191.5t76.5 -459.5l1 4q75 212 83 303q-19 133 -37.5 201t-44.5 106q17 40 51.5 63t73.5 23q12 0 23.5 -4.5t27.5 -17.5q8 -70 38 -265t68 -431l62 366q14 78 23 147.5
t14 137.5q15 23 38 35.5t62 19.5q30 -11 47.5 -28t30.5 -48q-78 -267 -136.5 -541.5t-99.5 -557.5q-22 -6 -34.5 -8.5t-18.5 -2.5t-16.5 1.5t-26.5 5.5v32q0 13 -7 60.5t-28 169.5l-59 337q-48 -150 -80.5 -298t-48.5 -287q-18 -4 -27 -5t-16 -1q-9 0 -19.5 2.5t-21.5 7.5z
" />
    <glyph glyph-name="x" unicode="x" horiz-adv-x="567" 
d="M115 -14q-58 1 -90 22.5t-45 67.5l57 133q60 135 101.5 233t74.5 183q-56 157 -107 261.5t-106 176.5q28 42 63.5 61t86.5 19h22q46 -92 78.5 -167.5t52.5 -137.5q29 81 50 159t34 154l84 10q30 -6 46.5 -20.5t27.5 -42.5q-17 -74 -48 -170.5t-114 -319.5
q41 -111 80 -253t82 -335q-27 -23 -50 -35t-42 -12q-4 0 -26 4t-40 7q-39 173 -62.5 263t-43.5 152q-24 -68 -58 -153.5t-108 -259.5z" />
    <glyph glyph-name="y" unicode="y" horiz-adv-x="575" 
d="M188 49q-32 273 -76.5 532t-101.5 504q25 20 49.5 28.5t67.5 8.5q19 0 33.5 -0.5t29.5 -1.5q28 -158 53 -341t48 -394q36 177 64 368.5t48 399.5q28 6 39.5 8t18.5 2q22 0 48.5 -7.5t61.5 -22.5q-60 -434 -151 -826t-211 -737h-21q-43 0 -79.5 17.5t-73.5 56.5
q42 73 78 168t75 237z" />
    <glyph glyph-name="z" unicode="z" horiz-adv-x="537" 
d="M461 178q32 -22 46.5 -46.5t14.5 -53.5q0 -15 -7 -46q-1 -4 -1 -5q-52 -22 -99.5 -31.5t-97.5 -9.5q-52 0 -122 11.5t-158 35.5q-9 24 -14 48t-5 46q0 13 0.5 20t1.5 12l261 830q-15 -2 -29.5 -3t-34.5 -1q-31 0 -70 5t-88 16q-8 32 -12 58.5t-4 45.5q0 13 7 24t22 21
q32 -11 67.5 -15.5t83.5 -4.5q50 0 92.5 5t77.5 15q30 -15 46 -41.5t24 -75.5q-92 -297 -153.5 -503.5t-106.5 -370.5q22 -7 45 -10.5t45 -3.5q33 0 76 7t92 21z" />
    <glyph glyph-name="braceleft" unicode="{" horiz-adv-x="1024" 
d="M858 1350q-8 0 -23 1t-22 1q-121 0 -164 -47t-43 -197v-242q0 -166 -43.5 -235.5t-154.5 -100.5q111 -30 154.5 -99.5t43.5 -235.5v-242q0 -149 43.5 -195.5t169.5 -46.5h39v-125h-35q-99 0 -159.5 12t-102.5 40q-55 36 -77.5 100t-22.5 213v244q0 152 -55 213t-189 61
q-7 0 -22 -1t-23 -1v127q8 0 23 -1t22 -1q134 0 189 61.5t55 214.5v244q0 153 22.5 215.5t77.5 97.5q42 28 102 40t160 12h35v-127z" />
    <glyph glyph-name="bar" unicode="|" horiz-adv-x="1024" 
d="M575 1565v-2048h-126v2048h126z" />
    <glyph glyph-name="braceright" unicode="}" horiz-adv-x="1024" 
d="M563 1112v-244q0 -152 55.5 -214t190.5 -62q7 0 22 1t23 1v-127q-8 0 -23 1t-22 1q-135 0 -190.5 -62t-55.5 -214v-242q0 -153 -22 -216.5t-76 -99.5q-39 -26 -97.5 -37.5t-160.5 -11.5h-41v125q8 0 23 -1t22 -1q120 0 163.5 47.5t43.5 198.5v240q0 166 43.5 235.5
t154.5 99.5q-111 31 -154.5 100.5t-43.5 235.5v242q0 149 -44 196.5t-169 47.5h-39v125h35q100 0 161 -12.5t103 -39.5q54 -35 76 -98t22 -215z" />
    <glyph glyph-name="asciitilde" unicode="~" horiz-adv-x="1706" 
d="M1530 627q-101 -72 -197.5 -108t-189.5 -36q-43 0 -90.5 9t-100.5 26q-30 10 -87 31q-202 72 -302 72q-83 0 -173.5 -37.5t-211.5 -122.5v133q105 73 202 109t185 36q56 0 116.5 -12.5t174.5 -52.5q14 -5 44 -16q158 -58 245 -58q84 0 174.5 37t210.5 121v-131z" />
    <glyph glyph-name="nonbreakingspace" unicode="&#xa0;" horiz-adv-x="707" 
 />
    <glyph glyph-name="exclamdown" unicode="&#xa1;" horiz-adv-x="426" 
d="M268 1116q15 -212 22 -389t7 -326q0 -56 -5 -248q-2 -99 -4 -155q-11 -2 -22.5 -3t-21.5 -1q-34 0 -57.5 10.5t-45.5 34.5v12q-4 205 -4 305q0 200 6.5 390.5t18.5 369.5q15 13 28 20t25 7q15 0 27 -6t26 -21zM283 1425q0 -1 1 -6q7 -35 7 -51q0 -10 -4 -42
q-3 -20 -5 -32q-16 -6 -29.5 -9t-23.5 -3q-7 0 -33 1.5t-40 2.5l-15 6q-2 15 -5 39q-7 45 -7 58q0 14 7 45q1 4 2 6q19 5 36 7.5t31 2.5q15 0 32.5 -5.5t45.5 -19.5z" />
    <glyph glyph-name="cent" unicode="&#xa2;" horiz-adv-x="508" 
d="M420 909q-32 15 -52.5 21t-37.5 6q-58 0 -88.5 -93.5t-30.5 -269.5q0 -144 25.5 -232t76.5 -118h33q24 0 48.5 1.5t49.5 4.5q7 -15 11 -30.5t4 -28.5q0 -1 -1 -7t-1 -9q-6 -29 -35 -54.5t-68 -36.5q0 -78 -3 -122t-11 -76q-16 -7 -25.5 -9.5t-19.5 -2.5q-7 0 -17.5 1.5
t-25.5 4.5q-6 33 -9 68.5t-3 72.5q0 28 0.5 42t0.5 26q-93 47 -144.5 170.5t-51.5 304.5q0 186 44 321t122 191l31 10q-2 18 -2 53q0 15 3 45.5t9 73.5q17 3 26 4.5t15 1.5q10 0 23 -2t28 -6q5 -36 7.5 -68t2.5 -63l1 -29q32 -3 55 -11t41 -22q0 -50 -7.5 -80.5t-23.5 -52.5
z" />
    <glyph glyph-name="sterling" unicode="&#xa3;" horiz-adv-x="592" 
d="M68 -6q-8 17 -12.5 33.5t-4.5 29.5t2 25t6 22l74 25l41 158q10 35 16.5 81.5t6.5 82.5q0 30 -3 58.5t-8 54.5l-10 44l-72 12t-45 9q-2 10 -3 18.5t-1 20.5q0 8 2 19t9 34q5 1 17 3q50 9 71 9q-29 78 -43.5 148t-14.5 129q0 53 12 105.5t37 109.5q58 60 101.5 92.5
t85.5 48.5q23 3 48.5 4.5t63.5 1.5q14 0 27.5 -0.5t28.5 -1.5q18 -17 27.5 -33.5t9.5 -31.5q0 -12 -5.5 -22t-19.5 -23l-6 -21l-92 2q-13 -6 -41.5 -23t-61.5 -38q-28 -43 -41.5 -97.5t-13.5 -124.5q10 -61 22.5 -115.5t28.5 -102.5q42 -2 99 -5.5t63 -3.5q18 -1 35 -6.5
t35 -15.5l-7 -43q-14 -20 -31 -35t-38 -27l-119 -2q5 -35 7.5 -63.5t2.5 -55.5q0 -52 -14.5 -129t-46.5 -194h35q14 0 33.5 -3t40.5 -8l155 -34q1 -3 3 -10q9 -34 9 -52q0 -21 -6.5 -38t-21.5 -35l-172 32q-51 -5 -115 -9.5t-186 -8.5z" />
    <glyph glyph-name="currency" unicode="&#xa4;" horiz-adv-x="1241" 
d="M936 887q0 129 -91.5 221t-221.5 92t-222 -92t-92 -221q0 -131 91.5 -223.5t222.5 -92.5q129 0 221 93t92 223zM365 1212q60 46 122.5 68.5t133.5 22.5t135.5 -22.5t124.5 -68.5l204 207l72 -73l-205 -205q43 -57 64.5 -121t21.5 -135t-21.5 -135.5t-64.5 -120.5
l205 -205l-72 -74l-204 207q-57 -44 -121.5 -66t-138.5 -22t-136.5 21.5t-119.5 66.5l-207 -207l-72 74l207 205q-44 58 -66 122t-22 134q0 69 22 133.5t66 122.5l-207 205l72 73z" />
    <glyph glyph-name="yen" unicode="&#xa5;" horiz-adv-x="502" 
d="M340 727q37 0 73.5 -3t71.5 -9q3 -11 4.5 -20.5t2.5 -18.5q-1 -12 -2.5 -25.5t-4.5 -26.5l-26 -14q-16 0 -39.5 1t-30.5 1q-6 0 -26 -1t-35 -1q-6 -286 -8.5 -418.5t-2.5 -211.5l-86 -13q-16 11 -36 18t-45 11q8 134 12 257t4 234q0 22 -1 63.5t-1 61.5q-37 0 -74 3
t-76 10q0 1 -2 6q-10 26 -10 37q0 7 5 19t18 34q39 0 72.5 2t62.5 6q-28 113 -66.5 248t-103.5 340q17 29 40 43t54 14q4 0 15 -1.5t18 -2.5q41 -106 75 -219.5t60 -235.5q33 164 65.5 274.5t69.5 188.5q7 1 20 2q22 2 27 2q16 0 37.5 -5.5t58.5 -20.5q-28 -55 -80 -225.5
t-110 -403.5z" />
    <glyph glyph-name="brokenbar" unicode="&#xa6;" horiz-adv-x="1024" 
d="M575 408v-758h-126v758h126zM575 1432v-758h-126v758h126z" />
    <glyph glyph-name="section" unicode="&#xa7;" horiz-adv-x="702" 
d="M281 946q-35 -32 -52.5 -73t-17.5 -93q0 -58 55 -150l2 -3l144 -242q33 21 50 48t17 59q0 31 -14 73.5t-47 106.5zM588 1548q11 -16 16.5 -32.5t5.5 -34.5q0 -3 -1 -10.5t-1 -10.5l-35 -69h-4q-53 8 -80 8q-74 0 -111.5 -37t-37.5 -109q0 -41 15.5 -90t60.5 -139
l157 -319q36 -70 52 -122t16 -98q0 -73 -36.5 -131.5t-110.5 -103.5q43 -72 63.5 -138t20.5 -132q0 -150 -74.5 -236t-202.5 -86q-12 0 -34.5 2t-67.5 8q-14 24 -20.5 44t-6.5 36q0 11 5 23t16 28l34 8q8 1 23 2q85 6 115 23q1 3 5 11q42 83 42 128q0 59 -21.5 118.5
t-95.5 178.5l-143 232q-58 92 -77.5 153.5t-19.5 130.5q0 102 41.5 181t120.5 127q-17 43 -25 79t-8 72q0 136 89.5 227t222.5 91q20 0 42.5 -3t49.5 -10z" />
    <glyph glyph-name="dieresis" unicode="&#xa8;" horiz-adv-x="1024" 
d="M545 1295q0 5 -1 17.5t-1 18.5q0 30 4.5 56t14.5 51q11 2 22 3t20 1q21 0 46 -3.5t54 -10.5q2 -9 2.5 -19t0.5 -27q0 -14 -5.5 -39.5t-15.5 -60.5q-10 -2 -21 -3t-26 -1q-17 0 -38 3.5t-56 13.5zM340 1282q-9 23 -12.5 40t-3.5 32t3 33t11 49q26 4 45.5 6t32.5 2
q14 0 50 -6q9 -1 15 -2q2 -15 3 -27t1 -23q0 -31 -4 -52.5t-14 -43.5q-28 -9 -40 -11.5t-24 -2.5q-15 0 -30.5 1.5t-32.5 4.5z" />
    <glyph glyph-name="copyright" unicode="&#xa9;" horiz-adv-x="1706" 
d="M1065 911q-15 77 -70.5 120.5t-138.5 43.5q-117 0 -182.5 -92.5t-65.5 -259.5q0 -160 66.5 -252t181.5 -92q87 0 145.5 48.5t73.5 133.5h129q-11 -127 -109 -207t-245 -80q-176 0 -280.5 121t-104.5 326q0 208 107.5 332.5t287.5 124.5q137 0 230 -74.5t104 -192.5h-129z
M1501 725q0 130 -49 249t-139 210q-92 92 -210 140t-251 48q-132 0 -247.5 -47.5t-205.5 -138.5q-93 -95 -142.5 -214t-49.5 -247q0 -127 49 -244t141 -211q93 -92 209.5 -141t245.5 -49t248.5 50t214.5 142q91 90 138.5 205.5t47.5 247.5zM852 1460q151 0 285 -55t239 -160
q102 -102 156.5 -236t54.5 -284q0 -151 -54 -283t-157 -233q-109 -106 -244.5 -162.5t-279.5 -56.5q-146 0 -278 55.5t-238 161.5q-106 105 -161.5 238.5t-55.5 279.5q0 145 56.5 279.5t162.5 242.5q102 104 234 158.5t280 54.5z" />
    <glyph glyph-name="ordfeminine" unicode="&#xaa;" horiz-adv-x="453" 
d="M272 872q0 83 -3 251q-1 8 -1 11q-4 2 -9 2.5t-13 0.5q-44 0 -66 -33t-22 -98q0 -88 16.5 -114t58.5 -26q7 0 16.5 1.5t22.5 4.5zM98 1399h-4q-23 0 -41 18t-18 39q0 3 2 6.5t8 12.5q49 26 94 48t86 40q94 -18 130 -94.5t36 -370.5q0 -81 -1.5 -170t-4.5 -186
q-15 -7 -26.5 -10t-22.5 -3q-14 0 -26.5 3.5t-24.5 10.5l-6 33q-33 -14 -65.5 -22.5t-53.5 -8.5q-62 0 -91.5 57.5t-29.5 176.5q0 140 47.5 201t155.5 61h24q-1 86 -22 142.5t-49 56.5q-7 0 -18.5 -3.5t-23.5 -9.5z" />
    <glyph glyph-name="guillemotleft" unicode="&#xab;" horiz-adv-x="664" 
d="M498 346q-51 70 -95.5 124.5t-83.5 92.5l1 38q7 6 22 20q127 115 166 194q37 -11 62 -34.5t44 -65.5q-36 -40 -106 -121l-14 -16q17 -30 43 -56.5t61 -52.5q-4 -38 -26.5 -66t-73.5 -57zM51 643q65 51 121.5 126.5t116.5 191.5q33 0 54.5 -11t37.5 -37l25 -39
q-40 -71 -97 -147.5t-131 -155.5q71 -70 126.5 -143.5t96.5 -151.5q-10 -43 -34 -66.5t-70 -33.5q-75 117 -133 191.5t-113 121.5q-6 32 -9 55t-3 36t3 28.5t9 34.5z" />
    <glyph glyph-name="logicalnot" unicode="&#xac;" horiz-adv-x="1706" 
d="M1452 858v-502h-115v385h-1083v117h1198z" />
    <glyph glyph-name="sfthyphen" unicode="&#xad;" horiz-adv-x="408" 
d="M63 523q-10 28 -16 55t-6 45q0 8 1.5 19.5t4.5 22.5q58 13 113 19t112 6q11 0 52 -2q27 -1 44 -2q-1 -41 -9.5 -76t-24.5 -69q-98 -2 -161 -6.5t-110 -11.5z" />
    <glyph glyph-name="registered" unicode="&#xae;" horiz-adv-x="1706" 
d="M846 1065h-144v-291h148q123 0 175 33t52 108q0 79 -54.5 114.5t-176.5 35.5zM872 1157q178 0 264.5 -57t86.5 -174q0 -89 -53 -148.5t-144 -75.5l188 -385h-157l-176 365h-179v-365h-141v840h311zM1501 721q0 133 -48 251.5t-138 209.5q-94 93 -211.5 141.5t-251.5 48.5
q-132 0 -247 -47t-204 -137q-94 -95 -144 -214t-50 -249q0 -127 49 -244t141 -211q91 -92 208 -141t245 -49q131 0 249.5 48.5t213.5 141.5q91 90 139.5 206t48.5 245zM852 1460q150 0 284 -55.5t240 -161.5q102 -102 156.5 -235.5t54.5 -282.5q0 -151 -54.5 -283
t-158.5 -233q-109 -106 -243.5 -162.5t-278.5 -56.5q-145 0 -278.5 56t-239.5 163q-105 104 -160 237t-55 279q0 147 57 282t164 242q101 103 232 157t280 54z" />
    <glyph glyph-name="overscore" unicode="&#xaf;" horiz-adv-x="1024" 
d="M1024 1565v-119h-1024v119h1024z" />
    <glyph glyph-name="degree" unicode="&#xb0;" horiz-adv-x="674" 
d="M539 1171q0 84 -58.5 142.5t-142.5 58.5t-143.5 -58.5t-59.5 -142.5t59.5 -143t143.5 -59t142.5 59t58.5 143zM338 1454q117 0 200 -83t83 -200q0 -116 -83.5 -199t-201.5 -83t-199.5 82t-81.5 200q0 119 82.5 201t200.5 82z" />
    <glyph glyph-name="plusminus" unicode="&#xb1;" horiz-adv-x="1706" 
d="M1452 158v-117h-1198v117h1198zM913 1180v-344h539v-117h-539v-344h-118v344h-541v117h541v344h118z" />
    <glyph glyph-name="twosuperior" unicode="&#xb2;" horiz-adv-x="399" 
d="M160 649q8 -2 17.5 -3t27.5 -1q34 0 73 7.5t109 29.5q6 -13 9 -25.5t3 -27.5q0 -6 -4 -29q-3 -15 -4 -22q-40 -13 -90 -19t-111 -6q-44 0 -80 5.5t-71 17.5q1 35 14.5 78t49.5 117q7 16 22 49q68 148 68 224q0 48 -13.5 75.5t-42.5 37.5q-28 -3 -51.5 -11.5t-44.5 -23.5
q-29 19 -40 34t-11 34v6q34 29 77 45t89 16q63 0 106 -56t43 -142q0 -79 -63.5 -215.5t-81.5 -194.5z" />
    <glyph glyph-name="threesuperior" unicode="&#xb3;" horiz-adv-x="379" 
d="M41 348h12q81 0 123.5 42t42.5 122q0 61 -39 105.5t-90 44.5q-12 -1 -17.5 -2.5t-8.5 -3.5q-20 11 -28.5 24t-8.5 31v8q98 77 140 147t42 154q0 71 -38 112.5t-103 41.5q-16 0 -26.5 -1t-19.5 -1q-4 10 -6 20t-2 22q0 11 0.5 17t1.5 12q17 7 36 10.5t40 3.5
q100 0 163.5 -66t63.5 -171q0 -78 -37 -148t-118 -145q82 -25 126 -84.5t44 -144.5q0 -97 -76.5 -164.5t-181.5 -67.5q-12 0 -40 4h-5q-9 11 -13 19.5t-4 15.5q0 11 6 20.5t21 22.5z" />
    <glyph glyph-name="acute" unicode="&#xb4;" horiz-adv-x="1024" 
d="M559 1530q8 1 15.5 1.5t15.5 0.5q15 0 34.5 -6.5t53.5 -22.5q-50 -105 -96.5 -173.5t-85.5 -92.5q-28 3 -49 14.5t-37 32.5q10 17 33 55q68 115 116 191z" />
    <glyph glyph-name="mu" unicode="&#xb5;" horiz-adv-x="1128" 
d="M362 1069l-126 -595q-8 -33 -11.5 -67t-3.5 -71q0 -109 57 -168t160 -59q125 0 208 101t128 308l121 551h156l-162 -754q-12 -52 -17.5 -84t-5.5 -51q0 -32 18.5 -48.5t53.5 -16.5q9 0 17.5 0.5t17.5 1.5l-27 -125q-21 -5 -44 -7.5t-48 -2.5q-70 0 -104.5 35t-40.5 112
q-41 -70 -117 -108.5t-172 -38.5q-87 0 -152.5 34t-109.5 103l-113 -545h-156l316 1495h157z" />
    <glyph glyph-name="paragraph" unicode="&#xb6;" horiz-adv-x="1024" 
d="M948 1401h-125v-1401h-94v1401h-182v-1401h-96v782q-173 8 -274 102.5t-101 245.5q0 157 107.5 253t285.5 96h479v-78z" />
    <glyph glyph-name="periodcentered" unicode="&#xb7;" horiz-adv-x="358" 
d="M76 569q0 42 30.5 72.5t71.5 30.5q43 0 73 -30t30 -73q0 -42 -30.5 -72t-72.5 -30q-40 0 -71 31t-31 71z" />
    <glyph glyph-name="cedilla" unicode="&#xb8;" horiz-adv-x="1024" 
d="M449 0q16 5 29.5 7.5t23.5 2.5t27 -2t53 -8q-7 -101 -33 -182.5t-76 -153.5q-2 0 -7 -1q-17 -3 -22 -3q-13 0 -36.5 11t-38.5 12q34 82 53.5 160.5t26.5 156.5z" />
    <glyph glyph-name="onesuperior" unicode="&#xb9;" horiz-adv-x="309" 
d="M233 1250q6 -43 8.5 -87.5t2.5 -95.5q0 -127 -6.5 -253.5t-18.5 -248.5q-19 -10 -35 -15t-24 -5q-6 0 -12 2t-13 6q-3 135 -4.5 260t-1.5 238v135l-125 4q-12 0 -18 4.5t-6 13.5t10 15.5t30 11.5q43 10 96 17.5t79 7.5q10 -1 18.5 -3t19.5 -7z" />
    <glyph glyph-name="ordmasculine" unicode="&#xba;" horiz-adv-x="444" 
d="M223 1452q-30 -12 -45.5 -86t-15.5 -209q0 -176 13.5 -244.5t45.5 -68.5q35 0 48.5 66.5t13.5 265.5q0 143 -14 206.5t-46 69.5zM37 1120q0 221 55 330t166 109q77 0 113.5 -92.5t36.5 -290.5q0 -203 -60.5 -325t-157.5 -122q-82 0 -117.5 90t-35.5 301z" />
    <glyph glyph-name="guillemotright" unicode="&#xbb;" horiz-adv-x="664" 
d="M166 793q47 -66 93 -121t87 -97l-2 -38q-10 -10 -33 -30q-119 -107 -155 -183q-38 10 -63 33.5t-44 66.5q8 9 23 26q61 68 98 111q-17 30 -42 55.5t-62 51.5q4 38 27 67t73 58zM612 496q-61 -48 -116.5 -121.5t-120.5 -198.5q-34 0 -55 11t-37 36l-25 41
q39 72 96.5 148.5t130.5 154.5q-75 76 -129 147t-94 146q10 44 34.5 67.5t70.5 33.5q62 -101 123.5 -178.5t123.5 -132.5q6 -34 8.5 -55.5t2.5 -35.5q0 -19 -11 -58q-1 -3 -2 -5z" />
    <glyph glyph-name="onequarter" unicode="&#xbc;" horiz-adv-x="1083" 
d="M883 522l-21 -2q-25 -75 -54.5 -177t-69.5 -257q22 2 55 4t94 4v123q0 38 -2 174q-2 83 -2 131zM893 -217q-4 54 -6 108.5t-2 112.5h-62q-44 0 -88.5 1.5t-88.5 4.5l-11 13q51 179 95.5 323.5t88.5 271.5q38 17 73.5 27t70.5 14l11 -9q6 -106 8.5 -238t2.5 -318
q24 0 50.5 -3t56.5 -9v-6q0 -14 -3.5 -28t-11.5 -30q-27 -5 -49 -7.5t-43 -2.5v-2q-4 -148 -12 -221q-14 -6 -23 -8t-18 -2q-11 0 -20 1.5t-19 6.5zM100 -100q-31 7 -48 28.5t-25 67.5q210 455 405 811.5t387 636.5h12q31 0 48.5 -15.5t23.5 -48.5q-265 -432 -456.5 -801.5
t-309.5 -674.5zM221 1249q7 -39 9.5 -79.5t2.5 -90.5q0 -119 -6 -237.5t-18 -231.5q-19 -8 -34 -13t-23 -5q-5 0 -11 1.5t-12 5.5q-3 123 -4.5 240.5t-1.5 223.5v127l-119 4q-11 0 -16.5 4t-5.5 12t9 14t27 11q42 9 93.5 15.5t74.5 6.5q8 0 16 -1.5t19 -6.5z" />
    <glyph glyph-name="onehalf" unicode="&#xbd;" horiz-adv-x="1020" 
d="M788 82q2 0 6 -1q26 -3 40 -3q34 0 74 8t100 26q5 -12 7.5 -23.5t2.5 -25.5q0 -5 -1.5 -17.5t-5.5 -31.5q-36 -10 -84 -15t-108 -5q-48 0 -81 4.5t-64 13.5q2 56 57 178l2 4q6 14 18 39q70 146 70 220q0 45 -12.5 69.5t-40.5 34.5q-26 -3 -48.5 -11t-43.5 -22
q-28 17 -38.5 31t-10.5 31v6q32 28 74 43.5t83 15.5q61 0 102.5 -53t41.5 -133q0 -75 -61 -203.5t-79 -179.5zM100 -100q-31 7 -48 28.5t-25 67.5q210 455 405 811.5t387 636.5h12q31 0 48.5 -15.5t23.5 -48.5q-265 -432 -456.5 -801.5t-309.5 -674.5zM221 1249
q7 -39 9.5 -79.5t2.5 -90.5q0 -119 -6 -237.5t-18 -231.5q-19 -8 -34 -13t-23 -5q-5 0 -11 1.5t-12 5.5q-3 123 -4.5 240.5t-1.5 223.5v127l-119 4q-11 0 -16.5 4t-5.5 12t9 14t27 11q42 9 93.5 15.5t74.5 6.5q8 0 16 -1.5t19 -6.5z" />
    <glyph glyph-name="threequarters" unicode="&#xbe;" horiz-adv-x="1149" 
d="M948 522l-20 -2q-25 -75 -54.5 -177t-70.5 -257q23 2 55.5 4t93.5 4v123q0 38 -2 175q-1 81 -2 130zM958 -217q-4 54 -6 108.5t-2 112.5h-61q-44 0 -88.5 1.5t-90.5 5.5l-10 12q51 179 96 323.5t89 271.5q37 17 72.5 27t70.5 14l12 -10q6 -106 8.5 -238t2.5 -317
q24 0 50.5 -3t55.5 -9v-6q0 -15 -3.5 -29t-10.5 -28q-28 -6 -50 -8.5t-42 -2.5v-2q-5 -148 -13 -221q-13 -6 -22 -8t-19 -2q-11 0 -19.5 1.5t-19.5 6.5zM165 -100q-31 7 -48 28.5t-25 67.5q211 455 406 811.5t387 636.5h12q31 0 48.5 -15.5t23.5 -48.5
q-265 -432 -456.5 -801.5t-309.5 -674.5zM40 407l11 1q78 0 118 38.5t40 114.5q0 57 -37 98t-86 41q-8 0 -14 -1.5t-10 -3.5q-20 9 -28.5 21.5t-8.5 28.5q0 2 1 4.5t1 4.5q93 72 133.5 137.5t40.5 142.5q0 67 -36.5 105.5t-98.5 38.5q-17 0 -26 -0.5t-20 -1.5q-4 12 -6 21.5
t-2 16.5q0 4 1 10.5t3 18.5q22 8 38.5 11t33.5 3q95 0 156 -62t61 -161q0 -72 -35.5 -136.5t-113.5 -135.5q80 -25 121.5 -80t41.5 -135q0 -90 -73.5 -152.5t-173.5 -62.5q-17 0 -26 0.5t-17 1.5q-8 9 -11.5 17.5t-3.5 17.5t6 18t20 20z" />
    <glyph glyph-name="questiondown" unicode="&#xbf;" horiz-adv-x="530" 
d="M270 866v41q0 57 3.5 111.5t11.5 109.5q16 6 30 8.5t27 2.5q7 0 18 -2t37 -9q15 -71 22 -129t7 -106q0 -18 -5 -83q-2 -32 -3 -50q-92 -10 -140.5 -88.5t-48.5 -218.5q0 -154 57.5 -235t174.5 -92q1 -10 1.5 -19.5t0.5 -18.5q0 -28 -10 -52.5t-29 -45.5h-18
q-159 0 -249.5 119.5t-90.5 328.5q0 162 52 271.5t152 156.5zM413 1428q4 -16 5.5 -30.5t1.5 -35.5q0 -17 -1.5 -33t-5.5 -33q-20 -7 -34.5 -10.5t-26.5 -3.5q-22 0 -77 11q-5 1 -7 1q0 2 -1 7q-9 62 -9 73q0 18 2 34.5t6 31.5q23 6 40 9t28 3q16 0 35 -6t44 -18z" />
    <glyph glyph-name="Agrave" unicode="&#xc0;" horiz-adv-x="649" 
d="M342 1210q-30 -172 -56 -334t-55 -348h12q58 -4 83 -4q9 0 40 2q23 2 35 2q-19 172 -33.5 342t-25.5 340zM444 1542q32 -323 78 -704t105 -807q-23 -21 -47 -31t-52 -10q-22 0 -35 1t-24 3q-16 113 -34 253t-19 146q-16 1 -41 2q-37 2 -47 2q-32 0 -104 -3q-9 -1 -13 -1
q-15 -108 -26.5 -205t-18.5 -173q-31 -17 -53.5 -24t-42.5 -7q-21 0 -40 7t-40 23q66 433 140 813.5t159 716.5q28 8 48 11.5t36 3.5t33.5 -4t37.5 -13zM215 1902q24 15 44 22t38 7q9 0 28 -6q9 -3 14 -4q19 -71 47 -131.5t66 -112.5q-17 -21 -39.5 -33t-54.5 -18
q-46 50 -81.5 118t-61.5 158z" />
    <glyph glyph-name="Aacute" unicode="&#xc1;" horiz-adv-x="649" 
d="M342 1210q-30 -172 -56 -334t-55 -348h12q58 -4 83 -4q9 0 40 2q23 2 35 2q-19 172 -33.5 342t-25.5 340zM444 1542q32 -323 78 -704t105 -807q-23 -21 -47 -31t-52 -10q-22 0 -35 1t-24 3q-16 113 -34 253t-19 146q-16 1 -41 2q-37 2 -47 2q-32 0 -104 -3q-9 -1 -13 -1
q-15 -108 -26.5 -205t-18.5 -173q-31 -17 -53.5 -24t-42.5 -7q-21 0 -40 7t-40 23q66 433 140 813.5t159 716.5q28 8 48 11.5t36 3.5t33.5 -4t37.5 -13zM401 1927q8 1 15.5 1.5t15.5 0.5q15 0 34.5 -6.5t53.5 -22.5q-50 -105 -96.5 -173.5t-85.5 -92.5q-28 3 -49 14.5
t-37 32.5q10 17 33 55q68 115 116 191z" />
    <glyph glyph-name="Acircumflex" unicode="&#xc2;" horiz-adv-x="649" 
d="M342 1210q-30 -172 -56 -334t-55 -348h12q58 -4 83 -4q9 0 40 2q23 2 35 2q-19 172 -33.5 342t-25.5 340zM444 1542q32 -323 78 -704t105 -807q-23 -21 -47 -31t-52 -10q-22 0 -35 1t-24 3q-16 113 -34 253t-19 146q-16 1 -41 2q-37 2 -47 2q-32 0 -104 -3q-9 -1 -13 -1
q-15 -108 -26.5 -205t-18.5 -173q-31 -17 -53.5 -24t-42.5 -7q-21 0 -40 7t-40 23q66 433 140 813.5t159 716.5q28 8 48 11.5t36 3.5t33.5 -4t37.5 -13zM362 1759q-19 -33 -44 -63t-57 -58q-28 3 -49 12t-38 25q39 45 74.5 105t71.5 143q9 1 25 3q32 5 40 5q15 0 40 -10h1
q22 -74 51 -134t65 -110q-17 -20 -35.5 -30t-43.5 -13q-29 20 -53.5 50t-47.5 75z" />
    <glyph glyph-name="Atilde" unicode="&#xc3;" horiz-adv-x="649" 
d="M342 1210q-30 -172 -56 -334t-55 -348h12q58 -4 83 -4q9 0 40 2q23 2 35 2q-19 172 -33.5 342t-25.5 340zM444 1542q32 -323 78 -704t105 -807q-23 -21 -47 -31t-52 -10q-22 0 -35 1t-24 3q-16 113 -34 253t-19 146q-16 1 -41 2q-37 2 -47 2q-32 0 -104 -3q-9 -1 -13 -1
q-15 -108 -26.5 -205t-18.5 -173q-31 -17 -53.5 -24t-42.5 -7q-21 0 -40 7t-40 23q66 433 140 813.5t159 716.5q28 8 48 11.5t36 3.5t33.5 -4t37.5 -13zM567 1800q-46 -90 -79 -116.5t-85 -26.5q-38 0 -69 14t-62 45l-43 -57q-28 8 -47.5 21.5t-32.5 33.5q28 80 54.5 107.5
t70.5 27.5h4q26 -9 63 -42.5t66 -33.5h10l74 90q27 -6 44.5 -20.5t31.5 -42.5z" />
    <glyph glyph-name="Adieresis" unicode="&#xc4;" horiz-adv-x="649" 
d="M342 1210q-30 -172 -56 -334t-55 -348h12q58 -4 83 -4q9 0 40 2q23 2 35 2q-19 172 -33.5 342t-25.5 340zM444 1542q32 -323 78 -704t105 -807q-23 -21 -47 -31t-52 -10q-22 0 -35 1t-24 3q-16 113 -34 253t-19 146q-16 1 -41 2q-37 2 -47 2q-32 0 -104 -3q-9 -1 -13 -1
q-15 -108 -26.5 -205t-18.5 -173q-31 -17 -53.5 -24t-42.5 -7q-21 0 -40 7t-40 23q66 433 140 813.5t159 716.5q28 8 48 11.5t36 3.5t33.5 -4t37.5 -13zM387 1692q0 5 -1 17.5t-1 18.5q0 30 4.5 56t14.5 51q11 2 22 3t20 1q21 0 46 -3.5t54 -10.5q2 -9 2.5 -19t0.5 -27
q0 -14 -5.5 -39.5t-15.5 -60.5q-10 -2 -21 -3t-26 -1q-17 0 -38 3.5t-56 13.5zM182 1679q-9 23 -12.5 40t-3.5 32t3 33t11 49q26 4 45.5 6t32.5 2q14 0 50 -6q9 -1 15 -2q2 -15 3 -27t1 -23q0 -31 -4 -52.5t-14 -43.5q-28 -9 -40 -11.5t-24 -2.5q-15 0 -30.5 1.5t-32.5 4.5z
" />
    <glyph glyph-name="Aring" unicode="&#xc5;" horiz-adv-x="649" 
d="M428 1722q-17 11 -32 16t-31 5q-47 0 -76 -29.5t-29 -75.5q0 -39 26 -64.5t66 -25.5q44 0 73.5 28t29.5 69q0 20 -6.5 38.5t-20.5 38.5zM272 1473q-51 26 -77.5 69.5t-26.5 99.5q0 78 58 135.5t136 57.5q82 0 133.5 -51.5t51.5 -132.5q0 -52 -26 -97.5t-70 -68.5
q18 -216 64 -597t112 -857q-23 -21 -47 -31t-52 -10q-22 0 -35 1t-24 3q-16 113 -34 253t-19 146q-16 1 -41 2q-37 2 -47 2q-32 0 -104 -3q-9 -1 -13 -1q-15 -108 -26.5 -205t-18.5 -173q-31 -17 -53.5 -24t-42.5 -7q-21 0 -40 7t-40 23q64 426 136.5 800.5t145.5 658.5z
M342 1210q-30 -172 -56 -334t-55 -348h12q58 -4 83 -4q9 0 40 2q23 2 35 2q-19 172 -33.5 342t-25.5 340z" />
    <glyph glyph-name="AE" unicode="&#xc6;" horiz-adv-x="829" 
d="M234 750q17 1 33 1.5t38 0.5q11 0 43 -3q16 -1 25 -1q-2 187 -7 354.5t-14 320.5l-12 -2q-33 -130 -59 -294t-47 -377zM18 -6q28 506 84.5 900t135.5 636l24 20q6 1 17 1q80 3 114 3q84 0 163 -8.5t157 -26.5q5 -14 8.5 -27.5t3.5 -21.5q0 -25 -8 -45.5t-27 -42.5
q-28 4 -56 6.5t-54 2.5q-19 0 -36.5 -0.5t-37.5 -1.5q10 -93 15.5 -180.5t7.5 -172.5q3 0 11 -1q66 -7 95 -7q12 0 58 3q14 1 22 1q6 -20 9 -37.5t3 -33.5q0 -18 -4.5 -34t-13.5 -36q-7 -1 -18 -2q-54 -6 -75 -6q-18 0 -65 3q-10 0 -16 1l2 -242q2 -196 3.5 -302t4.5 -187
q28 -5 59.5 -7t71.5 -2q38 0 57 0.5t38 1.5q19 -7 26.5 -19.5t7.5 -37.5q0 -16 -5 -36.5t-16 -49.5q-40 -12 -79.5 -18t-79.5 -6q-41 0 -93 6t-122 20l-35 45v541q-14 2 -29 3t-41 1q-9 0 -32 -3t-58 -9q-10 -116 -24.5 -311.5t-22.5 -264.5l-12 -2q-13 -19 -26.5 -27
t-33.5 -8q-19 0 -38 5t-40 16z" />
    <glyph glyph-name="Ccedilla" unicode="&#xc7;" horiz-adv-x="573" 
d="M549 1444q-19 -19 -103 -89.5t-122 -129.5q-52 -80 -80.5 -228.5t-28.5 -341.5q0 -223 61 -362t152 -139q14 0 46 15q19 9 29 13q22 -14 34 -36t12 -48q0 -8 -2.5 -18t-7.5 -22q-30 -46 -59 -63.5t-74 -17.5q-160 0 -263.5 187.5t-103.5 492.5q0 372 112 594.5t341 304.5
q29 -14 43 -37.5t14 -58.5v-16zM322 0q16 5 29.5 7.5t23.5 2.5t27 -2t53 -8q-7 -101 -33 -182.5t-76 -153.5q-2 0 -7 -1q-17 -3 -22 -3q-13 0 -36.5 11t-38.5 12q34 82 53.5 160.5t26.5 156.5z" />
    <glyph glyph-name="Egrave" unicode="&#xc8;" horiz-adv-x="573" 
d="M514 1440l-26 -57q-37 2 -54.5 2.5t-34.5 0.5q-39 0 -77 -4.5t-76 -13.5q2 -91 5.5 -167.5t8.5 -145.5h55q28 0 58.5 0.5t90.5 3.5q22 -11 32.5 -26.5t13.5 -41.5q-3 -29 -14.5 -50.5t-35.5 -39.5q-39 3 -77 4.5t-76 1.5h-47q2 -78 3 -147.5t1 -136.5q0 -124 -3.5 -237.5
t-10.5 -219.5q1 0 4 -1q117 -18 158 -18q34 0 64.5 4.5t60.5 12.5q13 -24 21 -49t11 -54q-15 -26 -35.5 -47.5t-43.5 -35.5q-24 -2 -44 -2.5t-43 -0.5q-98 0 -185.5 10t-160.5 29q20 162 29.5 335.5t9.5 367.5q0 102 -5 312t-15 493q84 12 190.5 18t259.5 8q4 -12 6.5 -22.5
t2.5 -18.5q0 -13 -5.5 -30t-15.5 -37zM148 1902q24 15 44 22t38 7q9 0 28 -6q9 -3 14 -4q19 -71 47 -131.5t66 -112.5q-17 -21 -39.5 -33t-54.5 -18q-46 50 -81.5 118t-61.5 158z" />
    <glyph glyph-name="Eacute" unicode="&#xc9;" horiz-adv-x="573" 
d="M514 1440l-26 -57q-37 2 -54.5 2.5t-34.5 0.5q-39 0 -77 -4.5t-76 -13.5q2 -91 5.5 -167.5t8.5 -145.5h55q28 0 58.5 0.5t90.5 3.5q22 -11 32.5 -26.5t13.5 -41.5q-3 -29 -14.5 -50.5t-35.5 -39.5q-39 3 -77 4.5t-76 1.5h-47q2 -78 3 -147.5t1 -136.5q0 -124 -3.5 -237.5
t-10.5 -219.5q1 0 4 -1q117 -18 158 -18q34 0 64.5 4.5t60.5 12.5q13 -24 21 -49t11 -54q-15 -26 -35.5 -47.5t-43.5 -35.5q-24 -2 -44 -2.5t-43 -0.5q-98 0 -185.5 10t-160.5 29q20 162 29.5 335.5t9.5 367.5q0 102 -5 312t-15 493q84 12 190.5 18t259.5 8q4 -12 6.5 -22.5
t2.5 -18.5q0 -13 -5.5 -30t-15.5 -37zM334 1927q8 1 15.5 1.5t15.5 0.5q15 0 34.5 -6.5t53.5 -22.5q-50 -105 -96.5 -173.5t-85.5 -92.5q-28 3 -49 14.5t-37 32.5q10 17 33 55q68 115 116 191z" />
    <glyph glyph-name="Ecircumflex" unicode="&#xca;" horiz-adv-x="573" 
d="M514 1440l-26 -57q-37 2 -54.5 2.5t-34.5 0.5q-39 0 -77 -4.5t-76 -13.5q2 -91 5.5 -167.5t8.5 -145.5h55q28 0 58.5 0.5t90.5 3.5q22 -11 32.5 -26.5t13.5 -41.5q-3 -29 -14.5 -50.5t-35.5 -39.5q-39 3 -77 4.5t-76 1.5h-47q2 -78 3 -147.5t1 -136.5q0 -124 -3.5 -237.5
t-10.5 -219.5q1 0 4 -1q117 -18 158 -18q34 0 64.5 4.5t60.5 12.5q13 -24 21 -49t11 -54q-15 -26 -35.5 -47.5t-43.5 -35.5q-24 -2 -44 -2.5t-43 -0.5q-98 0 -185.5 10t-160.5 29q20 162 29.5 335.5t9.5 367.5q0 102 -5 312t-15 493q84 12 190.5 18t259.5 8q4 -12 6.5 -22.5
t2.5 -18.5q0 -13 -5.5 -30t-15.5 -37zM295 1759q-19 -33 -44 -63t-57 -58q-28 3 -49 12t-38 25q39 45 74.5 105t71.5 143q9 1 25 3q32 5 40 5q15 0 40 -10h1q22 -74 51 -134t65 -110q-17 -20 -35.5 -30t-43.5 -13q-29 20 -53.5 50t-47.5 75z" />
    <glyph glyph-name="Edieresis" unicode="&#xcb;" horiz-adv-x="573" 
d="M514 1440l-26 -57q-37 2 -54.5 2.5t-34.5 0.5q-39 0 -77 -4.5t-76 -13.5q2 -91 5.5 -167.5t8.5 -145.5h55q28 0 58.5 0.5t90.5 3.5q22 -11 32.5 -26.5t13.5 -41.5q-3 -29 -14.5 -50.5t-35.5 -39.5q-39 3 -77 4.5t-76 1.5h-47q2 -78 3 -147.5t1 -136.5q0 -124 -3.5 -237.5
t-10.5 -219.5q1 0 4 -1q117 -18 158 -18q34 0 64.5 4.5t60.5 12.5q13 -24 21 -49t11 -54q-15 -26 -35.5 -47.5t-43.5 -35.5q-24 -2 -44 -2.5t-43 -0.5q-98 0 -185.5 10t-160.5 29q20 162 29.5 335.5t9.5 367.5q0 102 -5 312t-15 493q84 12 190.5 18t259.5 8q4 -12 6.5 -22.5
t2.5 -18.5q0 -13 -5.5 -30t-15.5 -37zM320 1692q0 5 -1 17.5t-1 18.5q0 30 4.5 56t14.5 51q11 2 22 3t20 1q21 0 46 -3.5t54 -10.5q2 -9 2.5 -19t0.5 -27q0 -14 -5.5 -39.5t-15.5 -60.5q-10 -2 -21 -3t-26 -1q-17 0 -38 3.5t-56 13.5zM115 1679q-9 23 -12.5 40t-3.5 32t3 33
t11 49q26 4 45.5 6t32.5 2q14 0 50 -6q9 -1 15 -2q2 -15 3 -27t1 -23q0 -31 -4 -52.5t-14 -43.5q-28 -9 -40 -11.5t-24 -2.5q-15 0 -30.5 1.5t-32.5 4.5z" />
    <glyph glyph-name="Igrave" unicode="&#xcc;" horiz-adv-x="342" 
d="M92 -6l-2 422q-1 176 -2.5 380.5t-1.5 231.5q0 101 1 212t3 267q3 15 10.5 24t20.5 13q11 1 26 2.5t19 1.5q19 0 36.5 -5.5t39.5 -18.5q8 -219 12 -411t4 -365q0 -175 -3 -366t-9 -396q-18 -9 -39 -13t-47 -4h-17zM33 1902q24 15 44 22t38 7q9 0 28 -6q9 -3 14 -4
q19 -71 47 -131.5t66 -112.5q-17 -21 -39.5 -33t-54.5 -18q-46 50 -81.5 118t-61.5 158z" />
    <glyph glyph-name="Iacute" unicode="&#xcd;" horiz-adv-x="342" 
d="M92 -6l-2 422q-1 176 -2.5 380.5t-1.5 231.5q0 101 1 212t3 267q3 15 10.5 24t20.5 13q11 1 26 2.5t19 1.5q19 0 36.5 -5.5t39.5 -18.5q8 -219 12 -411t4 -365q0 -175 -3 -366t-9 -396q-18 -9 -39 -13t-47 -4h-17zM219 1927q8 1 15.5 1.5t15.5 0.5q15 0 34.5 -6.5
t53.5 -22.5q-50 -105 -96.5 -173.5t-85.5 -92.5q-28 3 -49 14.5t-37 32.5q10 17 33 55q68 115 116 191z" />
    <glyph glyph-name="Icircumflex" unicode="&#xce;" horiz-adv-x="342" 
d="M92 -6l-2 422q-1 176 -2.5 380.5t-1.5 231.5q0 101 1 212t3 267q3 15 10.5 24t20.5 13q11 1 26 2.5t19 1.5q19 0 36.5 -5.5t39.5 -18.5q8 -219 12 -411t4 -365q0 -175 -3 -366t-9 -396q-18 -9 -39 -13t-47 -4h-17zM180 1759q-19 -33 -44 -63t-57 -58q-28 3 -49 12t-38 25
q39 45 74.5 105t71.5 143q9 1 25 3q32 5 40 5q15 0 40 -10h1q22 -74 51 -134t65 -110q-17 -20 -35.5 -30t-43.5 -13q-29 20 -53.5 50t-47.5 75z" />
    <glyph glyph-name="Idieresis" unicode="&#xcf;" horiz-adv-x="342" 
d="M92 -6l-2 422q-1 176 -2.5 380.5t-1.5 231.5q0 101 1 212t3 267q3 15 10.5 24t20.5 13q11 1 26 2.5t19 1.5q19 0 36.5 -5.5t39.5 -18.5q8 -219 12 -411t4 -365q0 -175 -3 -366t-9 -396q-18 -9 -39 -13t-47 -4h-17zM205 1692q0 5 -1 17.5t-1 18.5q0 30 4.5 56t14.5 51
q11 2 22 3t20 1q21 0 46 -3.5t54 -10.5q2 -9 2.5 -19t0.5 -27q0 -14 -5.5 -39.5t-15.5 -60.5q-10 -2 -21 -3t-26 -1q-17 0 -38 3.5t-56 13.5zM0 1679q-9 23 -12.5 40t-3.5 32t3 33t11 49q26 4 45.5 6t32.5 2q14 0 50 -6q9 -1 15 -2q2 -15 3 -27t1 -23q0 -31 -4 -52.5
t-14 -43.5q-28 -9 -40 -11.5t-24 -2.5q-15 0 -30.5 1.5t-32.5 4.5z" />
    <glyph glyph-name="Eth" unicode="&#xd0;" horiz-adv-x="672" 
d="M283 1401q-4 -89 -6 -203.5t-4 -345.5q36 0 53 -2t32 -6q3 -11 8 -29t5 -24q0 -12 -2.5 -27t-8.5 -35q-22 -2 -37.5 -3t-27.5 -1h-25v-92q0 -117 3 -240t10 -254h2q84 0 117.5 140t33.5 524q0 293 -36 446.5t-105 153.5q-2 0 -6 -1t-6 -1zM119 1548h108
q216 0 300.5 -171.5t84.5 -616.5q0 -438 -79.5 -606t-276.5 -168q-46 0 -77.5 1t-61.5 3q-6 123 -9 273.5t-6 461.5q-22 0 -47 2t-61 6q-4 17 -6 30t-2 23q0 9 3 23t9 35l7 1q67 7 97 7q4 337 16 687z" />
    <glyph glyph-name="Ntilde" unicode="&#xd1;" horiz-adv-x="705" 
d="M211 1532q65 -174 129 -326t133 -297q0 13 -1 38q-3 131 -3 183q0 92 1 194t3 216q5 2 9 5.5t14 13.5l60 1q18 -3 36 -9t35 -15q2 -168 3 -274.5t1 -200.5q0 -353 -5.5 -630.5t-15.5 -457.5q-20 -5 -36 -11.5t-29 -14.5q-5 0 -12.5 -1t-10.5 -1q-16 0 -32 3.5t-35 12.5
q4 225 6 374.5t2 285.5q-81 159 -138.5 277t-93.5 200q4 -232 6.5 -423t2.5 -308q0 -86 -1.5 -181t-5.5 -201q-19 -8 -37.5 -12t-35.5 -4q-19 0 -37 6t-39 19q-3 308 -4.5 590.5t-1.5 539.5v402q11 8 22.5 12t22.5 4q19 0 40.5 -2.5t47.5 -7.5zM565 1800q-46 -90 -79 -116.5
t-85 -26.5q-38 0 -69 14t-62 45l-43 -57q-28 8 -47.5 21.5t-32.5 33.5q28 80 54.5 107.5t70.5 27.5h4q26 -9 63 -42.5t66 -33.5h10l74 90q27 -6 44.5 -20.5t31.5 -42.5z" />
    <glyph glyph-name="Ograve" unicode="&#xd2;" horiz-adv-x="694" 
d="M270 1374q-23 -81 -33 -208.5t-10 -366.5q0 -284 17 -432.5t55 -221.5h6q86 0 125 156t39 500q0 331 -32 465.5t-107 134.5q-16 0 -31 -7t-29 -20zM291 -23q-119 0 -181.5 211.5t-62.5 616.5q0 295 27.5 429t93.5 220q45 59 85.5 83t96.5 24q148 0 222.5 -185t74.5 -553
q0 -284 -35 -456.5t-110 -262.5q-50 -60 -105.5 -93.5t-105.5 -33.5zM209 1902q24 15 44 22t38 7q9 0 28 -6q9 -3 14 -4q19 -71 47 -131.5t66 -112.5q-17 -21 -39.5 -33t-54.5 -18q-46 50 -81.5 118t-61.5 158z" />
    <glyph glyph-name="Oacute" unicode="&#xd3;" horiz-adv-x="694" 
d="M270 1374q-23 -81 -33 -208.5t-10 -366.5q0 -284 17 -432.5t55 -221.5h6q86 0 125 156t39 500q0 331 -32 465.5t-107 134.5q-16 0 -31 -7t-29 -20zM291 -23q-119 0 -181.5 211.5t-62.5 616.5q0 295 27.5 429t93.5 220q45 59 85.5 83t96.5 24q148 0 222.5 -185t74.5 -553
q0 -284 -35 -456.5t-110 -262.5q-50 -60 -105.5 -93.5t-105.5 -33.5zM395 1927q8 1 15.5 1.5t15.5 0.5q15 0 34.5 -6.5t53.5 -22.5q-50 -105 -96.5 -173.5t-85.5 -92.5q-28 3 -49 14.5t-37 32.5q10 17 33 55q68 115 116 191z" />
    <glyph glyph-name="Ocircumflex" unicode="&#xd4;" horiz-adv-x="694" 
d="M270 1374q-23 -81 -33 -208.5t-10 -366.5q0 -284 17 -432.5t55 -221.5h6q86 0 125 156t39 500q0 331 -32 465.5t-107 134.5q-16 0 -31 -7t-29 -20zM291 -23q-119 0 -181.5 211.5t-62.5 616.5q0 295 27.5 429t93.5 220q45 59 85.5 83t96.5 24q148 0 222.5 -185t74.5 -553
q0 -284 -35 -456.5t-110 -262.5q-50 -60 -105.5 -93.5t-105.5 -33.5zM356 1759q-19 -33 -44 -63t-57 -58q-28 3 -49 12t-38 25q39 45 74.5 105t71.5 143q9 1 25 3q32 5 40 5q15 0 40 -10h1q22 -74 51 -134t65 -110q-17 -20 -35.5 -30t-43.5 -13q-29 20 -53.5 50t-47.5 75z
" />
    <glyph glyph-name="Otilde" unicode="&#xd5;" horiz-adv-x="694" 
d="M270 1374q-23 -81 -33 -208.5t-10 -366.5q0 -284 17 -432.5t55 -221.5h6q86 0 125 156t39 500q0 331 -32 465.5t-107 134.5q-16 0 -31 -7t-29 -20zM291 -23q-119 0 -181.5 211.5t-62.5 616.5q0 295 27.5 429t93.5 220q45 59 85.5 83t96.5 24q148 0 222.5 -185t74.5 -553
q0 -284 -35 -456.5t-110 -262.5q-50 -60 -105.5 -93.5t-105.5 -33.5zM561 1800q-46 -90 -79 -116.5t-85 -26.5q-38 0 -69 14t-62 45l-43 -57q-28 8 -47.5 21.5t-32.5 33.5q28 80 54.5 107.5t70.5 27.5h4q26 -9 63 -42.5t66 -33.5h10l74 90q27 -6 44.5 -20.5t31.5 -42.5z" />
    <glyph glyph-name="Odieresis" unicode="&#xd6;" horiz-adv-x="694" 
d="M270 1374q-23 -81 -33 -208.5t-10 -366.5q0 -284 17 -432.5t55 -221.5h6q86 0 125 156t39 500q0 331 -32 465.5t-107 134.5q-16 0 -31 -7t-29 -20zM291 -23q-119 0 -181.5 211.5t-62.5 616.5q0 295 27.5 429t93.5 220q45 59 85.5 83t96.5 24q148 0 222.5 -185t74.5 -553
q0 -284 -35 -456.5t-110 -262.5q-50 -60 -105.5 -93.5t-105.5 -33.5zM381 1692q0 5 -1 17.5t-1 18.5q0 30 4.5 56t14.5 51q11 2 22 3t20 1q21 0 46 -3.5t54 -10.5q2 -9 2.5 -19t0.5 -27q0 -14 -5.5 -39.5t-15.5 -60.5q-10 -2 -21 -3t-26 -1q-17 0 -38 3.5t-56 13.5z
M176 1679q-9 23 -12.5 40t-3.5 32t3 33t11 49q26 4 45.5 6t32.5 2q14 0 50 -6q9 -1 15 -2q2 -15 3 -27t1 -23q0 -31 -4 -52.5t-14 -43.5q-28 -9 -40 -11.5t-24 -2.5q-15 0 -30.5 1.5t-32.5 4.5z" />
    <glyph glyph-name="multiply" unicode="&#xd7;" horiz-adv-x="1706" 
d="M858 692l475 477l82 -82l-475 -477l475 -475l-82 -82l-475 475l-477 -475l-80 82l475 475l-475 477l80 82z" />
    <glyph glyph-name="Oslash" unicode="&#xd8;" horiz-adv-x="694" 
d="M412 1551l30 178q18 8 30 11t22 3q13 0 24.5 -1t24.5 -3l49 -41q-16 -53 -29 -114t-24 -138q56 -91 82 -242t26 -395q0 -452 -72 -642t-241 -190h-45q-10 -59 -22.5 -130.5t-12.5 -73.5q-3 -1 -10 -3q-38 -10 -58 -10q-23 0 -42.5 7.5t-43.5 23.5l62 275
q-57 89 -86 274.5t-29 464.5q0 295 27.5 429t93.5 220q44 59 84.5 83t99.5 24q11 0 25 -2.5t35 -7.5zM270 1374q-23 -80 -33 -205t-10 -419q0 -308 30 -470.5t87 -162.5q69 0 97 147.5t28 536.5q0 331 -32 465.5t-107 134.5q-16 0 -31 -7t-29 -20z" />
    <glyph glyph-name="Ugrave" unicode="&#xd9;" horiz-adv-x="696" 
d="M359 146q46 52 68 194t22 389q0 175 -21 710q-1 39 -2 60q7 30 33 42.5t84 12.5q11 0 36 -11q7 -3 11 -5q13 -273 17.5 -426.5t4.5 -280.5q0 -445 -40 -596t-138 -239q-26 -11 -49 -17t-43 -6q-156 0 -212 100t-56 539v332q0 128 -0.5 281.5t-1.5 324.5q20 4 42 6.5
t46 2.5q24 -1 44 -5.5t44 -15.5v-467v-446v-109q0 -244 18 -309.5t66 -65.5q3 0 8.5 1t18.5 4zM209 1902q24 15 44 22t38 7q9 0 28 -6q9 -3 14 -4q19 -71 47 -131.5t66 -112.5q-17 -21 -39.5 -33t-54.5 -18q-46 50 -81.5 118t-61.5 158z" />
    <glyph glyph-name="Uacute" unicode="&#xda;" horiz-adv-x="696" 
d="M359 146q46 52 68 194t22 389q0 175 -21 710q-1 39 -2 60q7 30 33 42.5t84 12.5q11 0 36 -11q7 -3 11 -5q13 -273 17.5 -426.5t4.5 -280.5q0 -445 -40 -596t-138 -239q-26 -11 -49 -17t-43 -6q-156 0 -212 100t-56 539v332q0 128 -0.5 281.5t-1.5 324.5q20 4 42 6.5
t46 2.5q24 -1 44 -5.5t44 -15.5v-467v-446v-109q0 -244 18 -309.5t66 -65.5q3 0 8.5 1t18.5 4zM395 1927q8 1 15.5 1.5t15.5 0.5q15 0 34.5 -6.5t53.5 -22.5q-50 -105 -96.5 -173.5t-85.5 -92.5q-28 3 -49 14.5t-37 32.5q10 17 33 55q68 115 116 191z" />
    <glyph glyph-name="Ucircumflex" unicode="&#xdb;" horiz-adv-x="696" 
d="M359 146q46 52 68 194t22 389q0 175 -21 710q-1 39 -2 60q7 30 33 42.5t84 12.5q11 0 36 -11q7 -3 11 -5q13 -273 17.5 -426.5t4.5 -280.5q0 -445 -40 -596t-138 -239q-26 -11 -49 -17t-43 -6q-156 0 -212 100t-56 539v332q0 128 -0.5 281.5t-1.5 324.5q20 4 42 6.5
t46 2.5q24 -1 44 -5.5t44 -15.5v-467v-446v-109q0 -244 18 -309.5t66 -65.5q3 0 8.5 1t18.5 4zM356 1759q-19 -33 -44 -63t-57 -58q-28 3 -49 12t-38 25q39 45 74.5 105t71.5 143q9 1 25 3q32 5 40 5q15 0 40 -10h1q22 -74 51 -134t65 -110q-17 -20 -35.5 -30t-43.5 -13
q-29 20 -53.5 50t-47.5 75z" />
    <glyph glyph-name="Udieresis" unicode="&#xdc;" horiz-adv-x="696" 
d="M359 146q46 52 68 194t22 389q0 175 -21 710q-1 39 -2 60q7 30 33 42.5t84 12.5q11 0 36 -11q7 -3 11 -5q13 -273 17.5 -426.5t4.5 -280.5q0 -445 -40 -596t-138 -239q-26 -11 -49 -17t-43 -6q-156 0 -212 100t-56 539v332q0 128 -0.5 281.5t-1.5 324.5q20 4 42 6.5
t46 2.5q24 -1 44 -5.5t44 -15.5v-467v-446v-109q0 -244 18 -309.5t66 -65.5q3 0 8.5 1t18.5 4zM381 1692q0 5 -1 17.5t-1 18.5q0 30 4.5 56t14.5 51q11 2 22 3t20 1q21 0 46 -3.5t54 -10.5q2 -9 2.5 -19t0.5 -27q0 -14 -5.5 -39.5t-15.5 -60.5q-10 -2 -21 -3t-26 -1
q-17 0 -38 3.5t-56 13.5zM176 1679q-9 23 -12.5 40t-3.5 32t3 33t11 49q26 4 45.5 6t32.5 2q14 0 50 -6q9 -1 15 -2q2 -15 3 -27t1 -23q0 -31 -4 -52.5t-14 -43.5q-28 -9 -40 -11.5t-24 -2.5q-15 0 -30.5 1.5t-32.5 4.5z" />
    <glyph glyph-name="Yacute" unicode="&#xdd;" horiz-adv-x="502" 
d="M338 870l-8 -303q-5 -185 -7 -322t-4 -266l-90 -14q-21 14 -40.5 21t-40.5 10q8 308 11 438t3 215q0 71 -2 132t-6 116q-28 115 -67.5 253t-102.5 343q17 29 41 44t55 15q5 0 21 -2q8 -1 14 -2q42 -108 76 -223.5t61 -239.5q38 181 69.5 288t67.5 183q3 1 9 1q31 4 46 4
q13 0 37.5 -7.5t55.5 -19.5q-30 -57 -84.5 -238.5t-114.5 -425.5zM299 1927q8 1 15.5 1.5t15.5 0.5q15 0 34.5 -6.5t53.5 -22.5q-50 -105 -96.5 -173.5t-85.5 -92.5q-28 3 -49 14.5t-37 32.5q10 17 33 55q68 115 116 191z" />
    <glyph glyph-name="Thorn" unicode="&#xde;" horiz-adv-x="606" 
d="M252 1122v-233q0 -121 1 -225t4 -179q27 -5 45.5 -7.5t29.5 -2.5q27 0 38 60.5t11 244.5q0 216 -26 279t-97 63h-6zM254 1266q170 -2 234.5 -104t64.5 -406q0 -241 -45 -339t-150 -98q-13 0 -36 5t-64 15q0 -89 2 -173.5t6 -163.5q-30 -7 -55 -10.5t-45 -3.5
q-19 0 -38 3.5t-44 12.5q1 199 1.5 377.5t0.5 353.5q0 277 -4 458.5t-12 336.5q43 7 82.5 10.5t76.5 3.5h27q-1 -74 -1.5 -141.5t-0.5 -136.5z" />
    <glyph glyph-name="germandbls" unicode="&#xdf;" horiz-adv-x="735" 
d="M285 -32q-10 -21 -22.5 -35.5t-31.5 -26.5h-14q-31 0 -56 7.5t-46 23.5q-14 264 -20.5 507.5t-6.5 470.5v91q-2 -1 -5 -1q-28 -4 -40 -4q-18 0 -36.5 3.5t-37.5 9.5q5 33 15.5 62.5t27.5 58.5l84 8q0 9 1 26q8 360 140 385q170 -9 250 -74.5t80 -195.5q0 -74 -30.5 -128
t-96.5 -97q27 -167 128 -373q7 -13 10 -19q6 -13 19 -38q114 -229 114 -342q0 -80 -74.5 -174.5t-181.5 -145.5q-32 5 -47 18.5t-23 45.5q16 47 78.5 133t62.5 145q0 39 -57 167.5t-88 215.5q-38 110 -55.5 196.5t-20.5 169.5q57 59 82 107.5t25 98.5q0 16 -4 37t-15 61
q-30 14 -49.5 19t-38.5 5l-35 -14q-10 -74 -15 -152t-5 -186q0 -240 8.5 -508.5t26.5 -557.5z" />
    <glyph glyph-name="agrave" unicode="&#xe0;" horiz-adv-x="602" 
d="M362 180q0 93 -1.5 186.5t-4.5 190.5q-5 1 -11 1.5t-17 0.5q-59 0 -89 -47t-30 -139q0 -124 22 -162.5t80 -38.5q9 0 35 5q10 2 16 3zM131 932h-6q-32 0 -56 26t-24 56q0 4 3 10t11 16q57 34 118 66t124 61q125 -24 173 -135.5t48 -529.5q0 -139 -7 -459q-1 -33 -1 -49
q-21 -9 -37 -13t-31 -4q-16 0 -33.5 5t-33.5 14l-8 47q-42 -20 -84.5 -31.5t-73.5 -11.5q-82 0 -122 81.5t-40 252.5q0 199 63.5 286t207.5 87h32q-1 124 -29 204t-67 80q-9 0 -23.5 -5t-29.5 -13zM162 1505q24 15 44 22t38 7q9 0 28 -6q9 -3 14 -4q19 -71 47 -131.5
t66 -112.5q-17 -21 -39.5 -33t-54.5 -18q-46 50 -81.5 118t-61.5 158z" />
    <glyph glyph-name="aacute" unicode="&#xe1;" horiz-adv-x="602" 
d="M362 180q0 93 -1.5 186.5t-4.5 190.5q-5 1 -11 1.5t-17 0.5q-59 0 -89 -47t-30 -139q0 -124 22 -162.5t80 -38.5q9 0 35 5q10 2 16 3zM131 932h-6q-32 0 -56 26t-24 56q0 4 3 10t11 16q57 34 118 66t124 61q125 -24 173 -135.5t48 -529.5q0 -139 -7 -459q-1 -33 -1 -49
q-21 -9 -37 -13t-31 -4q-16 0 -33.5 5t-33.5 14l-8 47q-42 -20 -84.5 -31.5t-73.5 -11.5q-82 0 -122 81.5t-40 252.5q0 199 63.5 286t207.5 87h32q-1 124 -29 204t-67 80q-9 0 -23.5 -5t-29.5 -13zM348 1530q8 1 15.5 1.5t15.5 0.5q15 0 34.5 -6.5t53.5 -22.5
q-50 -105 -96.5 -173.5t-85.5 -92.5q-28 3 -49 14.5t-37 32.5q10 17 33 55q68 115 116 191z" />
    <glyph glyph-name="acircumflex" unicode="&#xe2;" horiz-adv-x="602" 
d="M362 180q0 93 -1.5 186.5t-4.5 190.5q-5 1 -11 1.5t-17 0.5q-59 0 -89 -47t-30 -139q0 -124 22 -162.5t80 -38.5q9 0 35 5q10 2 16 3zM131 932h-6q-32 0 -56 26t-24 56q0 4 3 10t11 16q57 34 118 66t124 61q125 -24 173 -135.5t48 -529.5q0 -139 -7 -459q-1 -33 -1 -49
q-21 -9 -37 -13t-31 -4q-16 0 -33.5 5t-33.5 14l-8 47q-42 -20 -84.5 -31.5t-73.5 -11.5q-82 0 -122 81.5t-40 252.5q0 199 63.5 286t207.5 87h32q-1 124 -29 204t-67 80q-9 0 -23.5 -5t-29.5 -13zM309 1362q-19 -33 -44 -63t-57 -58q-28 3 -49 12t-38 25q39 45 74.5 105
t71.5 143q9 1 25 3q32 5 40 5q15 0 40 -10h1q22 -74 51 -134t65 -110q-17 -20 -35.5 -30t-43.5 -13q-29 20 -53.5 50t-47.5 75z" />
    <glyph glyph-name="atilde" unicode="&#xe3;" horiz-adv-x="602" 
d="M362 180q0 93 -1.5 186.5t-4.5 190.5q-5 1 -11 1.5t-17 0.5q-59 0 -89 -47t-30 -139q0 -124 22 -162.5t80 -38.5q9 0 35 5q10 2 16 3zM131 932h-6q-32 0 -56 26t-24 56q0 4 3 10t11 16q57 34 118 66t124 61q125 -24 173 -135.5t48 -529.5q0 -139 -7 -459q-1 -33 -1 -49
q-21 -9 -37 -13t-31 -4q-16 0 -33.5 5t-33.5 14l-8 47q-42 -20 -84.5 -31.5t-73.5 -11.5q-82 0 -122 81.5t-40 252.5q0 199 63.5 286t207.5 87h32q-1 124 -29 204t-67 80q-9 0 -23.5 -5t-29.5 -13zM514 1403q-46 -90 -79 -116.5t-85 -26.5q-38 0 -69 14t-62 45l-43 -57
q-28 8 -47.5 21.5t-32.5 33.5q28 80 54.5 107.5t70.5 27.5h4q26 -9 63 -42.5t66 -33.5h10l74 90q27 -6 44.5 -20.5t31.5 -42.5z" />
    <glyph glyph-name="adieresis" unicode="&#xe4;" horiz-adv-x="602" 
d="M362 180q0 93 -1.5 186.5t-4.5 190.5q-5 1 -11 1.5t-17 0.5q-59 0 -89 -47t-30 -139q0 -124 22 -162.5t80 -38.5q9 0 35 5q10 2 16 3zM131 932h-6q-32 0 -56 26t-24 56q0 4 3 10t11 16q57 34 118 66t124 61q125 -24 173 -135.5t48 -529.5q0 -139 -7 -459q-1 -33 -1 -49
q-21 -9 -37 -13t-31 -4q-16 0 -33.5 5t-33.5 14l-8 47q-42 -20 -84.5 -31.5t-73.5 -11.5q-82 0 -122 81.5t-40 252.5q0 199 63.5 286t207.5 87h32q-1 124 -29 204t-67 80q-9 0 -23.5 -5t-29.5 -13zM334 1295q0 5 -1 17.5t-1 18.5q0 30 4.5 56t14.5 51q11 2 22 3t20 1
q21 0 46 -3.5t54 -10.5q2 -9 2.5 -19t0.5 -27q0 -14 -5.5 -39.5t-15.5 -60.5q-10 -2 -21 -3t-26 -1q-17 0 -38 3.5t-56 13.5zM129 1282q-9 23 -12.5 40t-3.5 32t3 33t11 49q26 4 45.5 6t32.5 2q14 0 50 -6q9 -1 15 -2q2 -15 3 -27t1 -23q0 -31 -4 -52.5t-14 -43.5
q-28 -9 -40 -11.5t-24 -2.5q-15 0 -30.5 1.5t-32.5 4.5z" />
    <glyph glyph-name="aring" unicode="&#xe5;" horiz-adv-x="602" 
d="M293 1217q-78 0 -130 52t-52 132q0 78 57.5 136t134.5 58q82 0 134 -52.5t52 -133.5q0 -80 -57 -136t-139 -56zM371 1481q-17 11 -32 15.5t-32 4.5q-47 0 -75.5 -28.5t-28.5 -73.5q0 -40 26 -66t66 -26q44 0 73 27.5t29 68.5q0 21 -6 39t-20 39zM362 180q0 93 -1.5 186.5
t-4.5 190.5q-5 1 -11 1.5t-17 0.5q-59 0 -89 -47t-30 -139q0 -124 22 -162.5t80 -38.5q9 0 35 5q10 2 16 3zM131 932h-6q-32 0 -56 26t-24 56q0 4 3 10t11 16q57 34 118 66t124 61q125 -24 173 -135.5t48 -529.5q0 -139 -7 -459q-1 -33 -1 -49q-21 -9 -37 -13t-31 -4
q-16 0 -33.5 5t-33.5 14l-8 47q-42 -20 -84.5 -31.5t-73.5 -11.5q-82 0 -122 81.5t-40 252.5q0 199 63.5 286t207.5 87h32q-1 124 -29 204t-67 80q-9 0 -23.5 -5t-29.5 -13z" />
    <glyph glyph-name="ae" unicode="&#xe6;" horiz-adv-x="895" 
d="M524 741q21 1 46.5 2.5t29.5 1.5q14 0 39 -1t37 -1q16 29 23.5 51t7.5 42q0 69 -21.5 112t-64.5 60l-58 -13q-20 -64 -29.5 -119.5t-9.5 -105.5v-29zM364 602q-4 1 -11 1.5t-19 0.5q-25 0 -48.5 -5.5t-47.5 -16.5q-22 -49 -31.5 -93.5t-9.5 -91.5q0 -103 14.5 -160
t46.5 -83q35 4 64.5 19t62.5 46q-12 44 -17.5 91.5t-5.5 129.5q0 43 1 82t1 80zM217 -16q-100 25 -143 112.5t-43 268.5q0 100 24.5 174t79.5 145q36 27 87.5 39t141.5 14q1 64 -8.5 122t-29.5 116l-82 26q-23 -22 -53 -39t-72 -30q-34 8 -49 24t-15 43v6l8 9
q142 151 224 151q57 0 109 -30.5t91 -87.5q45 54 87 80.5t93 33.5q84 -11 142.5 -101.5t58.5 -209.5q0 -60 -20.5 -117.5t-63.5 -114.5q-26 -4 -53 -6t-57 -2q-20 0 -61 3t-89 7q-1 -22 -1.5 -47.5t-0.5 -72.5q0 -137 26 -213.5t87 -128.5q3 -1 8 -1q23 -3 35 -3
q40 0 66.5 14.5t42.5 44.5q34 -4 49 -14.5t18 -32.5q-46 -103 -78.5 -142.5t-68.5 -39.5q-49 0 -105 17t-108 48q-25 19 -41.5 40t-28.5 46q-56 -73 -99 -102.5t-108 -48.5z" />
    <glyph glyph-name="ccedilla" unicode="&#xe7;" horiz-adv-x="473" 
d="M455 86q-11 -47 -51.5 -79t-90.5 -32q-122 0 -195 151t-73 409q0 219 43 375t121 223q28 13 53.5 19.5t54.5 6.5q48 0 80 -9.5t54 -29.5v-18q0 -28 -8 -57.5t-25 -63.5q-34 18 -53 24.5t-35 6.5q-59 0 -89 -111.5t-30 -331.5q0 -164 25.5 -266.5t74.5 -136.5
q7 -1 17 -1.5t28 -0.5q25 0 46 2t40 6q8 -21 11.5 -37.5t3.5 -30.5q0 -3 -1 -9t-1 -9zM232 0q16 5 29.5 7.5t23.5 2.5t27 -2t53 -8q-7 -101 -33 -182.5t-76 -153.5q-2 0 -7 -1q-17 -3 -22 -3q-13 0 -36.5 11t-38.5 12q34 82 53.5 160.5t26.5 156.5z" />
    <glyph glyph-name="egrave" unicode="&#xe8;" horiz-adv-x="551" 
d="M376 774q2 23 3.5 47.5t1.5 26.5q0 75 -15 108t-49 33q-28 0 -46 -51.5t-31 -175.5zM506 137q1 -9 1.5 -17t0.5 -16q0 -57 -42.5 -93t-107.5 -36q-154 0 -233.5 133t-79.5 390q0 282 86.5 472.5t206.5 190.5q80 0 130 -93t50 -245q0 -45 -6.5 -87t-19.5 -83
q-26 -5 -45 -7.5t-35 -2.5q-4 0 -64.5 3.5t-117.5 4.5q-6 -66 -7.5 -99t-1.5 -60q0 -209 47.5 -283t182.5 -74h20l12 1t23 1zM189 1505q24 15 44 22t38 7q9 0 28 -6q9 -3 14 -4q19 -71 47 -131.5t66 -112.5q-17 -21 -39.5 -33t-54.5 -18q-46 50 -81.5 118t-61.5 158z" />
    <glyph glyph-name="eacute" unicode="&#xe9;" horiz-adv-x="551" 
d="M376 774q2 23 3.5 47.5t1.5 26.5q0 75 -15 108t-49 33q-28 0 -46 -51.5t-31 -175.5zM506 137q1 -9 1.5 -17t0.5 -16q0 -57 -42.5 -93t-107.5 -36q-154 0 -233.5 133t-79.5 390q0 282 86.5 472.5t206.5 190.5q80 0 130 -93t50 -245q0 -45 -6.5 -87t-19.5 -83
q-26 -5 -45 -7.5t-35 -2.5q-4 0 -64.5 3.5t-117.5 4.5q-6 -66 -7.5 -99t-1.5 -60q0 -209 47.5 -283t182.5 -74h20l12 1t23 1zM375 1530q8 1 15.5 1.5t15.5 0.5q15 0 34.5 -6.5t53.5 -22.5q-50 -105 -96.5 -173.5t-85.5 -92.5q-28 3 -49 14.5t-37 32.5q10 17 33 55
q68 115 116 191z" />
    <glyph glyph-name="ecircumflex" unicode="&#xea;" horiz-adv-x="551" 
d="M376 774q2 23 3.5 47.5t1.5 26.5q0 75 -15 108t-49 33q-28 0 -46 -51.5t-31 -175.5zM506 137q1 -9 1.5 -17t0.5 -16q0 -57 -42.5 -93t-107.5 -36q-154 0 -233.5 133t-79.5 390q0 282 86.5 472.5t206.5 190.5q80 0 130 -93t50 -245q0 -45 -6.5 -87t-19.5 -83
q-26 -5 -45 -7.5t-35 -2.5q-4 0 -64.5 3.5t-117.5 4.5q-6 -66 -7.5 -99t-1.5 -60q0 -209 47.5 -283t182.5 -74h20l12 1t23 1zM336 1362q-19 -33 -44 -63t-57 -58q-28 3 -49 12t-38 25q39 45 74.5 105t71.5 143q9 1 25 3q32 5 40 5q15 0 40 -10h1q22 -74 51 -134t65 -110
q-17 -20 -35.5 -30t-43.5 -13q-29 20 -53.5 50t-47.5 75z" />
    <glyph glyph-name="edieresis" unicode="&#xeb;" horiz-adv-x="551" 
d="M376 774q2 23 3.5 47.5t1.5 26.5q0 75 -15 108t-49 33q-28 0 -46 -51.5t-31 -175.5zM506 137q1 -9 1.5 -17t0.5 -16q0 -57 -42.5 -93t-107.5 -36q-154 0 -233.5 133t-79.5 390q0 282 86.5 472.5t206.5 190.5q80 0 130 -93t50 -245q0 -45 -6.5 -87t-19.5 -83
q-26 -5 -45 -7.5t-35 -2.5q-4 0 -64.5 3.5t-117.5 4.5q-6 -66 -7.5 -99t-1.5 -60q0 -209 47.5 -283t182.5 -74h20l12 1t23 1zM361 1295q0 5 -1 17.5t-1 18.5q0 30 4.5 56t14.5 51q11 2 22 3t20 1q21 0 46 -3.5t54 -10.5q2 -9 2.5 -19t0.5 -27q0 -14 -5.5 -39.5t-15.5 -60.5
q-10 -2 -21 -3t-26 -1q-17 0 -38 3.5t-56 13.5zM156 1282q-9 23 -12.5 40t-3.5 32t3 33t11 49q26 4 45.5 6t32.5 2q14 0 50 -6q9 -1 15 -2q2 -15 3 -27t1 -23q0 -31 -4 -52.5t-14 -43.5q-28 -9 -40 -11.5t-24 -2.5q-15 0 -30.5 1.5t-32.5 4.5z" />
    <glyph glyph-name="igrave" unicode="&#xec;" horiz-adv-x="336" 
d="M96 -2q-7 178 -10.5 323t-3.5 275q0 85 3 204t11 339q19 6 37.5 9t36.5 3q19 0 36 -2t35 -6q6 -215 8.5 -408.5t2.5 -374.5q0 -58 -1 -173.5t-1 -171.5q-23 -16 -46 -23.5t-46 -7.5q-13 0 -26 3t-36 11zM29 1505q24 15 44 22t38 7q9 0 28 -6q9 -3 14 -4q19 -71 47 -131.5
t66 -112.5q-17 -21 -39.5 -33t-54.5 -18q-46 50 -81.5 118t-61.5 158z" />
    <glyph glyph-name="iacute" unicode="&#xed;" horiz-adv-x="336" 
d="M96 -2q-7 178 -10.5 323t-3.5 275q0 85 3 204t11 339q19 6 37.5 9t36.5 3q19 0 36 -2t35 -6q6 -215 8.5 -408.5t2.5 -374.5q0 -58 -1 -173.5t-1 -171.5q-23 -16 -46 -23.5t-46 -7.5q-13 0 -26 3t-36 11zM215 1530q8 1 15.5 1.5t15.5 0.5q15 0 34.5 -6.5t53.5 -22.5
q-50 -105 -96.5 -173.5t-85.5 -92.5q-28 3 -49 14.5t-37 32.5q10 17 33 55q68 115 116 191z" />
    <glyph glyph-name="icircumflex" unicode="&#xee;" horiz-adv-x="336" 
d="M96 -2q-7 178 -10.5 323t-3.5 275q0 85 3 204t11 339q19 6 37.5 9t36.5 3q19 0 36 -2t35 -6q6 -215 8.5 -408.5t2.5 -374.5q0 -58 -1 -173.5t-1 -171.5q-23 -16 -46 -23.5t-46 -7.5q-13 0 -26 3t-36 11zM176 1362q-19 -33 -44 -63t-57 -58q-28 3 -49 12t-38 25
q39 45 74.5 105t71.5 143q9 1 25 3q32 5 40 5q15 0 40 -10h1q22 -74 51 -134t65 -110q-17 -20 -35.5 -30t-43.5 -13q-29 20 -53.5 50t-47.5 75z" />
    <glyph glyph-name="idieresis" unicode="&#xef;" horiz-adv-x="336" 
d="M96 -2q-7 178 -10.5 323t-3.5 275q0 85 3 204t11 339q19 6 37.5 9t36.5 3q19 0 36 -2t35 -6q6 -215 8.5 -408.5t2.5 -374.5q0 -58 -1 -173.5t-1 -171.5q-23 -16 -46 -23.5t-46 -7.5q-13 0 -26 3t-36 11zM201 1295q0 5 -1 17.5t-1 18.5q0 30 4.5 56t14.5 51q11 2 22 3
t20 1q21 0 46 -3.5t54 -10.5q2 -9 2.5 -19t0.5 -27q0 -14 -5.5 -39.5t-15.5 -60.5q-10 -2 -21 -3t-26 -1q-17 0 -38 3.5t-56 13.5zM-4 1282q-9 23 -12.5 40t-3.5 32t3 33t11 49q26 4 45.5 6t32.5 2q14 0 50 -6q9 -1 15 -2q2 -15 3 -27t1 -23q0 -31 -4 -52.5t-14 -43.5
q-28 -9 -40 -11.5t-24 -2.5q-15 0 -30.5 1.5t-32.5 4.5z" />
    <glyph glyph-name="eth" unicode="&#xf0;" horiz-adv-x="592" 
d="M350 907q-10 1 -20 1.5t-25 0.5q-50 0 -70 -79.5t-20 -290.5q0 -213 19 -305.5t61 -92.5q44 0 64 97.5t20 316.5q0 102 -7 185t-22 167zM315 1043q-5 12 -28 66t-39 87q-45 -14 -75.5 -22t-56.5 -12q-11 13 -17.5 26.5t-8.5 29.5l8 25q21 12 46 24t59 27l-46.5 111
t-29.5 70q14 26 31 39t45 18l43 -12q29 -61 51.5 -105t36.5 -67q36 14 65.5 21.5t55.5 8.5q16 -11 22 -23t6 -32v-10q-17 -30 -80 -57q-12 -5 -20 -9q90 -188 126 -336.5t36 -312.5q0 -282 -81 -452.5t-210 -170.5q-107 0 -156 134.5t-49 433.5q0 257 64 378t198 121z" />
    <glyph glyph-name="ntilde" unicode="&#xf1;" horiz-adv-x="649" 
d="M55 1067q27 31 61.5 48t80.5 21l18 -57q41 17 84 36.5t88 41.5q9 2 18.5 3t22.5 1q75 0 109 -63.5t34 -206.5v-234q0 -214 4 -367.5t13 -266.5q-25 -17 -48.5 -25t-50.5 -8q-23 0 -46.5 6.5t-49.5 19.5q6 145 9.5 283t3.5 270v43q0 254 -16.5 311.5t-63.5 57.5
q-29 0 -54.5 -15.5t-40.5 -41.5q7 -121 10 -242.5t3 -247.5q0 -78 -1 -214.5t-1 -194.5q-15 -19 -35 -27t-53 -8q-26 0 -49 6t-48 20q11 178 16 349t5 337q0 122 -5.5 205.5t-17.5 159.5zM539 1403q-46 -90 -79 -116.5t-85 -26.5q-38 0 -69 14t-62 45l-43 -57
q-28 8 -47.5 21.5t-32.5 33.5q28 80 54.5 107.5t70.5 27.5h4q26 -9 63 -42.5t66 -33.5h10l74 90q27 -6 44.5 -20.5t31.5 -42.5z" />
    <glyph glyph-name="ograve" unicode="&#xf2;" horiz-adv-x="592" 
d="M297 1010q-41 -19 -61.5 -123.5t-20.5 -298.5q0 -252 18 -349.5t62 -97.5q46 0 64 97t18 376q0 207 -18.5 297t-61.5 99zM49 535q0 314 73.5 470t221.5 156q103 0 151 -131.5t48 -415.5q0 -289 -80 -464t-209 -175q-110 0 -157.5 128.5t-47.5 431.5zM174 1505
q24 15 44 22t38 7q9 0 28 -6q9 -3 14 -4q19 -71 47 -131.5t66 -112.5q-17 -21 -39.5 -33t-54.5 -18q-46 50 -81.5 118t-61.5 158z" />
    <glyph glyph-name="oacute" unicode="&#xf3;" horiz-adv-x="592" 
d="M297 1010q-41 -19 -61.5 -123.5t-20.5 -298.5q0 -252 18 -349.5t62 -97.5q46 0 64 97t18 376q0 207 -18.5 297t-61.5 99zM49 535q0 314 73.5 470t221.5 156q103 0 151 -131.5t48 -415.5q0 -289 -80 -464t-209 -175q-110 0 -157.5 128.5t-47.5 431.5zM360 1530
q8 1 15.5 1.5t15.5 0.5q15 0 34.5 -6.5t53.5 -22.5q-50 -105 -96.5 -173.5t-85.5 -92.5q-28 3 -49 14.5t-37 32.5q10 17 33 55q68 115 116 191z" />
    <glyph glyph-name="ocircumflex" unicode="&#xf4;" horiz-adv-x="592" 
d="M297 1010q-41 -19 -61.5 -123.5t-20.5 -298.5q0 -252 18 -349.5t62 -97.5q46 0 64 97t18 376q0 207 -18.5 297t-61.5 99zM49 535q0 314 73.5 470t221.5 156q103 0 151 -131.5t48 -415.5q0 -289 -80 -464t-209 -175q-110 0 -157.5 128.5t-47.5 431.5zM321 1362
q-19 -33 -44 -63t-57 -58q-28 3 -49 12t-38 25q39 45 74.5 105t71.5 143q9 1 25 3q32 5 40 5q15 0 40 -10h1q22 -74 51 -134t65 -110q-17 -20 -35.5 -30t-43.5 -13q-29 20 -53.5 50t-47.5 75z" />
    <glyph glyph-name="otilde" unicode="&#xf5;" horiz-adv-x="592" 
d="M297 1010q-41 -19 -61.5 -123.5t-20.5 -298.5q0 -252 18 -349.5t62 -97.5q46 0 64 97t18 376q0 207 -18.5 297t-61.5 99zM49 535q0 314 73.5 470t221.5 156q103 0 151 -131.5t48 -415.5q0 -289 -80 -464t-209 -175q-110 0 -157.5 128.5t-47.5 431.5zM526 1403
q-46 -90 -79 -116.5t-85 -26.5q-38 0 -69 14t-62 45l-43 -57q-28 8 -47.5 21.5t-32.5 33.5q28 80 54.5 107.5t70.5 27.5h4q26 -9 63 -42.5t66 -33.5h10l74 90q27 -6 44.5 -20.5t31.5 -42.5z" />
    <glyph glyph-name="odieresis" unicode="&#xf6;" horiz-adv-x="592" 
d="M297 1010q-41 -19 -61.5 -123.5t-20.5 -298.5q0 -252 18 -349.5t62 -97.5q46 0 64 97t18 376q0 207 -18.5 297t-61.5 99zM49 535q0 314 73.5 470t221.5 156q103 0 151 -131.5t48 -415.5q0 -289 -80 -464t-209 -175q-110 0 -157.5 128.5t-47.5 431.5zM346 1295
q0 5 -1 17.5t-1 18.5q0 30 4.5 56t14.5 51q11 2 22 3t20 1q21 0 46 -3.5t54 -10.5q2 -9 2.5 -19t0.5 -27q0 -14 -5.5 -39.5t-15.5 -60.5q-10 -2 -21 -3t-26 -1q-17 0 -38 3.5t-56 13.5zM141 1282q-9 23 -12.5 40t-3.5 32t3 33t11 49q26 4 45.5 6t32.5 2q14 0 50 -6
q9 -1 15 -2q2 -15 3 -27t1 -23q0 -31 -4 -52.5t-14 -43.5q-28 -9 -40 -11.5t-24 -2.5q-15 0 -30.5 1.5t-32.5 4.5z" />
    <glyph glyph-name="divide" unicode="&#xf7;" horiz-adv-x="1706" 
d="M854 365q47 0 81 -34t34 -81t-33.5 -81t-81.5 -34t-81.5 33.5t-33.5 81.5t34 81.5t81 33.5zM1452 670v-117h-1198v117h1198zM854 1085q48 0 81.5 -33.5t33.5 -80.5q0 -48 -33.5 -81.5t-81.5 -33.5q-49 0 -82 33.5t-33 81.5q0 47 34 80.5t81 33.5z" />
    <glyph glyph-name="oslash" unicode="&#xf8;" horiz-adv-x="606" 
d="M292 958q-43 -7 -63 -121t-20 -362q0 -147 25.5 -216.5t84.5 -90.5q45 25 62.5 76t17.5 174q0 243 -27 381.5t-80 158.5zM186 23q-72 44 -106.5 162.5t-34.5 326.5q0 295 67.5 443t219.5 192l16 155q26 12 47 17.5t37 5.5q17 0 32.5 -4.5t30.5 -13.5q-11 -78 -17 -135.5
t-9 -106.5q42 -62 68 -206t26 -324q0 -236 -71.5 -391.5t-178.5 -163.5l-10 -160q-30 -15 -51 -22t-37 -7q-13 0 -25 6t-26 21z" />
    <glyph glyph-name="ugrave" unicode="&#xf9;" horiz-adv-x="631" 
d="M250 -8q-171 43 -177 614q-4 320 -16 522q25 12 47 17.5t43 5.5t43.5 -6.5t51.5 -22.5q-2 -81 -3 -209.5t-1 -283.5v-45q0 -244 14 -320t51 -104h12q15 0 28.5 2.5t28.5 7.5q7 77 10 157t3 177q0 177 -5 337.5t-15 307.5q21 9 42 13.5t42 4.5q24 0 49 -6.5t55 -21.5v-78
q0 -11 -1 -67q-5 -306 -5 -617q0 -147 2.5 -223t7.5 -143q-20 -14 -44.5 -19.5t-66.5 -5.5h-30q-13 22 -21 40t-12 33q-34 -32 -65.5 -50.5t-51.5 -18.5q-1 0 -6.5 1t-9.5 1zM176 1505q24 15 44 22t38 7q9 0 28 -6q9 -3 14 -4q19 -71 47 -131.5t66 -112.5q-17 -21 -39.5 -33
t-54.5 -18q-46 50 -81.5 118t-61.5 158z" />
    <glyph glyph-name="uacute" unicode="&#xfa;" horiz-adv-x="631" 
d="M250 -8q-171 43 -177 614q-4 320 -16 522q25 12 47 17.5t43 5.5t43.5 -6.5t51.5 -22.5q-2 -81 -3 -209.5t-1 -283.5v-45q0 -244 14 -320t51 -104h12q15 0 28.5 2.5t28.5 7.5q7 77 10 157t3 177q0 177 -5 337.5t-15 307.5q21 9 42 13.5t42 4.5q24 0 49 -6.5t55 -21.5v-78
q0 -11 -1 -67q-5 -306 -5 -617q0 -147 2.5 -223t7.5 -143q-20 -14 -44.5 -19.5t-66.5 -5.5h-30q-13 22 -21 40t-12 33q-34 -32 -65.5 -50.5t-51.5 -18.5q-1 0 -6.5 1t-9.5 1zM362 1530q8 1 15.5 1.5t15.5 0.5q15 0 34.5 -6.5t53.5 -22.5q-50 -105 -96.5 -173.5t-85.5 -92.5
q-28 3 -49 14.5t-37 32.5q10 17 33 55q68 115 116 191z" />
    <glyph glyph-name="ucircumflex" unicode="&#xfb;" horiz-adv-x="631" 
d="M250 -8q-171 43 -177 614q-4 320 -16 522q25 12 47 17.5t43 5.5t43.5 -6.5t51.5 -22.5q-2 -81 -3 -209.5t-1 -283.5v-45q0 -244 14 -320t51 -104h12q15 0 28.5 2.5t28.5 7.5q7 77 10 157t3 177q0 177 -5 337.5t-15 307.5q21 9 42 13.5t42 4.5q24 0 49 -6.5t55 -21.5v-78
q0 -11 -1 -67q-5 -306 -5 -617q0 -147 2.5 -223t7.5 -143q-20 -14 -44.5 -19.5t-66.5 -5.5h-30q-13 22 -21 40t-12 33q-34 -32 -65.5 -50.5t-51.5 -18.5q-1 0 -6.5 1t-9.5 1zM323 1362q-19 -33 -44 -63t-57 -58q-28 3 -49 12t-38 25q39 45 74.5 105t71.5 143q9 1 25 3
q32 5 40 5q15 0 40 -10h1q22 -74 51 -134t65 -110q-17 -20 -35.5 -30t-43.5 -13q-29 20 -53.5 50t-47.5 75z" />
    <glyph glyph-name="udieresis" unicode="&#xfc;" horiz-adv-x="631" 
d="M250 -8q-171 43 -177 614q-4 320 -16 522q25 12 47 17.5t43 5.5t43.5 -6.5t51.5 -22.5q-2 -81 -3 -209.5t-1 -283.5v-45q0 -244 14 -320t51 -104h12q15 0 28.5 2.5t28.5 7.5q7 77 10 157t3 177q0 177 -5 337.5t-15 307.5q21 9 42 13.5t42 4.5q24 0 49 -6.5t55 -21.5v-78
q0 -11 -1 -67q-5 -306 -5 -617q0 -147 2.5 -223t7.5 -143q-20 -14 -44.5 -19.5t-66.5 -5.5h-30q-13 22 -21 40t-12 33q-34 -32 -65.5 -50.5t-51.5 -18.5q-1 0 -6.5 1t-9.5 1zM348 1295q0 5 -1 17.5t-1 18.5q0 30 4.5 56t14.5 51q11 2 22 3t20 1q21 0 46 -3.5t54 -10.5
q2 -9 2.5 -19t0.5 -27q0 -14 -5.5 -39.5t-15.5 -60.5q-10 -2 -21 -3t-26 -1q-17 0 -38 3.5t-56 13.5zM143 1282q-9 23 -12.5 40t-3.5 32t3 33t11 49q26 4 45.5 6t32.5 2q14 0 50 -6q9 -1 15 -2q2 -15 3 -27t1 -23q0 -31 -4 -52.5t-14 -43.5q-28 -9 -40 -11.5t-24 -2.5
q-15 0 -30.5 1.5t-32.5 4.5z" />
    <glyph glyph-name="yacute" unicode="&#xfd;" horiz-adv-x="575" 
d="M188 49q-32 273 -76.5 532t-101.5 504q25 20 49.5 28.5t67.5 8.5q19 0 33.5 -0.5t29.5 -1.5q28 -158 53 -341t48 -394q36 177 64 368.5t48 399.5q28 6 39.5 8t18.5 2q22 0 48.5 -7.5t61.5 -22.5q-60 -434 -151 -826t-211 -737h-21q-43 0 -79.5 17.5t-73.5 56.5
q42 73 78 168t75 237zM336 1530q8 1 15.5 1.5t15.5 0.5q15 0 34.5 -6.5t53.5 -22.5q-50 -105 -96.5 -173.5t-85.5 -92.5q-28 3 -49 14.5t-37 32.5q10 17 33 55q68 115 116 191z" />
    <glyph glyph-name="thorn" unicode="&#xfe;" horiz-adv-x="616" 
d="M240 524q0 -225 14.5 -304t50.5 -79q48 0 69 109.5t21 363.5q0 215 -21.5 306.5t-70.5 91.5q-35 0 -49 -31t-14 -125v-332zM70 1532q21 8 39.5 12t33.5 4q16 0 36.5 -2.5t70.5 -12.5q-5 -117 -8 -218.5t-4 -187.5q27 17 54 25.5t58 8.5q109 0 161 -129.5t52 -398.5
q0 -315 -62.5 -486.5t-176.5 -171.5q-21 0 -40.5 8t-43.5 27v-145q0 -77 2.5 -122t6.5 -88q-19 -21 -53.5 -32.5t-78.5 -11.5q-10 0 -19.5 2t-25.5 8q0 58 2 127.5t2 81.5v705q0 90 1 243.5t1 214.5q0 104 -2 222.5t-6 316.5z" />
    <glyph glyph-name="ydieresis" unicode="&#xff;" horiz-adv-x="575" 
d="M188 49q-32 273 -76.5 532t-101.5 504q25 20 49.5 28.5t67.5 8.5q19 0 33.5 -0.5t29.5 -1.5q28 -158 53 -341t48 -394q36 177 64 368.5t48 399.5q28 6 39.5 8t18.5 2q22 0 48.5 -7.5t61.5 -22.5q-60 -434 -151 -826t-211 -737h-21q-43 0 -79.5 17.5t-73.5 56.5
q42 73 78 168t75 237zM322 1295q0 5 -1 17.5t-1 18.5q0 30 4.5 56t14.5 51q11 2 22 3t20 1q21 0 46 -3.5t54 -10.5q2 -9 2.5 -19t0.5 -27q0 -14 -5.5 -39.5t-15.5 -60.5q-10 -2 -21 -3t-26 -1q-17 0 -38 3.5t-56 13.5zM117 1282q-9 23 -12.5 40t-3.5 32t3 33t11 49
q26 4 45.5 6t32.5 2q14 0 50 -6q9 -1 15 -2q2 -15 3 -27t1 -23q0 -31 -4 -52.5t-14 -43.5q-28 -9 -40 -11.5t-24 -2.5q-15 0 -30.5 1.5t-32.5 4.5z" />
    <glyph glyph-name="Amacron" unicode="&#x100;" horiz-adv-x="649" 
d="M342 1210q-30 -172 -56 -334t-55 -348h12q58 -4 83 -4q9 0 40 2q23 2 35 2q-19 172 -33.5 342t-25.5 340zM444 1542q32 -323 78 -704t105 -807q-23 -21 -47 -31t-52 -10q-22 0 -35 1t-24 3q-16 113 -34 253t-19 146q-16 1 -41 2q-37 2 -47 2q-32 0 -104 -3q-9 -1 -13 -1
q-15 -108 -26.5 -205t-18.5 -173q-31 -17 -53.5 -24t-42.5 -7q-21 0 -40 7t-40 23q66 433 140 813.5t159 716.5q28 8 48 11.5t36 3.5t33.5 -4t37.5 -13zM194 1671q-8 32 -11 47t-3 25q0 14 2 26t6 25q76 8 122 11t81 3q28 0 59 -3.5t69 -10.5q1 -2 2 -7q7 -38 7 -55
q0 -19 -5 -36t-15 -31q-27 4 -54 6t-69 2q-32 0 -95.5 -1t-95.5 -1z" />
    <glyph glyph-name="amacron" unicode="&#x101;" horiz-adv-x="602" 
d="M362 180q0 93 -1.5 186.5t-4.5 190.5q-5 1 -11 1.5t-17 0.5q-59 0 -89 -47t-30 -139q0 -124 22 -162.5t80 -38.5q9 0 35 5q10 2 16 3zM131 932h-6q-32 0 -56 26t-24 56q0 4 3 10t11 16q57 34 118 66t124 61q125 -24 173 -135.5t48 -529.5q0 -139 -7 -459q-1 -33 -1 -49
q-21 -9 -37 -13t-31 -4q-16 0 -33.5 5t-33.5 14l-8 47q-42 -20 -84.5 -31.5t-73.5 -11.5q-82 0 -122 81.5t-40 252.5q0 199 63.5 286t207.5 87h32q-1 124 -29 204t-67 80q-9 0 -23.5 -5t-29.5 -13zM141 1274q-8 32 -11 47t-3 25q0 14 2 26t6 25q76 8 122 11t81 3
q28 0 59 -3.5t69 -10.5q1 -2 2 -7q7 -38 7 -55q0 -19 -5 -36t-15 -31q-27 4 -54 6t-69 2q-32 0 -95.5 -1t-95.5 -1z" />
    <glyph glyph-name="Abreve" unicode="&#x102;" horiz-adv-x="649" 
d="M342 1210q-30 -172 -56 -334t-55 -348h12q58 -4 83 -4q9 0 40 2q23 2 35 2q-19 172 -33.5 342t-25.5 340zM444 1542q32 -323 78 -704t105 -807q-23 -21 -47 -31t-52 -10q-22 0 -35 1t-24 3q-16 113 -34 253t-19 146q-16 1 -41 2q-37 2 -47 2q-32 0 -104 -3q-9 -1 -13 -1
q-15 -108 -26.5 -205t-18.5 -173q-31 -17 -53.5 -24t-42.5 -7q-21 0 -40 7t-40 23q66 433 140 813.5t159 716.5q28 8 48 11.5t36 3.5t33.5 -4t37.5 -13zM462 1869q27 -3 45 -12.5t35 -29.5q-42 -97 -81.5 -135t-94.5 -38q-61 0 -111.5 46t-80.5 129q18 15 39 24.5t45 13.5
q4 -6 11 -18q45 -74 85 -74q33 0 79 59q18 22 29 35z" />
    <glyph glyph-name="abreve" unicode="&#x103;" horiz-adv-x="602" 
d="M362 180q0 93 -1.5 186.5t-4.5 190.5q-5 1 -11 1.5t-17 0.5q-59 0 -89 -47t-30 -139q0 -124 22 -162.5t80 -38.5q9 0 35 5q10 2 16 3zM131 932h-6q-32 0 -56 26t-24 56q0 4 3 10t11 16q57 34 118 66t124 61q125 -24 173 -135.5t48 -529.5q0 -139 -7 -459q-1 -33 -1 -49
q-21 -9 -37 -13t-31 -4q-16 0 -33.5 5t-33.5 14l-8 47q-42 -20 -84.5 -31.5t-73.5 -11.5q-82 0 -122 81.5t-40 252.5q0 199 63.5 286t207.5 87h32q-1 124 -29 204t-67 80q-9 0 -23.5 -5t-29.5 -13zM409 1472q27 -3 45 -12.5t35 -29.5q-42 -97 -81.5 -135t-94.5 -38
q-61 0 -111.5 46t-80.5 129q18 15 39 24.5t45 13.5q4 -6 11 -18q45 -74 85 -74q33 0 79 59q18 22 29 35z" />
    <glyph glyph-name="Aogonek" unicode="&#x104;" horiz-adv-x="649" 
d="M342 1210q-30 -172 -56 -334t-55 -348h12q58 -4 83 -4q9 0 40 2q23 2 35 2q-19 172 -33.5 342t-25.5 340zM444 1542q32 -323 78 -704t105 -807q-50 -35 -76.5 -113t-26.5 -194v-12q12 0 25 0.5t31 0.5q17 0 59 -3q10 0 16 -1q9 -19 13 -33.5t4 -27.5q0 -10 -2.5 -24
t-5.5 -30q-45 -17 -80.5 -25.5t-67.5 -8.5q-14 0 -27 0.5t-26 1.5q-36 32 -52 65t-16 74q0 61 32.5 141t86.5 148l-45 4q-16 113 -34 253t-19 146q-16 1 -41 2q-37 2 -47 2q-32 0 -104 -3q-9 -1 -13 -1q-15 -108 -26.5 -205t-18.5 -173q-31 -17 -53.5 -24t-42.5 -7
q-21 0 -40 7t-40 23q66 433 140 813.5t159 716.5q28 8 48 11.5t36 3.5t33.5 -4t37.5 -13z" />
    <glyph glyph-name="aogonek" unicode="&#x105;" horiz-adv-x="602" 
d="M362 180q0 93 -1.5 186.5t-4.5 190.5q-5 1 -11 1.5t-17 0.5q-59 0 -89 -47t-30 -139q0 -124 22 -162.5t80 -38.5q9 0 35 5q10 2 16 3zM131 932h-6q-32 0 -56 26t-24 56q0 4 3 10t11 16q57 34 118 66t124 61q125 -24 173 -135.5t48 -529.5q0 -139 -7 -455q-1 -35 -1 -53
l-16 -8q-27 -60 -40.5 -122t-13.5 -126l1 -27q11 1 24 1.5t31 0.5q16 0 53 -2q13 -1 20 -2q12 -25 15.5 -38t3.5 -23q0 -6 -2.5 -18.5t-8.5 -35.5q-44 -17 -79.5 -25.5t-67.5 -8.5q-13 0 -25.5 0.5t-25.5 1.5q-36 32 -52 65t-16 74q0 55 28.5 130.5t77.5 148.5
q-16 4 -25.5 8t-16.5 8l-8 47q-42 -20 -84.5 -31.5t-73.5 -11.5q-82 0 -122 81.5t-40 252.5q0 199 63.5 286t207.5 87h32q-1 124 -29 204t-67 80q-9 0 -23.5 -5t-29.5 -13z" />
    <glyph glyph-name="Cacute" unicode="&#x106;" horiz-adv-x="573" 
d="M549 1444q-19 -19 -103 -89.5t-122 -129.5q-52 -80 -80.5 -228.5t-28.5 -341.5q0 -223 61 -362t152 -139q14 0 46 15q19 9 29 13q22 -14 34 -36t12 -48q0 -8 -2.5 -18t-7.5 -22q-30 -46 -59 -63.5t-74 -17.5q-160 0 -263.5 187.5t-103.5 492.5q0 372 112 594.5t341 304.5
q29 -14 43 -37.5t14 -58.5v-16zM463 1927q8 1 15.5 1.5t15.5 0.5q15 0 34.5 -6.5t53.5 -22.5q-50 -105 -96.5 -173.5t-85.5 -92.5q-28 3 -49 14.5t-37 32.5q10 17 33 55q68 115 116 191z" />
    <glyph glyph-name="cacute" unicode="&#x107;" horiz-adv-x="473" 
d="M455 86q-11 -47 -51.5 -79t-90.5 -32q-122 0 -195 151t-73 409q0 219 43 375t121 223q28 13 53.5 19.5t54.5 6.5q48 0 80 -9.5t54 -29.5v-18q0 -28 -8 -57.5t-25 -63.5q-34 18 -53 24.5t-35 6.5q-59 0 -89 -111.5t-30 -331.5q0 -164 25.5 -266.5t74.5 -136.5
q7 -1 17 -1.5t28 -0.5q25 0 46 2t40 6q8 -21 11.5 -37.5t3.5 -30.5q0 -3 -1 -9t-1 -9zM354 1530q8 1 15.5 1.5t15.5 0.5q15 0 34.5 -6.5t53.5 -22.5q-50 -105 -96.5 -173.5t-85.5 -92.5q-28 3 -49 14.5t-37 32.5q10 17 33 55q68 115 116 191z" />
    <glyph glyph-name="Ccircumflex" unicode="&#x108;" horiz-adv-x="573" 
d="M549 1444q-19 -19 -103 -89.5t-122 -129.5q-52 -80 -80.5 -228.5t-28.5 -341.5q0 -223 61 -362t152 -139q14 0 46 15q19 9 29 13q22 -14 34 -36t12 -48q0 -8 -2.5 -18t-7.5 -22q-30 -46 -59 -63.5t-74 -17.5q-160 0 -263.5 187.5t-103.5 492.5q0 372 112 594.5t341 304.5
q29 -14 43 -37.5t14 -58.5v-16zM424 1759q-19 -33 -44 -63t-57 -58q-28 3 -49 12t-38 25q39 45 74.5 105t71.5 143q9 1 25 3q32 5 40 5q15 0 40 -10h1q22 -74 51 -134t65 -110q-17 -20 -35.5 -30t-43.5 -13q-29 20 -53.5 50t-47.5 75z" />
    <glyph glyph-name="ccircumflex" unicode="&#x109;" horiz-adv-x="473" 
d="M455 86q-11 -47 -51.5 -79t-90.5 -32q-122 0 -195 151t-73 409q0 219 43 375t121 223q28 13 53.5 19.5t54.5 6.5q48 0 80 -9.5t54 -29.5v-18q0 -28 -8 -57.5t-25 -63.5q-34 18 -53 24.5t-35 6.5q-59 0 -89 -111.5t-30 -331.5q0 -164 25.5 -266.5t74.5 -136.5
q7 -1 17 -1.5t28 -0.5q25 0 46 2t40 6q8 -21 11.5 -37.5t3.5 -30.5q0 -3 -1 -9t-1 -9zM315 1362q-19 -33 -44 -63t-57 -58q-28 3 -49 12t-38 25q39 45 74.5 105t71.5 143q9 1 25 3q32 5 40 5q15 0 40 -10h1q22 -74 51 -134t65 -110q-17 -20 -35.5 -30t-43.5 -13
q-29 20 -53.5 50t-47.5 75z" />
    <glyph glyph-name="Cdot" unicode="&#x10a;" horiz-adv-x="573" 
d="M549 1444q-19 -19 -103 -89.5t-122 -129.5q-52 -80 -80.5 -228.5t-28.5 -341.5q0 -223 61 -362t152 -139q14 0 46 15q19 9 29 13q22 -14 34 -36t12 -48q0 -8 -2.5 -18t-7.5 -22q-30 -46 -59 -63.5t-74 -17.5q-160 0 -263.5 187.5t-103.5 492.5q0 372 112 594.5t341 304.5
q29 -14 43 -37.5t14 -58.5v-16zM492 1693q-18 -4 -35 -6t-33 -2t-33.5 4t-34.5 11q-10 18 -15 39.5t-5 50.5q0 24 1 38t3 27q3 1 7 1q46 7 63 7q14 0 35 -2t47 -6q8 -25 12 -46t4 -40q0 -16 -4 -34t-12 -42z" />
    <glyph glyph-name="cdot" unicode="&#x10b;" horiz-adv-x="473" 
d="M455 86q-11 -47 -51.5 -79t-90.5 -32q-122 0 -195 151t-73 409q0 219 43 375t121 223q28 13 53.5 19.5t54.5 6.5q48 0 80 -9.5t54 -29.5v-18q0 -28 -8 -57.5t-25 -63.5q-34 18 -53 24.5t-35 6.5q-59 0 -89 -111.5t-30 -331.5q0 -164 25.5 -266.5t74.5 -136.5
q7 -1 17 -1.5t28 -0.5q25 0 46 2t40 6q8 -21 11.5 -37.5t3.5 -30.5q0 -3 -1 -9t-1 -9zM383 1296q-18 -4 -35 -6t-33 -2t-33.5 4t-34.5 11q-10 18 -15 39.5t-5 50.5q0 24 1 38t3 27q3 1 7 1q46 7 63 7q14 0 35 -2t47 -6q8 -25 12 -46t4 -40q0 -16 -4 -34t-12 -42z" />
    <glyph glyph-name="Ccaron" unicode="&#x10c;" horiz-adv-x="573" 
d="M549 1444q-19 -19 -103 -89.5t-122 -129.5q-52 -80 -80.5 -228.5t-28.5 -341.5q0 -223 61 -362t152 -139q14 0 46 15q19 9 29 13q22 -14 34 -36t12 -48q0 -8 -2.5 -18t-7.5 -22q-30 -46 -59 -63.5t-74 -17.5q-160 0 -263.5 187.5t-103.5 492.5q0 372 112 594.5t341 304.5
q29 -14 43 -37.5t14 -58.5v-16zM416 1804q19 33 44.5 64.5t56.5 58.5q26 -3 47.5 -12.5t39.5 -26.5q-42 -48 -77 -107.5t-68 -138.5q-23 -4 -38.5 -6t-22.5 -2q-11 0 -22 2.5t-23 7.5q-22 71 -51 130t-66 112q17 20 35.5 30t43.5 13q29 -20 53.5 -50.5t47.5 -74.5z" />
    <glyph glyph-name="ccaron" unicode="&#x10d;" horiz-adv-x="473" 
d="M455 86q-11 -47 -51.5 -79t-90.5 -32q-122 0 -195 151t-73 409q0 219 43 375t121 223q28 13 53.5 19.5t54.5 6.5q48 0 80 -9.5t54 -29.5v-18q0 -28 -8 -57.5t-25 -63.5q-34 18 -53 24.5t-35 6.5q-59 0 -89 -111.5t-30 -331.5q0 -164 25.5 -266.5t74.5 -136.5
q7 -1 17 -1.5t28 -0.5q25 0 46 2t40 6q8 -21 11.5 -37.5t3.5 -30.5q0 -3 -1 -9t-1 -9zM307 1407q19 33 44.5 64.5t56.5 58.5q26 -3 47.5 -12.5t39.5 -26.5q-42 -48 -77 -107.5t-68 -138.5q-23 -4 -38.5 -6t-22.5 -2q-11 0 -22 2.5t-23 7.5q-22 71 -51 130t-66 112
q17 20 35.5 30t43.5 13q29 -20 53.5 -50.5t47.5 -74.5z" />
    <glyph glyph-name="Dcaron" unicode="&#x10e;" horiz-adv-x="662" 
d="M274 1401q-6 -162 -9 -351.5t-3 -400.5q0 -145 2.5 -269t8.5 -241h1q84 0 118 140t34 524q0 292 -36 446t-103 154q-2 0 -6.5 -1t-6.5 -1zM111 1548h106q216 0 300.5 -171.5t84.5 -616.5q0 -438 -79.5 -606t-276.5 -168q-46 0 -76.5 1t-60.5 3q-9 218 -13 399.5t-4 337.5
q0 142 4 322.5t15 498.5zM332 1804q19 33 44.5 64.5t56.5 58.5q26 -3 47.5 -12.5t39.5 -26.5q-42 -48 -77 -107.5t-68 -138.5q-23 -4 -38.5 -6t-22.5 -2q-11 0 -22 2.5t-23 7.5q-22 71 -51 130t-66 112q17 20 35.5 30t43.5 13q29 -20 53.5 -50.5t47.5 -74.5z" />
    <glyph glyph-name="dcaron" unicode="&#x10f;" horiz-adv-x="856" 
d="M232 192q32 -9 56.5 -13.5t41.5 -4.5q18 0 55 14l2 1q7 127 11 321.5t5 505.5q-22 5 -38 7.5t-27 2.5q-63 0 -92 -133t-29 -424q0 -74 3.5 -142.5t11.5 -134.5zM238 -4q-41 0 -70 12.5t-51 38.5q-34 70 -50 166t-16 242q0 194 28.5 354.5t80.5 261.5q16 35 59.5 57.5
t91.5 22.5q20 0 43.5 -4t48.5 -12l-4 356q27 28 55.5 40.5t65.5 12.5q6 0 17 -1.5t44 -8.5q-9 -280 -13.5 -605.5t-4.5 -697.5v-215l-61 -34h-15q-25 0 -47 5t-43 16q-3 12 -5.5 27.5t-4.5 44.5q-29 -27 -65.5 -46.5t-83.5 -32.5zM737 1137q-28 0 -51.5 6.5t-46.5 20.5
q3 15 9 47q46 234 46 325v12l21 13q5 0 16 1t14 1q36 0 62.5 -7t48.5 -22q-15 -95 -44.5 -193.5t-74.5 -203.5z" />
    <glyph glyph-name="Dslash" unicode="&#x110;" horiz-adv-x="672" 
d="M283 1401q-4 -89 -6 -203.5t-4 -345.5q36 0 53 -2t32 -6q3 -11 8 -29t5 -24q0 -12 -2.5 -27t-8.5 -35q-22 -2 -37.5 -3t-27.5 -1h-25v-92q0 -117 3 -240t10 -254h2q84 0 117.5 140t33.5 524q0 293 -36 446.5t-105 153.5q-2 0 -6 -1t-6 -1zM119 1548h108
q216 0 300.5 -171.5t84.5 -616.5q0 -438 -79.5 -606t-276.5 -168q-46 0 -77.5 1t-61.5 3q-6 123 -9 273.5t-6 461.5q-22 0 -47 2t-61 6q-4 17 -6 30t-2 23q0 9 3 23t9 35l7 1q67 7 97 7q4 337 16 687z" />
    <glyph glyph-name="dcroat" unicode="&#x111;" horiz-adv-x="639" 
d="M232 192q32 -9 56.5 -13.5t41.5 -4.5q18 0 55 14l2 1q7 127 11 321.5t5 505.5q-22 5 -38 7.5t-27 2.5q-63 0 -92 -133t-29 -424q0 -74 3.5 -142.5t11.5 -134.5zM238 -4q-41 0 -70 12.5t-51 38.5q-34 70 -50 166t-16 242q0 194 28.5 354.5t80.5 261.5q16 35 59.5 57.5
t91.5 22.5q20 0 43.5 -4t48.5 -12l-2 129q-48 2 -143 13q-5 1 -8 1q-1 5 -1.5 10.5t-0.5 16.5q0 14 4 27t14 28q34 9 67 13.5t66 4.5v113q27 28 55.5 40.5t65.5 12.5q6 0 17 -1.5t45 -8.5l-4 -160q16 -1 34 -5t39 -11l19 -62q-19 -16 -38.5 -23t-41.5 -7h-15
q-8 -384 -11 -606.5t-3 -389.5q0 -46 1 -131t1 -123l-61 -34h-15q-25 0 -47 5t-43 16q-3 12 -5.5 27.5t-4.5 44.5q-29 -27 -65.5 -46.5t-83.5 -32.5z" />
    <glyph glyph-name="Emacron" unicode="&#x112;" horiz-adv-x="573" 
d="M514 1440l-26 -57q-37 2 -54.5 2.5t-34.5 0.5q-39 0 -77 -4.5t-76 -13.5q2 -91 5.5 -167.5t8.5 -145.5h55q28 0 58.5 0.5t90.5 3.5q22 -11 32.5 -26.5t13.5 -41.5q-3 -29 -14.5 -50.5t-35.5 -39.5q-39 3 -77 4.5t-76 1.5h-47q2 -78 3 -147.5t1 -136.5q0 -124 -3.5 -237.5
t-10.5 -219.5q1 0 4 -1q117 -18 158 -18q34 0 64.5 4.5t60.5 12.5q13 -24 21 -49t11 -54q-15 -26 -35.5 -47.5t-43.5 -35.5q-24 -2 -44 -2.5t-43 -0.5q-98 0 -185.5 10t-160.5 29q20 162 29.5 335.5t9.5 367.5q0 102 -5 312t-15 493q84 12 190.5 18t259.5 8q4 -12 6.5 -22.5
t2.5 -18.5q0 -13 -5.5 -30t-15.5 -37zM127 1671q-8 32 -11 47t-3 25q0 14 2 26t6 25q76 8 122 11t81 3q28 0 59 -3.5t69 -10.5q1 -2 2 -7q7 -38 7 -55q0 -19 -5 -36t-15 -31q-27 4 -54 6t-69 2q-32 0 -95.5 -1t-95.5 -1z" />
    <glyph glyph-name="emacron" unicode="&#x113;" horiz-adv-x="551" 
d="M376 774q2 23 3.5 47.5t1.5 26.5q0 75 -15 108t-49 33q-28 0 -46 -51.5t-31 -175.5zM506 137q1 -9 1.5 -17t0.5 -16q0 -57 -42.5 -93t-107.5 -36q-154 0 -233.5 133t-79.5 390q0 282 86.5 472.5t206.5 190.5q80 0 130 -93t50 -245q0 -45 -6.5 -87t-19.5 -83
q-26 -5 -45 -7.5t-35 -2.5q-4 0 -64.5 3.5t-117.5 4.5q-6 -66 -7.5 -99t-1.5 -60q0 -209 47.5 -283t182.5 -74h20l12 1t23 1zM168 1274q-8 32 -11 47t-3 25q0 14 2 26t6 25q76 8 122 11t81 3q28 0 59 -3.5t69 -10.5q1 -2 2 -7q7 -38 7 -55q0 -19 -5 -36t-15 -31q-27 4 -54 6
t-69 2q-32 0 -95.5 -1t-95.5 -1z" />
    <glyph glyph-name="Ebreve" unicode="&#x114;" horiz-adv-x="573" 
d="M514 1440l-26 -57q-37 2 -54.5 2.5t-34.5 0.5q-39 0 -77 -4.5t-76 -13.5q2 -91 5.5 -167.5t8.5 -145.5h55q28 0 58.5 0.5t90.5 3.5q22 -11 32.5 -26.5t13.5 -41.5q-3 -29 -14.5 -50.5t-35.5 -39.5q-39 3 -77 4.5t-76 1.5h-47q2 -78 3 -147.5t1 -136.5q0 -124 -3.5 -237.5
t-10.5 -219.5q1 0 4 -1q117 -18 158 -18q34 0 64.5 4.5t60.5 12.5q13 -24 21 -49t11 -54q-15 -26 -35.5 -47.5t-43.5 -35.5q-24 -2 -44 -2.5t-43 -0.5q-98 0 -185.5 10t-160.5 29q20 162 29.5 335.5t9.5 367.5q0 102 -5 312t-15 493q84 12 190.5 18t259.5 8q4 -12 6.5 -22.5
t2.5 -18.5q0 -13 -5.5 -30t-15.5 -37zM395 1869q27 -3 45 -12.5t35 -29.5q-42 -97 -81.5 -135t-94.5 -38q-61 0 -111.5 46t-80.5 129q18 15 39 24.5t45 13.5q4 -6 11 -18q45 -74 85 -74q33 0 79 59q18 22 29 35z" />
    <glyph glyph-name="ebreve" unicode="&#x115;" horiz-adv-x="551" 
d="M376 774q2 23 3.5 47.5t1.5 26.5q0 75 -15 108t-49 33q-28 0 -46 -51.5t-31 -175.5zM506 137q1 -9 1.5 -17t0.5 -16q0 -57 -42.5 -93t-107.5 -36q-154 0 -233.5 133t-79.5 390q0 282 86.5 472.5t206.5 190.5q80 0 130 -93t50 -245q0 -45 -6.5 -87t-19.5 -83
q-26 -5 -45 -7.5t-35 -2.5q-4 0 -64.5 3.5t-117.5 4.5q-6 -66 -7.5 -99t-1.5 -60q0 -209 47.5 -283t182.5 -74h20l12 1t23 1zM436 1472q27 -3 45 -12.5t35 -29.5q-42 -97 -81.5 -135t-94.5 -38q-61 0 -111.5 46t-80.5 129q18 15 39 24.5t45 13.5q4 -6 11 -18q45 -74 85 -74
q33 0 79 59q18 22 29 35z" />
    <glyph glyph-name="Edot" unicode="&#x116;" horiz-adv-x="573" 
d="M514 1440l-26 -57q-37 2 -54.5 2.5t-34.5 0.5q-39 0 -77 -4.5t-76 -13.5q2 -91 5.5 -167.5t8.5 -145.5h55q28 0 58.5 0.5t90.5 3.5q22 -11 32.5 -26.5t13.5 -41.5q-3 -29 -14.5 -50.5t-35.5 -39.5q-39 3 -77 4.5t-76 1.5h-47q2 -78 3 -147.5t1 -136.5q0 -124 -3.5 -237.5
t-10.5 -219.5q1 0 4 -1q117 -18 158 -18q34 0 64.5 4.5t60.5 12.5q13 -24 21 -49t11 -54q-15 -26 -35.5 -47.5t-43.5 -35.5q-24 -2 -44 -2.5t-43 -0.5q-98 0 -185.5 10t-160.5 29q20 162 29.5 335.5t9.5 367.5q0 102 -5 312t-15 493q84 12 190.5 18t259.5 8q4 -12 6.5 -22.5
t2.5 -18.5q0 -13 -5.5 -30t-15.5 -37zM363 1693q-18 -4 -35 -6t-33 -2t-33.5 4t-34.5 11q-10 18 -15 39.5t-5 50.5q0 24 1 38t3 27q3 1 7 1q46 7 63 7q14 0 35 -2t47 -6q8 -25 12 -46t4 -40q0 -16 -4 -34t-12 -42z" />
    <glyph glyph-name="edot" unicode="&#x117;" horiz-adv-x="551" 
d="M376 774q2 23 3.5 47.5t1.5 26.5q0 75 -15 108t-49 33q-28 0 -46 -51.5t-31 -175.5zM506 137q1 -9 1.5 -17t0.5 -16q0 -57 -42.5 -93t-107.5 -36q-154 0 -233.5 133t-79.5 390q0 282 86.5 472.5t206.5 190.5q80 0 130 -93t50 -245q0 -45 -6.5 -87t-19.5 -83
q-26 -5 -45 -7.5t-35 -2.5q-4 0 -64.5 3.5t-117.5 4.5q-6 -66 -7.5 -99t-1.5 -60q0 -209 47.5 -283t182.5 -74h20l12 1t23 1zM404 1296q-18 -4 -35 -6t-33 -2t-33.5 4t-34.5 11q-10 18 -15 39.5t-5 50.5q0 24 1 38t3 27q3 1 7 1q46 7 63 7q14 0 35 -2t47 -6q8 -25 12 -46
t4 -40q0 -16 -4 -34t-12 -42z" />
    <glyph glyph-name="Eogonek" unicode="&#x118;" horiz-adv-x="573" 
d="M514 1440l-26 -57q-37 2 -54.5 2.5t-34.5 0.5q-39 0 -77 -4.5t-76 -13.5q2 -91 5.5 -167.5t8.5 -145.5h55q28 0 58.5 0.5t90.5 3.5q22 -11 32.5 -26.5t13.5 -41.5q-3 -29 -14.5 -50.5t-35.5 -39.5q-39 3 -77 4.5t-76 1.5h-47q2 -78 3 -147.5t1 -136.5q0 -124 -3.5 -237.5
t-10.5 -219.5q1 0 4 -1q117 -18 158 -18q34 0 64.5 4.5t60.5 12.5q13 -24 21 -49t11 -54q-51 -54 -78.5 -139.5t-27.5 -189.5v-20q12 0 24.5 0.5t30.5 0.5q16 0 53 -2q13 -1 21 -2q11 -25 14.5 -37.5t3.5 -23.5q0 -10 -2 -24t-6 -30q-43 -17 -80 -25.5t-69 -8.5
q-14 0 -26.5 0.5t-25.5 1.5q-35 32 -51 65.5t-16 73.5q0 47 25 116.5t75 157.5h-31q-98 0 -184.5 10t-161.5 29q20 162 29.5 335.5t9.5 367.5q0 102 -5 312t-15 493q84 12 190.5 18t259.5 8q4 -12 6.5 -22.5t2.5 -18.5q0 -13 -5.5 -30t-15.5 -37z" />
    <glyph glyph-name="eogonek" unicode="&#x119;" horiz-adv-x="551" 
d="M376 774q2 23 3.5 47.5t1.5 26.5q0 75 -15 108t-49 33q-28 0 -46 -51.5t-31 -175.5zM506 137q1 -9 1.5 -17t0.5 -16q0 -15 -53.5 -125t-53.5 -243l1 -25q11 1 24 1.5t31 0.5q16 0 53 -2q13 -1 20 -2q12 -25 15.5 -38t3.5 -23t-2 -24t-6 -30q-44 -17 -80.5 -25.5
t-69.5 -8.5q-13 0 -25.5 0.5t-25.5 1.5q-36 34 -52 66.5t-16 70.5q0 48 27 121t76 155h-10q-159 0 -239.5 131.5t-80.5 391.5q0 281 86.5 472t206.5 191q80 0 130 -93t50 -245q0 -45 -6.5 -87t-19.5 -83q-26 -5 -45 -7.5t-35 -2.5q-4 0 -64.5 3.5t-117.5 4.5
q-6 -66 -7.5 -99t-1.5 -60q0 -209 47.5 -283t182.5 -74h20l12 1t23 1z" />
    <glyph glyph-name="Ecaron" unicode="&#x11a;" horiz-adv-x="573" 
d="M514 1440l-26 -57q-37 2 -54.5 2.5t-34.5 0.5q-39 0 -77 -4.5t-76 -13.5q2 -91 5.5 -167.5t8.5 -145.5h55q28 0 58.5 0.5t90.5 3.5q22 -11 32.5 -26.5t13.5 -41.5q-3 -29 -14.5 -50.5t-35.5 -39.5q-39 3 -77 4.5t-76 1.5h-47q2 -78 3 -147.5t1 -136.5q0 -124 -3.5 -237.5
t-10.5 -219.5q1 0 4 -1q117 -18 158 -18q34 0 64.5 4.5t60.5 12.5q13 -24 21 -49t11 -54q-15 -26 -35.5 -47.5t-43.5 -35.5q-24 -2 -44 -2.5t-43 -0.5q-98 0 -185.5 10t-160.5 29q20 162 29.5 335.5t9.5 367.5q0 102 -5 312t-15 493q84 12 190.5 18t259.5 8q4 -12 6.5 -22.5
t2.5 -18.5q0 -13 -5.5 -30t-15.5 -37zM287 1804q19 33 44.5 64.5t56.5 58.5q26 -3 47.5 -12.5t39.5 -26.5q-42 -48 -77 -107.5t-68 -138.5q-23 -4 -38.5 -6t-22.5 -2q-11 0 -22 2.5t-23 7.5q-22 71 -51 130t-66 112q17 20 35.5 30t43.5 13q29 -20 53.5 -50.5t47.5 -74.5z
" />
    <glyph glyph-name="ecaron" unicode="&#x11b;" horiz-adv-x="551" 
d="M376 774q2 23 3.5 47.5t1.5 26.5q0 75 -15 108t-49 33q-28 0 -46 -51.5t-31 -175.5zM506 137q1 -9 1.5 -17t0.5 -16q0 -57 -42.5 -93t-107.5 -36q-154 0 -233.5 133t-79.5 390q0 282 86.5 472.5t206.5 190.5q80 0 130 -93t50 -245q0 -45 -6.5 -87t-19.5 -83
q-26 -5 -45 -7.5t-35 -2.5q-4 0 -64.5 3.5t-117.5 4.5q-6 -66 -7.5 -99t-1.5 -60q0 -209 47.5 -283t182.5 -74h20l12 1t23 1zM328 1407q19 33 44.5 64.5t56.5 58.5q26 -3 47.5 -12.5t39.5 -26.5q-42 -48 -77 -107.5t-68 -138.5q-23 -4 -38.5 -6t-22.5 -2q-11 0 -22 2.5
t-23 7.5q-22 71 -51 130t-66 112q17 20 35.5 30t43.5 13q29 -20 53.5 -50.5t47.5 -74.5z" />
    <glyph glyph-name="Gcircumflex" unicode="&#x11c;" horiz-adv-x="674" 
d="M582 1006l22 -23q1 -41 1.5 -89t0.5 -138q0 -260 -13 -447t-40 -309q-34 -25 -67 -36t-72 -11q-195 0 -281 205.5t-86 679.5q0 375 111 559t338 184h9q4 -15 5.5 -27t1.5 -18q0 -24 -8 -45t-25 -43q-38 -11 -75.5 -29.5t-75.5 -46.5q-53 -71 -77 -196t-24 -340
q0 -202 14 -349t42 -239q15 -44 42 -79.5t66 -66.5l39 17q6 136 9 274t3 277v198q-25 2 -54.5 5t-65.5 8q-6 20 -8.5 33t-2.5 22q0 8 5 36q2 12 4 19q39 8 85.5 11.5t116.5 3.5h60zM346 1759q-19 -33 -44 -63t-57 -58q-28 3 -49 12t-38 25q39 45 74.5 105t71.5 143q9 1 25 3
q32 5 40 5q15 0 40 -10h1q22 -74 51 -134t65 -110q-17 -20 -35.5 -30t-43.5 -13q-29 20 -53.5 50t-47.5 75z" />
    <glyph glyph-name="gcircumflex" unicode="&#x11d;" horiz-adv-x="596" 
d="M387 -243l2 9q19 86 19 105q0 76 -179 189q-19 12 -28 18q-36 0 -56 -33.5t-20 -93.5q0 -91 46.5 -150t117.5 -59q17 0 76 10q14 3 22 5zM367 565q2 27 3 53.5t1 59.5q0 97 -16.5 177t-49.5 144q-5 1 -11.5 1.5t-14.5 0.5q-41 0 -54.5 -43.5t-13.5 -187.5q0 -111 27 -172
t75 -61q14 0 25.5 6t28.5 22zM429 1127q19 13 40.5 21t46.5 11q17 -10 37 -15t47 -8q3 -11 4.5 -21.5t1.5 -18.5t-3 -20.5t-9 -26.5q-23 -19 -46.5 -34.5t-51.5 -29.5q12 -80 18 -150t6 -122q0 -121 -68.5 -219.5t-162.5 -98.5q-11 0 -16.5 0.5t-10.5 1.5q-12 -26 -19 -48
t-9 -42q41 -56 168 -163q31 -26 47 -40q59 -51 77.5 -88t18.5 -114v-19q0 -34 -5 -57.5t-16 -46.5q-80 -89 -157 -142t-121 -53q-99 0 -178.5 86.5t-79.5 214.5q0 84 31 143t103 114q-12 16 -17 26t-5 18q0 49 10 83t27 47v12q0 24 6 48t16 45q-52 41 -80 124t-28 200
q0 72 15.5 145t46.5 150q65 64 112.5 90t99.5 31q26 -1 51.5 -9.5t52.5 -24.5zM307 1362q-19 -33 -44 -63t-57 -58q-28 3 -49 12t-38 25q39 45 74.5 105t71.5 143q9 1 25 3q32 5 40 5q15 0 40 -10h1q22 -74 51 -134t65 -110q-17 -20 -35.5 -30t-43.5 -13q-29 20 -53.5 50
t-47.5 75z" />
    <glyph glyph-name="Gbreve" unicode="&#x11e;" horiz-adv-x="674" 
d="M582 1006l22 -23q1 -41 1.5 -89t0.5 -138q0 -260 -13 -447t-40 -309q-34 -25 -67 -36t-72 -11q-195 0 -281 205.5t-86 679.5q0 375 111 559t338 184h9q4 -15 5.5 -27t1.5 -18q0 -24 -8 -45t-25 -43q-38 -11 -75.5 -29.5t-75.5 -46.5q-53 -71 -77 -196t-24 -340
q0 -202 14 -349t42 -239q15 -44 42 -79.5t66 -66.5l39 17q6 136 9 274t3 277v198q-25 2 -54.5 5t-65.5 8q-6 20 -8.5 33t-2.5 22q0 8 5 36q2 12 4 19q39 8 85.5 11.5t116.5 3.5h60zM446 1869q27 -3 45 -12.5t35 -29.5q-42 -97 -81.5 -135t-94.5 -38q-61 0 -111.5 46
t-80.5 129q18 15 39 24.5t45 13.5q4 -6 11 -18q45 -74 85 -74q33 0 79 59q18 22 29 35z" />
    <glyph glyph-name="gbreve" unicode="&#x11f;" horiz-adv-x="596" 
d="M387 -243l2 9q19 86 19 105q0 76 -179 189q-19 12 -28 18q-36 0 -56 -33.5t-20 -93.5q0 -91 46.5 -150t117.5 -59q17 0 76 10q14 3 22 5zM367 565q2 27 3 53.5t1 59.5q0 97 -16.5 177t-49.5 144q-5 1 -11.5 1.5t-14.5 0.5q-41 0 -54.5 -43.5t-13.5 -187.5q0 -111 27 -172
t75 -61q14 0 25.5 6t28.5 22zM429 1127q19 13 40.5 21t46.5 11q17 -10 37 -15t47 -8q3 -11 4.5 -21.5t1.5 -18.5t-3 -20.5t-9 -26.5q-23 -19 -46.5 -34.5t-51.5 -29.5q12 -80 18 -150t6 -122q0 -121 -68.5 -219.5t-162.5 -98.5q-11 0 -16.5 0.5t-10.5 1.5q-12 -26 -19 -48
t-9 -42q41 -56 168 -163q31 -26 47 -40q59 -51 77.5 -88t18.5 -114v-19q0 -34 -5 -57.5t-16 -46.5q-80 -89 -157 -142t-121 -53q-99 0 -178.5 86.5t-79.5 214.5q0 84 31 143t103 114q-12 16 -17 26t-5 18q0 49 10 83t27 47v12q0 24 6 48t16 45q-52 41 -80 124t-28 200
q0 72 15.5 145t46.5 150q65 64 112.5 90t99.5 31q26 -1 51.5 -9.5t52.5 -24.5zM407 1472q27 -3 45 -12.5t35 -29.5q-42 -97 -81.5 -135t-94.5 -38q-61 0 -111.5 46t-80.5 129q18 15 39 24.5t45 13.5q4 -6 11 -18q45 -74 85 -74q33 0 79 59q18 22 29 35z" />
    <glyph glyph-name="Gdot" unicode="&#x120;" horiz-adv-x="674" 
d="M582 1006l22 -23q1 -41 1.5 -89t0.5 -138q0 -260 -13 -447t-40 -309q-34 -25 -67 -36t-72 -11q-195 0 -281 205.5t-86 679.5q0 375 111 559t338 184h9q4 -15 5.5 -27t1.5 -18q0 -24 -8 -45t-25 -43q-38 -11 -75.5 -29.5t-75.5 -46.5q-53 -71 -77 -196t-24 -340
q0 -202 14 -349t42 -239q15 -44 42 -79.5t66 -66.5l39 17q6 136 9 274t3 277v198q-25 2 -54.5 5t-65.5 8q-6 20 -8.5 33t-2.5 22q0 8 5 36q2 12 4 19q39 8 85.5 11.5t116.5 3.5h60zM414 1693q-18 -4 -35 -6t-33 -2t-33.5 4t-34.5 11q-10 18 -15 39.5t-5 50.5q0 24 1 38t3 27
q3 1 7 1q46 7 63 7q14 0 35 -2t47 -6q8 -25 12 -46t4 -40q0 -16 -4 -34t-12 -42z" />
    <glyph glyph-name="gdot" unicode="&#x121;" horiz-adv-x="596" 
d="M387 -243l2 9q19 86 19 105q0 76 -179 189q-19 12 -28 18q-36 0 -56 -33.5t-20 -93.5q0 -91 46.5 -150t117.5 -59q17 0 76 10q14 3 22 5zM367 565q2 27 3 53.5t1 59.5q0 97 -16.5 177t-49.5 144q-5 1 -11.5 1.5t-14.5 0.5q-41 0 -54.5 -43.5t-13.5 -187.5q0 -111 27 -172
t75 -61q14 0 25.5 6t28.5 22zM429 1127q19 13 40.5 21t46.5 11q17 -10 37 -15t47 -8q3 -11 4.5 -21.5t1.5 -18.5t-3 -20.5t-9 -26.5q-23 -19 -46.5 -34.5t-51.5 -29.5q12 -80 18 -150t6 -122q0 -121 -68.5 -219.5t-162.5 -98.5q-11 0 -16.5 0.5t-10.5 1.5q-12 -26 -19 -48
t-9 -42q41 -56 168 -163q31 -26 47 -40q59 -51 77.5 -88t18.5 -114v-19q0 -34 -5 -57.5t-16 -46.5q-80 -89 -157 -142t-121 -53q-99 0 -178.5 86.5t-79.5 214.5q0 84 31 143t103 114q-12 16 -17 26t-5 18q0 49 10 83t27 47v12q0 24 6 48t16 45q-52 41 -80 124t-28 200
q0 72 15.5 145t46.5 150q65 64 112.5 90t99.5 31q26 -1 51.5 -9.5t52.5 -24.5zM375 1296q-18 -4 -35 -6t-33 -2t-33.5 4t-34.5 11q-10 18 -15 39.5t-5 50.5q0 24 1 38t3 27q3 1 7 1q46 7 63 7q14 0 35 -2t47 -6q8 -25 12 -46t4 -40q0 -16 -4 -34t-12 -42z" />
    <glyph glyph-name="Gcedilla" unicode="&#x122;" horiz-adv-x="674" 
d="M582 1006l22 -23q1 -41 1.5 -89t0.5 -138q0 -260 -13 -447t-40 -309q-34 -25 -67 -36t-72 -11q-195 0 -281 205.5t-86 679.5q0 375 111 559t338 184h9q4 -15 5.5 -27t1.5 -18q0 -24 -8 -45t-25 -43q-38 -11 -75.5 -29.5t-75.5 -46.5q-53 -71 -77 -196t-24 -340
q0 -202 14 -349t42 -239q15 -44 42 -79.5t66 -66.5l39 17q6 136 9 274t3 277v198q-25 2 -54.5 5t-65.5 8q-6 20 -8.5 33t-2.5 22q0 8 5 36q2 12 4 19q39 8 85.5 11.5t116.5 3.5h60zM275 0q16 5 29.5 7.5t23.5 2.5t27 -2t53 -8q-7 -101 -33 -182.5t-76 -153.5q-2 0 -7 -1
q-17 -3 -22 -3q-13 0 -36.5 11t-38.5 12q34 82 53.5 160.5t26.5 156.5z" />
    <glyph glyph-name="gcedilla" unicode="&#x123;" horiz-adv-x="596" 
d="M387 -243l2 9q19 86 19 105q0 76 -179 189q-19 12 -28 18q-36 0 -56 -33.5t-20 -93.5q0 -91 46.5 -150t117.5 -59q17 0 76 10q14 3 22 5zM367 565q2 27 3 53.5t1 59.5q0 97 -16.5 177t-49.5 144q-5 1 -11.5 1.5t-14.5 0.5q-41 0 -54.5 -43.5t-13.5 -187.5q0 -111 27 -172
t75 -61q14 0 25.5 6t28.5 22zM429 1127q19 13 40.5 21t46.5 11q17 -10 37 -15t47 -8q3 -11 4.5 -21.5t1.5 -18.5t-3 -20.5t-9 -26.5q-23 -19 -46.5 -34.5t-51.5 -29.5q12 -80 18 -150t6 -122q0 -121 -68.5 -219.5t-162.5 -98.5q-11 0 -16.5 0.5t-10.5 1.5q-12 -26 -19 -48
t-9 -42q41 -56 168 -163q31 -26 47 -40q59 -51 77.5 -88t18.5 -114v-19q0 -34 -5 -57.5t-16 -46.5q-80 -89 -157 -142t-121 -53q-99 0 -178.5 86.5t-79.5 214.5q0 84 31 143t103 114q-12 16 -17 26t-5 18q0 49 10 83t27 47v12q0 24 6 48t16 45q-52 41 -80 124t-28 200
q0 72 15.5 145t46.5 150q65 64 112.5 90t99.5 31q26 -1 51.5 -9.5t52.5 -24.5zM346 1530q8 1 15.5 1.5t15.5 0.5q15 0 34.5 -6.5t53.5 -22.5q-50 -105 -96.5 -173.5t-85.5 -92.5q-28 3 -49 14.5t-37 32.5q10 17 33 55q68 115 116 191z" />
    <glyph glyph-name="Hcircumflex" unicode="&#x124;" horiz-adv-x="721" 
d="M74 1500q7 29 32 40.5t84 11.5q9 0 18.5 -2.5t28.5 -11.5q8 -143 15 -304.5t8 -176.5h47q42 0 79.5 2t70.5 6v129q0 102 2 185t6 155q27 13 51 19t49 6q16 -1 32 -3t38 -8q-1 -34 -2 -96q-6 -236 -6 -324q0 -124 1 -414t1 -456l-1 -244q-28 -13 -48.5 -18.5t-40.5 -5.5
q-26 0 -81 11q-4 1 -5 1q3 137 4.5 276.5t1.5 280.5q0 124 -0.5 204t-1.5 158l-103 -1q-27 0 -50 -2t-44 -7v-397q0 -145 -5 -275t-15 -247q-26 -8 -51.5 -11t-55.5 -4h-22l-29 19q7 150 10.5 305t3.5 315q0 186 -5.5 405t-16.5 479zM368 1759q-19 -33 -44 -63t-57 -58
q-28 3 -49 12t-38 25q39 45 74.5 105t71.5 143q9 1 25 3q32 5 40 5q15 0 40 -10h1q22 -74 51 -134t65 -110q-17 -20 -35.5 -30t-43.5 -13q-29 20 -53.5 50t-47.5 75z" />
    <glyph glyph-name="hcircumflex" unicode="&#x125;" horiz-adv-x="682" 
d="M72 1501q22 26 55.5 39.5t73.5 13.5q8 0 17 -1.5t20 -4.5q14 -62 21 -127.5t7 -142.5q0 -32 -1.5 -77.5t-4.5 -102.5q67 32 115.5 48.5t77.5 16.5q81 0 117 -104.5t36 -345.5q0 -37 -5 -272.5t-5 -434.5q-28 -9 -51.5 -13.5t-42.5 -4.5q-29 0 -48 8t-32 25
q7 158 10.5 292t3.5 236v129q0 205 -18 261t-68 56q-28 0 -50 -9.5t-44 -31.5q-8 -126 -11 -288.5t-3 -427.5v-222q-25 -10 -48 -15t-44 -5q-18 0 -37 3.5t-39 10.5q-1 38 -1.5 83t-0.5 130q0 249 10 587.5t10 428.5q0 53 -5 115.5t-15 146.5zM176 1747q-19 -33 -44 -63
t-57 -58q-28 3 -49 12t-38 25q39 45 74.5 105t71.5 143q9 1 25 3q32 5 40 5q15 0 40 -10h1q22 -74 51 -134t65 -110q-17 -20 -35.5 -30t-43.5 -13q-29 20 -53.5 50t-47.5 75z" />
    <glyph glyph-name="Hbar" unicode="&#x126;" horiz-adv-x="768" 
d="M276 1219l9 -162h39q33 0 70 2t85 6v154h-203zM98 1499q6 29 32.5 41t84.5 12q12 0 22.5 -3t24.5 -11l10 -219h207q1 14 2 43q3 106 6 171q27 13 51.5 19.5t49.5 6.5q12 0 28.5 -2.5t40.5 -8.5q0 -63 -1.5 -120t-3.5 -109q45 -3 66.5 -4.5t38.5 -3.5q6 -11 8.5 -22.5
t2.5 -24.5t-2 -23t-6 -18q-22 -2 -45 -3t-64 -1q0 -233 1 -634.5t1 -570.5q-24 -11 -46 -16.5t-44 -5.5q-15 0 -33.5 2t-52.5 9q3 140 4.5 279.5t1.5 276.5q0 77 -3 283q0 52 -1 80l-102 -2q-34 0 -56 -2t-36 -7v-397q0 -153 -5.5 -282t-15.5 -238q-22 -9 -48 -13t-58 -4
h-23l-31 19q9 181 13 334.5t4 287.5q0 133 -3 283t-9 318q-30 0 -55 1.5t-46 4.5q-5 8 -7.5 17.5t-2.5 19.5q0 9 3.5 21.5t10.5 28.5q25 4 48 5.5t44 1.5z" />
    <glyph glyph-name="hbar" unicode="&#x127;" horiz-adv-x="682" 
d="M72 1501q23 26 56 39.5t73 13.5q8 0 17 -1.5t20 -4.5q11 -50 17 -92t7 -77q35 -1 68 -5.5t65 -13.5q11 -14 16 -28t5 -32q0 -8 -0.5 -12.5t-2.5 -9.5q-40 -5 -76.5 -8t-70.5 -5q0 -30 -1.5 -72t-4.5 -95q69 33 116 49t77 16q81 0 117 -104.5t36 -345.5q0 -31 -5 -266.5
t-5 -440.5q-28 -9 -51.5 -13.5t-42.5 -4.5q-27 0 -47 8t-33 25q7 146 10.5 279t3.5 249v127q0 205 -18 262t-68 57q-28 0 -51.5 -10t-42.5 -31q-8 -124 -11 -285.5t-3 -428.5v-224q-28 -11 -51 -16.5t-41 -5.5q-14 0 -33 4t-43 12q-1 34 -1.5 75t-0.5 124q0 181 9 535
t11 521l-16 1q-22 0 -41.5 7.5t-36.5 22.5l18 62q26 8 42 11.5t28 4.5q-2 29 -6 61.5t-8 65.5z" />
    <glyph glyph-name="Itilde" unicode="&#x128;" horiz-adv-x="342" 
d="M92 -6l-2 422q-1 176 -2.5 380.5t-1.5 231.5q0 101 1 212t3 267q3 15 10.5 24t20.5 13q11 1 26 2.5t19 1.5q19 0 36.5 -5.5t39.5 -18.5q8 -219 12 -411t4 -365q0 -175 -3 -366t-9 -396q-18 -9 -39 -13t-47 -4h-17zM385 1800q-46 -90 -79 -116.5t-85 -26.5q-38 0 -69 14
t-62 45l-43 -57q-28 8 -47.5 21.5t-32.5 33.5q28 80 54.5 107.5t70.5 27.5h4q26 -9 63 -42.5t66 -33.5h10l74 90q27 -6 44.5 -20.5t31.5 -42.5z" />
    <glyph glyph-name="itilde" unicode="&#x129;" horiz-adv-x="336" 
d="M96 -2q-7 178 -10.5 323t-3.5 275q0 85 3 204t11 339q19 6 37.5 9t36.5 3q19 0 36 -2t35 -6q6 -215 8.5 -408.5t2.5 -374.5q0 -58 -1 -173.5t-1 -171.5q-23 -16 -46 -23.5t-46 -7.5q-13 0 -26 3t-36 11zM381 1403q-46 -90 -79 -116.5t-85 -26.5q-38 0 -69 14t-62 45
l-43 -57q-28 8 -47.5 21.5t-32.5 33.5q28 80 54.5 107.5t70.5 27.5h4q26 -9 63 -42.5t66 -33.5h10l74 90q27 -6 44.5 -20.5t31.5 -42.5z" />
    <glyph glyph-name="Imacron" unicode="&#x12a;" horiz-adv-x="342" 
d="M92 -6l-2 422q-1 176 -2.5 380.5t-1.5 231.5q0 101 1 212t3 267q3 15 10.5 24t20.5 13q11 1 26 2.5t19 1.5q19 0 36.5 -5.5t39.5 -18.5q8 -219 12 -411t4 -365q0 -175 -3 -366t-9 -396q-18 -9 -39 -13t-47 -4h-17zM12 1671q-8 32 -11 47t-3 25q0 14 2 26t6 25
q76 8 122 11t81 3q28 0 59 -3.5t69 -10.5q1 -2 2 -7q7 -38 7 -55q0 -19 -5 -36t-15 -31q-27 4 -54 6t-69 2q-32 0 -95.5 -1t-95.5 -1z" />
    <glyph glyph-name="imacron" unicode="&#x12b;" horiz-adv-x="336" 
d="M96 -2q-7 178 -10.5 323t-3.5 275q0 85 3 204t11 339q19 6 37.5 9t36.5 3q19 0 36 -2t35 -6q6 -215 8.5 -408.5t2.5 -374.5q0 -58 -1 -173.5t-1 -171.5q-23 -16 -46 -23.5t-46 -7.5q-13 0 -26 3t-36 11zM8 1274q-8 32 -11 47t-3 25q0 14 2 26t6 25q76 8 122 11t81 3
q28 0 59 -3.5t69 -10.5q1 -2 2 -7q7 -38 7 -55q0 -19 -5 -36t-15 -31q-27 4 -54 6t-69 2q-32 0 -95.5 -1t-95.5 -1z" />
    <glyph glyph-name="Ibreve" unicode="&#x12c;" horiz-adv-x="342" 
d="M92 -6l-2 422q-1 176 -2.5 380.5t-1.5 231.5q0 101 1 212t3 267q3 15 10.5 24t20.5 13q11 1 26 2.5t19 1.5q19 0 36.5 -5.5t39.5 -18.5q8 -219 12 -411t4 -365q0 -175 -3 -366t-9 -396q-18 -9 -39 -13t-47 -4h-17zM280 1869q27 -3 45 -12.5t35 -29.5q-42 -97 -81.5 -135
t-94.5 -38q-61 0 -111.5 46t-80.5 129q18 15 39 24.5t45 13.5q4 -6 11 -18q45 -74 85 -74q33 0 79 59q18 22 29 35z" />
    <glyph glyph-name="ibreve" unicode="&#x12d;" horiz-adv-x="336" 
d="M96 -2q-7 178 -10.5 323t-3.5 275q0 85 3 204t11 339q19 6 37.5 9t36.5 3q19 0 36 -2t35 -6q6 -215 8.5 -408.5t2.5 -374.5q0 -58 -1 -173.5t-1 -171.5q-23 -16 -46 -23.5t-46 -7.5q-13 0 -26 3t-36 11zM276 1472q27 -3 45 -12.5t35 -29.5q-42 -97 -81.5 -135t-94.5 -38
q-61 0 -111.5 46t-80.5 129q18 15 39 24.5t45 13.5q4 -6 11 -18q45 -74 85 -74q33 0 79 59q18 22 29 35z" />
    <glyph glyph-name="Iogonek" unicode="&#x12e;" horiz-adv-x="342" 
d="M92 -6l-2 422q-1 176 -2.5 380.5t-1.5 231.5q0 101 1 212t3 267q3 15 10.5 24t20.5 13q11 1 26 2.5t19 1.5q19 0 36.5 -5.5t39.5 -18.5q8 -219 12 -411t4 -365q0 -175 -3 -366t-9 -396q-18 -9 -39 -13t-47 -4h-17zM233 31q-38 -65 -57.5 -141t-19.5 -156v-23
q12 1 24.5 1.5t30.5 0.5q17 0 59 -3q10 0 17 -1q9 -20 12.5 -34t3.5 -27q0 -10 -2 -24t-6 -30q-44 -17 -80 -25.5t-68 -8.5q-14 0 -27 0.5t-26 1.5q-36 32 -51.5 65t-15.5 74q0 70 42.5 163.5t110.5 166.5h53z" />
    <glyph glyph-name="iogonek" unicode="&#x12f;" horiz-adv-x="336" 
d="M82 1456q24 6 47.5 9t44.5 3q11 0 31 -4t45 -12q9 -28 13.5 -47.5t4.5 -32.5t-4.5 -30t-15.5 -45q-27 -8 -49 -11.5t-37 -3.5q-12 0 -30.5 3.5t-47.5 10.5q-8 29 -12 50t-4 36q0 10 2.5 24t11.5 50zM96 -2q-7 178 -10.5 323t-3.5 275q0 85 3 204t11 339q19 6 37.5 9
t36.5 3q19 0 36 -2t35 -6q6 -215 8.5 -408.5t2.5 -374.5q0 -58 -1 -173.5t-1 -171.5q-23 -16 -46 -23.5t-46 -7.5q-13 0 -26 3t-36 11zM229 31q-38 -65 -57.5 -141t-19.5 -156v-23q12 1 24.5 1.5t30.5 0.5q17 0 59 -3q10 0 17 -1q9 -20 12.5 -34t3.5 -27q0 -10 -2 -24
t-6 -30q-44 -17 -80 -25.5t-68 -8.5q-14 0 -27 0.5t-26 1.5q-36 32 -51.5 65t-15.5 74q0 70 42.5 163.5t110.5 166.5h53z" />
    <glyph glyph-name="Idotaccent" unicode="&#x130;" horiz-adv-x="342" 
d="M92 -6l-2 422q-1 176 -2.5 380.5t-1.5 231.5q0 101 1 212t3 267q3 15 10.5 24t20.5 13q11 1 26 2.5t19 1.5q19 0 36.5 -5.5t39.5 -18.5q8 -219 12 -411t4 -365q0 -175 -3 -366t-9 -396q-18 -9 -39 -13t-47 -4h-17zM248 1693q-18 -4 -35 -6t-33 -2t-33.5 4t-34.5 11
q-10 18 -15 39.5t-5 50.5q0 24 1 38t3 27q3 1 7 1q46 7 63 7q14 0 35 -2t47 -6q8 -25 12 -46t4 -40q0 -16 -4 -34t-12 -42z" />
    <glyph glyph-name="dotlessi" unicode="&#x131;" horiz-adv-x="336" 
d="M96 -2q-7 178 -10.5 323t-3.5 275q0 85 3 204t11 339q19 6 37.5 9t36.5 3q19 0 36 -2t35 -6q6 -215 8.5 -408.5t2.5 -374.5q0 -58 -1 -173.5t-1 -171.5q-23 -16 -46 -23.5t-46 -7.5q-13 0 -26 3t-36 11z" />
    <glyph glyph-name="IJ" unicode="&#x132;" horiz-adv-x="854" 
d="M461 109q2 -1 8 -3q20 -6 25 -6q60 0 85 177t25 643q0 121 -4 260t-14 331q24 25 43 34t43 9q16 0 35.5 -4t42.5 -12q12 -155 18 -305.5t6 -294.5q0 -599 -60.5 -781t-226.5 -182q-80 0 -130 53.5t-50 139.5q0 8 4.5 20.5t12.5 24.5q17 7 29.5 9.5t27.5 2.5q8 0 23 -3
t34 -9q2 -31 7.5 -56.5t15.5 -47.5zM92 -6l-2 422q-1 176 -2.5 380.5t-1.5 231.5q0 101 1 212t3 267q3 15 10.5 24t20.5 13q11 1 26 2.5t19 1.5q19 0 36.5 -5.5t39.5 -18.5q8 -219 12 -411t4 -365q0 -175 -3 -366t-9 -396q-18 -9 -39 -13t-47 -4h-17z" />
    <glyph glyph-name="ij" unicode="&#x133;" horiz-adv-x="674" 
d="M78 1444q30 8 48.5 12t27.5 4q14 0 33 -3t51 -11q8 -25 12 -44.5t4 -35.5q0 -12 -3 -32t-9 -49q-24 -12 -43.5 -17.5t-34.5 -5.5q-11 0 -28 3.5t-48 12.5q-12 37 -16 55.5t-4 32.5q0 16 2.5 35.5t7.5 42.5zM588 1456q7 -24 10.5 -42.5t3.5 -31.5q0 -14 -4 -34.5
t-12 -51.5q-29 -7 -47.5 -10.5t-30.5 -3.5q-16 0 -39 4t-47 10q-11 28 -16 46t-5 30q0 17 17 74l2 6q24 8 45 12t33 4q19 0 41 -3t49 -9zM96 -2q-7 178 -10.5 323t-3.5 275q0 85 3 204t11 339q19 6 37.5 9t36.5 3q19 0 36 -2t35 -6q6 -215 8.5 -408.5t2.5 -374.5
q0 -58 -1 -173.5t-1 -171.5q-23 -16 -46 -23.5t-46 -7.5q-13 0 -26 3t-36 11zM424 1138q17 9 32.5 13t30.5 4t57 -7q21 -3 33 -5q9 -371 14 -669.5t5 -393.5q0 -233 -61.5 -319t-221.5 -101q-21 17 -31 43t-10 66q0 17 0.5 26t2.5 19q21 5 46.5 13t75.5 26q17 43 24 131
t7 254q0 129 -3 347.5t-3 309.5q0 88 0.5 141t1.5 102z" />
    <glyph glyph-name="Jcircumflex" unicode="&#x134;" horiz-adv-x="500" 
d="M106 109l9 -3q19 -6 24 -6q61 0 86 177t25 643q0 121 -4.5 260t-14.5 331q25 25 44 34t42 9q16 0 34.5 -4t41.5 -12q14 -170 20.5 -318.5t6.5 -281.5q0 -599 -61 -781t-226 -182q-79 0 -129.5 53t-50.5 134q0 13 4 25.5t12 25.5q16 6 29.5 9t28.5 3q8 0 23 -3t34 -9
q2 -32 7 -57t15 -47zM315 1759q-19 -33 -44 -63t-57 -58q-28 3 -49 12t-38 25q39 45 74.5 105t71.5 143q9 1 25 3q32 5 40 5q15 0 40 -10h1q22 -74 51 -134t65 -110q-17 -20 -35.5 -30t-43.5 -13q-29 20 -53.5 50t-47.5 75z" />
    <glyph glyph-name="jcircumflex" unicode="&#x135;" horiz-adv-x="342" 
d="M92 1138q17 9 32.5 13t31.5 4q14 0 57 -7q20 -3 32 -5q9 -371 14 -669.5t5 -393.5q0 -233 -61.5 -319t-220.5 -101q-22 19 -31.5 44t-9.5 65q0 17 0.5 26.5t1.5 18.5q30 8 60 17.5t60 21.5q18 45 25.5 136.5t7.5 248.5q0 129 -3 347.5t-3 309.5q0 87 0.5 140t1.5 103z
M180 1362q-19 -33 -44 -63t-57 -58q-28 3 -49 12t-38 25q39 45 74.5 105t71.5 143q9 1 25 3q32 5 40 5q15 0 40 -10h1q22 -74 51 -134t65 -110q-17 -20 -35.5 -30t-43.5 -13q-29 20 -53.5 50t-47.5 75z" />
    <glyph glyph-name="Kcedilla" unicode="&#x136;" horiz-adv-x="698" 
d="M246 950q111 218 176 361.5t88 220.5l57 -2q32 -6 51.5 -20t32.5 -39q-46 -132 -107.5 -260t-140.5 -257q68 -264 143.5 -485t153.5 -385v-6q0 -34 -18 -56.5t-76 -52.5l-61 8q-64 136 -138 376.5t-161 596.5zM59 2q9 134 13 289.5t4 462.5q0 288 -3 463t-10 301l38 20
q24 5 36.5 6.5t22.5 1.5q16 0 33.5 -7t35.5 -21q5 -184 8 -387.5t3 -417.5q0 -213 -3.5 -377.5t-11.5 -319.5q-14 -20 -26.5 -27t-34.5 -7q-21 0 -46.5 5t-58.5 15zM344 -457l-64 27q18 40 28 80t13 82q-23 37 -38 70.5t-23 64.5q34 20 60 29.5t48 9.5q9 0 37 -3q6 -1 8 -1
q15 -28 22 -56t7 -59q0 -60 -22.5 -117t-75.5 -127z" />
    <glyph glyph-name="kcedilla" unicode="&#x137;" horiz-adv-x="627" 
d="M242 801q21 37 58 106q118 220 181 268q44 -8 75.5 -30.5t59.5 -67.5q-78 -73 -186 -233q-47 -70 -72 -103l271 -688q-32 -37 -69.5 -54.5t-90.5 -18.5l-227 665q1 -233 5 -408t11 -323q-49 -9 -69 -11.5t-33 -2.5q-23 0 -41.5 3t-38.5 11q1 134 2.5 385t1.5 322
q0 234 -4.5 461t-13.5 444q32 13 54 18.5t42 5.5t42.5 -4t49.5 -12q-4 -147 -6 -326.5t-2 -406.5zM307 -457l-64 27q18 40 28 80t13 82q-23 37 -38 70.5t-23 64.5q34 20 60 29.5t48 9.5q9 0 37 -3q6 -1 8 -1q15 -28 22 -56t7 -59q0 -60 -22.5 -117t-75.5 -127z" />
    <glyph glyph-name="kra" unicode="&#x138;" horiz-adv-x="627" 
d="M242 801q17 30 48 87q131 241 191 288q42 -8 75.5 -32t59.5 -67q-67 -60 -182 -228q-49 -71 -76 -108l271 -688q-28 -35 -68 -53.5t-92 -19.5l-227 665q0 -212 4 -368t12 -273q-31 -7 -57 -10.5t-45 -3.5t-39 4t-41 12v6q4 252 4 375q0 193 -4.5 378.5t-13.5 363.5
q27 11 51 16.5t45 5.5t44 -4.5t47 -13.5q-3 -107 -7 -315v-17z" />
    <glyph glyph-name="Lacute" unicode="&#x139;" horiz-adv-x="588" 
d="M265 1556l22 -18q-15 -228 -22 -441t-7 -411q0 -164 6.5 -303t20.5 -266l30 3q167 15 178 39l7 1q14 0 29.5 -6t37.5 -21q15 -16 22 -34.5t7 -41.5q0 -4 -1 -11t-1 -11q-48 -29 -116.5 -46t-174.5 -26q-75 16 -118 37.5t-72 56.5q-12 197 -17.5 381t-5.5 361
q0 190 8 372.5t25 360.5q16 16 34.5 23.5t45.5 7.5q15 0 30 -1.5t32 -5.5zM262 1927q8 1 15.5 1.5t15.5 0.5q15 0 34.5 -6.5t53.5 -22.5q-50 -105 -96.5 -173.5t-85.5 -92.5q-28 3 -49 14.5t-37 32.5q10 17 33 55q68 115 116 191z" />
    <glyph glyph-name="lacute" unicode="&#x13a;" horiz-adv-x="326" 
d="M252 1533q-4 -146 -6 -278.5t-2 -242.5q0 -382 3.5 -609.5t12.5 -402.5q-42 -8 -66.5 -11t-41.5 -3t-34 3.5t-42 12.5q2 170 3 322.5t1 285.5q0 236 -4.5 465t-13.5 451q31 13 54.5 18.5t43.5 5.5t42 -3.5t50 -13.5zM211 1915q8 1 15.5 1.5t15.5 0.5q15 0 34.5 -6.5
t53.5 -22.5q-50 -105 -96.5 -173.5t-85.5 -92.5q-28 3 -49 14.5t-37 32.5q10 17 33 55q68 115 116 191z" />
    <glyph glyph-name="Lcedilla" unicode="&#x13b;" horiz-adv-x="588" 
d="M265 1556l22 -18q-15 -228 -22 -441t-7 -411q0 -164 6.5 -303t20.5 -266l30 3q167 15 178 39l7 1q14 0 29.5 -6t37.5 -21q15 -16 22 -34.5t7 -41.5q0 -4 -1 -11t-1 -11q-48 -29 -116.5 -46t-174.5 -26q-75 16 -118 37.5t-72 56.5q-12 197 -17.5 381t-5.5 361
q0 190 8 372.5t25 360.5q16 16 34.5 23.5t45.5 7.5q15 0 30 -1.5t32 -5.5zM289 -457l-64 27q18 40 28 80t13 82q-23 37 -38 70.5t-23 64.5q34 20 60 29.5t48 9.5q9 0 37 -3q6 -1 8 -1q15 -28 22 -56t7 -59q0 -60 -22.5 -117t-75.5 -127z" />
    <glyph glyph-name="lcedilla" unicode="&#x13c;" horiz-adv-x="326" 
d="M252 1533q-4 -146 -6 -278.5t-2 -242.5q0 -382 3.5 -609.5t12.5 -402.5q-42 -8 -66.5 -11t-41.5 -3t-34 3.5t-42 12.5q2 170 3 322.5t1 285.5q0 236 -4.5 465t-13.5 451q31 13 54.5 18.5t43.5 5.5t42 -3.5t50 -13.5zM158 -457l-64 27q18 40 28 80t13 82q-23 37 -38 70.5
t-23 64.5q34 20 60 29.5t48 9.5q9 0 37 -3q6 -1 8 -1q15 -28 22 -56t7 -59q0 -60 -22.5 -117t-75.5 -127z" />
    <glyph glyph-name="Lcaron" unicode="&#x13d;" horiz-adv-x="588" 
d="M265 1556l22 -18q-15 -228 -22 -441t-7 -411q0 -164 6.5 -303t20.5 -266l30 3q167 15 178 39l7 1q14 0 29.5 -6t37.5 -21q15 -16 22 -34.5t7 -41.5q0 -4 -1 -11t-1 -11q-48 -29 -116.5 -46t-174.5 -26q-75 16 -118 37.5t-72 56.5q-12 197 -17.5 381t-5.5 361
q0 190 8 372.5t25 360.5q16 16 34.5 23.5t45.5 7.5q15 0 30 -1.5t32 -5.5zM479 1137q-28 0 -51.5 6.5t-46.5 19.5l9 48q46 234 46 325v12l21 13q5 0 16 1t14 1q36 0 62 -7t47 -22q-13 -94 -42 -192.5t-75 -204.5z" />
    <glyph glyph-name="lcaron" unicode="&#x13e;" horiz-adv-x="543" 
d="M252 1533q-4 -146 -6 -278.5t-2 -242.5q0 -382 3.5 -609.5t12.5 -402.5q-42 -8 -66.5 -11t-41.5 -3t-34 3.5t-42 12.5q2 170 3 322.5t1 285.5q0 236 -4.5 465t-13.5 451q31 13 54.5 18.5t43.5 5.5t42 -3.5t50 -13.5zM424 1137q-28 0 -51.5 6.5t-46.5 20.5q3 15 9 47
q46 234 46 325v12l21 13q5 0 16 1t14 1q36 0 62.5 -7t48.5 -22q-15 -95 -44.5 -193.5t-74.5 -203.5z" />
    <glyph glyph-name="Ldot" unicode="&#x13f;" horiz-adv-x="946" 
d="M265 1556l22 -18q-15 -228 -22 -441t-7 -411q0 -164 6.5 -303t20.5 -266l30 3q167 15 178 39l7 1q14 0 29.5 -6t37.5 -21q15 -16 22 -34.5t7 -41.5q0 -4 -1 -11t-1 -11q-48 -29 -116.5 -46t-174.5 -26q-75 16 -118 37.5t-72 56.5q-12 197 -17.5 381t-5.5 361
q0 190 8 372.5t25 360.5q16 16 34.5 23.5t45.5 7.5q15 0 30 -1.5t32 -5.5zM664 569q0 42 30.5 72.5t71.5 30.5q43 0 73 -30t30 -73q0 -42 -30.5 -72t-72.5 -30q-40 0 -71 31t-31 71z" />
    <glyph glyph-name="ldot" unicode="&#x140;" horiz-adv-x="684" 
d="M252 1533q-4 -146 -6 -278.5t-2 -242.5q0 -382 3.5 -609.5t12.5 -402.5q-42 -8 -66.5 -11t-41.5 -3t-34 3.5t-42 12.5q2 170 3 322.5t1 285.5q0 236 -4.5 465t-13.5 451q31 13 54.5 18.5t43.5 5.5t42 -3.5t50 -13.5zM402 569q0 42 30.5 72.5t71.5 30.5q43 0 73 -30
t30 -73q0 -42 -30.5 -72t-72.5 -30q-40 0 -71 31t-31 71z" />
    <glyph glyph-name="Lslash" unicode="&#x141;" horiz-adv-x="602" 
d="M279 1556l22 -18q-8 -127 -15 -269t-11 -308q35 22 70.5 42t76.5 41q20 -9 29.5 -21.5t9.5 -31.5q0 -7 -1.5 -16t-4.5 -20q-39 -34 -84.5 -69t-96.5 -71q0 -19 -1 -81.5t-1 -106.5q0 -135 7 -261.5t20 -248.5l30 3q168 16 179 40h6q15 0 30.5 -6t37.5 -21
q14 -16 21 -34.5t7 -41.5q0 -4 -1 -11t-1 -11q-48 -29 -116.5 -46t-174.5 -26q-75 16 -117.5 37.5t-72.5 56.5q-10 170 -15.5 333t-7.5 322q-23 -16 -45 -28.5t-43 -21.5q-17 16 -26.5 35.5t-13.5 46.5q11 10 53.5 47.5t72.5 64.5q2 163 10.5 331.5t24.5 344.5
q16 16 34.5 23.5t45.5 7.5q15 0 31 -2t31 -5z" />
    <glyph glyph-name="lslash" unicode="&#x142;" horiz-adv-x="362" 
d="M270 1534q-4 -149 -6 -324.5t-2 -393.5q20 11 41.5 19.5t50.5 16.5q21 -12 29.5 -27.5t9.5 -44.5q-39 -28 -109 -78l-22 -16q2 -214 6 -388t11 -298q-42 -8 -66.5 -11t-42.5 -3q-16 0 -33 3.5t-43 12.5q1 36 1 103q3 257 3 354v20q-2 63 -2 119q-20 -14 -40.5 -24
t-43.5 -17q-14 15 -23 31t-16 41q38 34 67 57t56 41q-1 87 -2 250q-3 384 -12 549q32 13 54 18.5t42 5.5q21 0 42.5 -3.5t49.5 -12.5z" />
    <glyph glyph-name="Nacute" unicode="&#x143;" horiz-adv-x="705" 
d="M211 1532q65 -174 129 -326t133 -297q0 13 -1 38q-3 131 -3 183q0 92 1 194t3 216q5 2 9 5.5t14 13.5l60 1q18 -3 36 -9t35 -15q2 -168 3 -274.5t1 -200.5q0 -353 -5.5 -630.5t-15.5 -457.5q-20 -5 -36 -11.5t-29 -14.5q-5 0 -12.5 -1t-10.5 -1q-16 0 -32 3.5t-35 12.5
q4 225 6 374.5t2 285.5q-81 159 -138.5 277t-93.5 200q4 -232 6.5 -423t2.5 -308q0 -86 -1.5 -181t-5.5 -201q-19 -8 -37.5 -12t-35.5 -4q-19 0 -37 6t-39 19q-3 308 -4.5 590.5t-1.5 539.5v402q11 8 22.5 12t22.5 4q19 0 40.5 -2.5t47.5 -7.5zM399 1927q8 1 15.5 1.5
t15.5 0.5q15 0 34.5 -6.5t53.5 -22.5q-50 -105 -96.5 -173.5t-85.5 -92.5q-28 3 -49 14.5t-37 32.5q10 17 33 55q68 115 116 191z" />
    <glyph glyph-name="nacute" unicode="&#x144;" horiz-adv-x="649" 
d="M55 1067q27 31 61.5 48t80.5 21l18 -57q41 17 84 36.5t88 41.5q9 2 18.5 3t22.5 1q75 0 109 -63.5t34 -206.5v-234q0 -214 4 -367.5t13 -266.5q-25 -17 -48.5 -25t-50.5 -8q-23 0 -46.5 6.5t-49.5 19.5q6 145 9.5 283t3.5 270v43q0 254 -16.5 311.5t-63.5 57.5
q-29 0 -54.5 -15.5t-40.5 -41.5q7 -121 10 -242.5t3 -247.5q0 -78 -1 -214.5t-1 -194.5q-15 -19 -35 -27t-53 -8q-26 0 -49 6t-48 20q11 178 16 349t5 337q0 122 -5.5 205.5t-17.5 159.5zM373 1530q8 1 15.5 1.5t15.5 0.5q15 0 34.5 -6.5t53.5 -22.5q-50 -105 -96.5 -173.5
t-85.5 -92.5q-28 3 -49 14.5t-37 32.5q10 17 33 55q68 115 116 191z" />
    <glyph glyph-name="Ncedilla" unicode="&#x145;" horiz-adv-x="705" 
d="M211 1532q65 -174 129 -326t133 -297q0 13 -1 38q-3 131 -3 183q0 92 1 194t3 216q5 2 9 5.5t14 13.5l60 1q18 -3 36 -9t35 -15q2 -168 3 -274.5t1 -200.5q0 -353 -5.5 -630.5t-15.5 -457.5q-20 -5 -36 -11.5t-29 -14.5q-5 0 -12.5 -1t-10.5 -1q-16 0 -32 3.5t-35 12.5
q4 225 6 374.5t2 285.5q-81 159 -138.5 277t-93.5 200q4 -232 6.5 -423t2.5 -308q0 -86 -1.5 -181t-5.5 -201q-19 -8 -37.5 -12t-35.5 -4q-19 0 -37 6t-39 19q-3 308 -4.5 590.5t-1.5 539.5v402q11 8 22.5 12t22.5 4q19 0 40.5 -2.5t47.5 -7.5zM346 -457l-64 27q18 40 28 80
t13 82q-23 37 -38 70.5t-23 64.5q34 20 60 29.5t48 9.5q9 0 37 -3q6 -1 8 -1q15 -28 22 -56t7 -59q0 -60 -22.5 -117t-75.5 -127z" />
    <glyph glyph-name="ncedilla" unicode="&#x146;" horiz-adv-x="649" 
d="M55 1067q27 31 61.5 48t80.5 21l18 -57q41 17 84 36.5t88 41.5q9 2 18.5 3t22.5 1q75 0 109 -63.5t34 -206.5v-234q0 -214 4 -367.5t13 -266.5q-25 -17 -48.5 -25t-50.5 -8q-23 0 -46.5 6.5t-49.5 19.5q6 145 9.5 283t3.5 270v43q0 254 -16.5 311.5t-63.5 57.5
q-29 0 -54.5 -15.5t-40.5 -41.5q7 -121 10 -242.5t3 -247.5q0 -78 -1 -214.5t-1 -194.5q-15 -19 -35 -27t-53 -8q-26 0 -49 6t-48 20q11 178 16 349t5 337q0 122 -5.5 205.5t-17.5 159.5zM320 -457l-64 27q18 40 28 80t13 82q-23 37 -38 70.5t-23 64.5q34 20 60 29.5t48 9.5
q9 0 37 -3q6 -1 8 -1q15 -28 22 -56t7 -59q0 -60 -22.5 -117t-75.5 -127z" />
    <glyph glyph-name="Ncaron" unicode="&#x147;" horiz-adv-x="705" 
d="M211 1532q65 -174 129 -326t133 -297q0 13 -1 38q-3 131 -3 183q0 92 1 194t3 216q5 2 9 5.5t14 13.5l60 1q18 -3 36 -9t35 -15q2 -168 3 -274.5t1 -200.5q0 -353 -5.5 -630.5t-15.5 -457.5q-20 -5 -36 -11.5t-29 -14.5q-5 0 -12.5 -1t-10.5 -1q-16 0 -32 3.5t-35 12.5
q4 225 6 374.5t2 285.5q-81 159 -138.5 277t-93.5 200q4 -232 6.5 -423t2.5 -308q0 -86 -1.5 -181t-5.5 -201q-19 -8 -37.5 -12t-35.5 -4q-19 0 -37 6t-39 19q-3 308 -4.5 590.5t-1.5 539.5v402q11 8 22.5 12t22.5 4q19 0 40.5 -2.5t47.5 -7.5zM352 1804q19 33 44.5 64.5
t56.5 58.5q26 -3 47.5 -12.5t39.5 -26.5q-42 -48 -77 -107.5t-68 -138.5q-23 -4 -38.5 -6t-22.5 -2q-11 0 -22 2.5t-23 7.5q-22 71 -51 130t-66 112q17 20 35.5 30t43.5 13q29 -20 53.5 -50.5t47.5 -74.5z" />
    <glyph glyph-name="ncaron" unicode="&#x148;" horiz-adv-x="649" 
d="M55 1067q27 31 61.5 48t80.5 21l18 -57q41 17 84 36.5t88 41.5q9 2 18.5 3t22.5 1q75 0 109 -63.5t34 -206.5v-234q0 -214 4 -367.5t13 -266.5q-25 -17 -48.5 -25t-50.5 -8q-23 0 -46.5 6.5t-49.5 19.5q6 145 9.5 283t3.5 270v43q0 254 -16.5 311.5t-63.5 57.5
q-29 0 -54.5 -15.5t-40.5 -41.5q7 -121 10 -242.5t3 -247.5q0 -78 -1 -214.5t-1 -194.5q-15 -19 -35 -27t-53 -8q-26 0 -49 6t-48 20q11 178 16 349t5 337q0 122 -5.5 205.5t-17.5 159.5zM326 1407q19 33 44.5 64.5t56.5 58.5q26 -3 47.5 -12.5t39.5 -26.5
q-42 -48 -77 -107.5t-68 -138.5q-23 -4 -38.5 -6t-22.5 -2q-11 0 -22 2.5t-23 7.5q-22 71 -51 130t-66 112q17 20 35.5 30t43.5 13q29 -20 53.5 -50.5t47.5 -74.5z" />
    <glyph glyph-name="quoten" unicode="&#x149;" horiz-adv-x="866" 
d="M98 1137q-28 0 -51.5 6.5t-46.5 20.5q3 15 9 47q46 234 46 325v12l21 13q5 0 16 1t14 1q36 0 62.5 -7t48.5 -22q-15 -95 -44.5 -193.5t-74.5 -203.5zM272 1067q27 31 61.5 48t80.5 21l18 -57q41 17 84 36.5t88 41.5q9 2 18.5 3t22.5 1q75 0 109 -63.5t34 -206.5v-234
q0 -214 4 -367.5t13 -266.5q-25 -17 -48.5 -25t-50.5 -8q-23 0 -46.5 6.5t-49.5 19.5q6 145 9.5 283t3.5 270v43q0 254 -16.5 311.5t-63.5 57.5q-29 0 -54.5 -15.5t-40.5 -41.5q7 -121 10 -242.5t3 -247.5q0 -78 -1 -214.5t-1 -194.5q-15 -19 -35 -27t-53 -8q-26 0 -49 6
t-48 20q11 178 16 349t5 337q0 122 -5.5 205.5t-17.5 159.5z" />
    <glyph glyph-name="Eng" unicode="&#x14a;" horiz-adv-x="705" 
d="M211 1532q65 -174 129 -326t133 -296q-2 70 -3 125.5t-1 109.5q0 97 3 334q1 41 1 61q5 2 9 5.5t14 13.5l60 1q15 -3 33 -9t38 -15v-60q4 -276 4 -391q0 -640 -8 -892.5t-27 -335.5q-24 -108 -80.5 -163.5t-140.5 -55.5q-32 0 -55.5 8t-40.5 26q9 41 22 64t30 32
q13 -4 20 -6t11 -2q58 0 79.5 137t21.5 724q-66 129 -124.5 250t-107.5 227q4 -226 6.5 -409t2.5 -292q0 -104 -1.5 -206.5t-5.5 -205.5q-17 -8 -35.5 -12t-37.5 -4q-18 0 -35.5 6t-40.5 19q-3 297 -4.5 580t-1.5 550v402q11 8 22.5 12t22.5 4q18 0 38.5 -2.5t49.5 -7.5z
" />
    <glyph glyph-name="eng" unicode="&#x14b;" horiz-adv-x="649" 
d="M55 1067q25 30 60 47.5t82 21.5l18 -57q41 17 84 36.5t88 41.5q2 0 6 1q22 3 33 3q77 0 111 -62.5t34 -207.5v-512q0 -56 1 -168t1 -168q0 -201 -62.5 -285t-217.5 -98q-22 16 -32.5 44t-10.5 71q0 15 0.5 23.5t1.5 14.5q41 12 70 21t53 19q16 45 24.5 140t8.5 245
q0 258 -2 399.5t-7 200.5q-5 91 -20.5 117t-52.5 26q-30 0 -54.5 -15t-40.5 -42q7 -108 10 -249.5t3 -318.5q0 -129 -0.5 -199t-2.5 -133q-13 -18 -35 -27t-52 -9q-24 0 -47 7t-50 21q11 172 16 343t5 343q0 123 -5.5 206.5t-17.5 158.5z" />
    <glyph glyph-name="Omacron" unicode="&#x14c;" horiz-adv-x="694" 
d="M270 1374q-23 -81 -33 -208.5t-10 -366.5q0 -284 17 -432.5t55 -221.5h6q86 0 125 156t39 500q0 331 -32 465.5t-107 134.5q-16 0 -31 -7t-29 -20zM291 -23q-119 0 -181.5 211.5t-62.5 616.5q0 295 27.5 429t93.5 220q45 59 85.5 83t96.5 24q148 0 222.5 -185t74.5 -553
q0 -284 -35 -456.5t-110 -262.5q-50 -60 -105.5 -93.5t-105.5 -33.5zM188 1671q-8 32 -11 47t-3 25q0 14 2 26t6 25q76 8 122 11t81 3q28 0 59 -3.5t69 -10.5q1 -2 2 -7q7 -38 7 -55q0 -19 -5 -36t-15 -31q-27 4 -54 6t-69 2q-32 0 -95.5 -1t-95.5 -1z" />
    <glyph glyph-name="omacron" unicode="&#x14d;" horiz-adv-x="592" 
d="M297 1010q-41 -19 -61.5 -123.5t-20.5 -298.5q0 -252 18 -349.5t62 -97.5q46 0 64 97t18 376q0 207 -18.5 297t-61.5 99zM49 535q0 314 73.5 470t221.5 156q103 0 151 -131.5t48 -415.5q0 -289 -80 -464t-209 -175q-110 0 -157.5 128.5t-47.5 431.5zM153 1274
q-8 32 -11 47t-3 25q0 14 2 26t6 25q76 8 122 11t81 3q28 0 59 -3.5t69 -10.5q1 -2 2 -7q7 -38 7 -55q0 -19 -5 -36t-15 -31q-27 4 -54 6t-69 2q-32 0 -95.5 -1t-95.5 -1z" />
    <glyph glyph-name="Obreve" unicode="&#x14e;" horiz-adv-x="694" 
d="M270 1374q-23 -81 -33 -208.5t-10 -366.5q0 -284 17 -432.5t55 -221.5h6q86 0 125 156t39 500q0 331 -32 465.5t-107 134.5q-16 0 -31 -7t-29 -20zM291 -23q-119 0 -181.5 211.5t-62.5 616.5q0 295 27.5 429t93.5 220q45 59 85.5 83t96.5 24q148 0 222.5 -185t74.5 -553
q0 -284 -35 -456.5t-110 -262.5q-50 -60 -105.5 -93.5t-105.5 -33.5zM456 1869q27 -3 45 -12.5t35 -29.5q-42 -97 -81.5 -135t-94.5 -38q-61 0 -111.5 46t-80.5 129q18 15 39 24.5t45 13.5q4 -6 11 -18q45 -74 85 -74q33 0 79 59q18 22 29 35z" />
    <glyph glyph-name="obreve" unicode="&#x14f;" horiz-adv-x="592" 
d="M297 1010q-41 -19 -61.5 -123.5t-20.5 -298.5q0 -252 18 -349.5t62 -97.5q46 0 64 97t18 376q0 207 -18.5 297t-61.5 99zM49 535q0 314 73.5 470t221.5 156q103 0 151 -131.5t48 -415.5q0 -289 -80 -464t-209 -175q-110 0 -157.5 128.5t-47.5 431.5zM421 1472
q27 -3 45 -12.5t35 -29.5q-42 -97 -81.5 -135t-94.5 -38q-61 0 -111.5 46t-80.5 129q18 15 39 24.5t45 13.5q4 -6 11 -18q45 -74 85 -74q33 0 79 59q18 22 29 35z" />
    <glyph glyph-name="Odblacute" unicode="&#x150;" horiz-adv-x="694" 
d="M270 1374q-23 -81 -33 -208.5t-10 -366.5q0 -284 17 -432.5t55 -221.5h6q86 0 125 156t39 500q0 331 -32 465.5t-107 134.5q-16 0 -31 -7t-29 -20zM291 -23q-119 0 -181.5 211.5t-62.5 616.5q0 295 27.5 429t93.5 220q45 59 85.5 83t96.5 24q148 0 222.5 -185t74.5 -553
q0 -284 -35 -456.5t-110 -262.5q-50 -60 -105.5 -93.5t-105.5 -33.5zM495 1926q7 2 12.5 2.5t12.5 0.5q13 0 29.5 -6.5t42.5 -22.5q-40 -105 -79 -174t-71 -92q-23 5 -39 16t-30 31zM291 1927q6 1 11.5 1.5t12.5 0.5q13 0 29.5 -6.5t42.5 -22.5q-40 -105 -79 -174t-71 -92
q-23 5 -39 16t-30 31z" />
    <glyph glyph-name="odblacute" unicode="&#x151;" horiz-adv-x="592" 
d="M297 1010q-41 -19 -61.5 -123.5t-20.5 -298.5q0 -252 18 -349.5t62 -97.5q46 0 64 97t18 376q0 207 -18.5 297t-61.5 99zM49 535q0 314 73.5 470t221.5 156q103 0 151 -131.5t48 -415.5q0 -289 -80 -464t-209 -175q-110 0 -157.5 128.5t-47.5 431.5zM460 1529
q7 2 12.5 2.5t12.5 0.5q13 0 29.5 -6.5t42.5 -22.5q-40 -105 -79 -174t-71 -92q-23 5 -39 16t-30 31zM256 1530q6 1 11.5 1.5t12.5 0.5q13 0 29.5 -6.5t42.5 -22.5q-40 -105 -79 -174t-71 -92q-23 5 -39 16t-30 31z" />
    <glyph glyph-name="OE" unicode="&#x152;" horiz-adv-x="944" 
d="M476 1510q87 18 179 27t189 9h30q14 -21 19.5 -36t5.5 -29q0 -21 -6 -42.5t-21 -49.5h-69q-63 0 -116.5 -10t-102.5 -29q22 -113 32 -177.5t15 -117.5h63q34 0 68 1t76 3q21 -11 32 -26t11 -34q0 -24 -8.5 -48t-27.5 -48q-18 -1 -39 -1.5t-65 -0.5q-17 0 -44 1.5t-62 4.5
q0 -46 1 -94.5l1 -48.5q0 -140 -14 -287.5t-41 -304.5q56 -14 102.5 -20.5t87.5 -6.5q29 0 59 4t66 13q13 -22 19 -38.5t6 -33.5q0 -32 -18.5 -59.5t-53.5 -48.5q-15 -1 -41 -3q-37 -2 -47 -2q-87 0 -165 8.5t-134 22.5q-25 -16 -54 -23.5t-75 -7.5q-154 0 -220.5 190
t-66.5 636q0 297 27.5 431t93.5 220q45 60 85.5 83.5t100.5 23.5q34 0 108 -44q9 -5 14 -7zM270 1374q-23 -80 -33 -205t-10 -419q0 -308 30 -470.5t87 -162.5q69 0 97 147.5t28 536.5q0 331 -32 465.5t-107 134.5q-16 0 -31 -7t-29 -20z" />
    <glyph glyph-name="oe" unicode="&#x153;" horiz-adv-x="903" 
d="M535 776q26 -14 56 -20t71 -6q18 7 33 19t26 30q-3 106 -26 159.5t-66 53.5q-48 0 -71 -57.5t-23 -178.5zM236 162q8 -3 21 -8q22 -9 30 -9q48 0 72 123.5t24 368.5q0 78 -8 159t-25 167q-17 17 -28.5 23.5t-22.5 6.5q-44 0 -65 -147t-21 -453q0 -80 5.5 -134t17.5 -97z
M446 113q-60 -80 -102.5 -112t-85.5 -32q-94 0 -152.5 137t-58.5 367q0 194 31 353.5t76 220.5q32 43 98.5 80.5t103.5 37.5q33 0 57 -27t58 -108q60 77 108 111.5t93 34.5q84 0 139 -108t55 -271q0 -33 -2 -65.5t-6 -65.5q-42 -23 -88 -33t-117 -10q-46 0 -71.5 0.5
t-48.5 1.5q-2 -16 -2.5 -33.5t-0.5 -50.5q0 -178 50.5 -287t128.5 -109q29 0 47.5 9.5t29.5 29.5q20 -1 32 -7.5t22 -20.5q-34 -84 -94.5 -135.5t-122.5 -51.5q-44 0 -82 30t-95 114z" />
    <glyph glyph-name="Racute" unicode="&#x154;" horiz-adv-x="664" 
d="M244 860h24q81 0 109.5 44.5t28.5 195.5q0 204 -20.5 258.5t-82.5 54.5q-10 0 -21.5 -2.5t-33.5 -9.5q-3 -213 -3.5 -327t-0.5 -214zM74 1513q65 23 128.5 34.5t127.5 11.5q128 0 186.5 -95.5t58.5 -304.5q0 -135 -28 -214.5t-90 -121.5q122 -38 165 -770q0 -5 1 -8
l-33 -49q-23 -7 -39 -10.5t-27 -3.5q-16 0 -37.5 3.5t-50.5 12.5v129q0 154 -12 303.5t-27 216.5q-8 46 -30 66t-62 20q-13 0 -28 -1.5t-33 -4.5v-168q0 -100 3.5 -245.5t10.5 -310.5q-38 -9 -59.5 -12t-36.5 -3q-19 0 -37 3.5t-41 12.5q1 102 2 281q2 352 2 458
q0 225 -3.5 415t-10.5 355zM379 1927q8 1 15.5 1.5t15.5 0.5q15 0 34.5 -6.5t53.5 -22.5q-50 -105 -96.5 -173.5t-85.5 -92.5q-28 3 -49 14.5t-37 32.5q10 17 33 55q68 115 116 191z" />
    <glyph glyph-name="racute" unicode="&#x155;" horiz-adv-x="510" 
d="M76 16q5 137 7.5 238.5t2.5 183.5q0 181 -6.5 344t-20.5 314q24 26 53.5 41.5t69.5 21.5q32 -22 46 -64t18 -153q68 67 115.5 109.5t78.5 64.5q34 -13 53.5 -40.5t32.5 -84.5q-72 -43 -139 -100.5t-131 -132.5q-3 -95 -4.5 -192t-1.5 -197q0 -63 2 -152t6 -194l-31 -39
q-9 0 -27 1t-26 1q-36 0 -59 7t-39 23zM303 1530q8 1 15.5 1.5t15.5 0.5q15 0 34.5 -6.5t53.5 -22.5q-50 -105 -96.5 -173.5t-85.5 -92.5q-28 3 -49 14.5t-37 32.5q10 17 33 55q68 115 116 191z" />
    <glyph glyph-name="Rcedilla" unicode="&#x156;" horiz-adv-x="664" 
d="M244 860h24q81 0 109.5 44.5t28.5 195.5q0 204 -20.5 258.5t-82.5 54.5q-10 0 -21.5 -2.5t-33.5 -9.5q-3 -213 -3.5 -327t-0.5 -214zM74 1513q65 23 128.5 34.5t127.5 11.5q128 0 186.5 -95.5t58.5 -304.5q0 -135 -28 -214.5t-90 -121.5q122 -38 165 -770q0 -5 1 -8
l-33 -49q-23 -7 -39 -10.5t-27 -3.5q-16 0 -37.5 3.5t-50.5 12.5v129q0 154 -12 303.5t-27 216.5q-8 46 -30 66t-62 20q-13 0 -28 -1.5t-33 -4.5v-168q0 -100 3.5 -245.5t10.5 -310.5q-38 -9 -59.5 -12t-36.5 -3q-19 0 -37 3.5t-41 12.5q1 102 2 281q2 352 2 458
q0 225 -3.5 415t-10.5 355zM326 -457l-64 27q18 40 28 80t13 82q-23 37 -38 70.5t-23 64.5q34 20 60 29.5t48 9.5q9 0 37 -3q6 -1 8 -1q15 -28 22 -56t7 -59q0 -60 -22.5 -117t-75.5 -127z" />
    <glyph glyph-name="rcedilla" unicode="&#x157;" horiz-adv-x="510" 
d="M76 16q5 137 7.5 238.5t2.5 183.5q0 181 -6.5 344t-20.5 314q24 26 53.5 41.5t69.5 21.5q32 -22 46 -64t18 -153q68 67 115.5 109.5t78.5 64.5q34 -13 53.5 -40.5t32.5 -84.5q-72 -43 -139 -100.5t-131 -132.5q-3 -95 -4.5 -192t-1.5 -197q0 -63 2 -152t6 -194l-31 -39
q-9 0 -27 1t-26 1q-36 0 -59 7t-39 23zM160 -457l-64 27q18 40 28 80t13 82q-23 37 -38 70.5t-23 64.5q34 20 60 29.5t48 9.5q9 0 37 -3q6 -1 8 -1q15 -28 22 -56t7 -59q0 -60 -22.5 -117t-75.5 -127z" />
    <glyph glyph-name="Rcaron" unicode="&#x158;" horiz-adv-x="664" 
d="M244 860h24q81 0 109.5 44.5t28.5 195.5q0 204 -20.5 258.5t-82.5 54.5q-10 0 -21.5 -2.5t-33.5 -9.5q-3 -213 -3.5 -327t-0.5 -214zM74 1513q65 23 128.5 34.5t127.5 11.5q128 0 186.5 -95.5t58.5 -304.5q0 -135 -28 -214.5t-90 -121.5q122 -38 165 -770q0 -5 1 -8
l-33 -49q-23 -7 -39 -10.5t-27 -3.5q-16 0 -37.5 3.5t-50.5 12.5v129q0 154 -12 303.5t-27 216.5q-8 46 -30 66t-62 20q-13 0 -28 -1.5t-33 -4.5v-168q0 -100 3.5 -245.5t10.5 -310.5q-38 -9 -59.5 -12t-36.5 -3q-19 0 -37 3.5t-41 12.5q1 102 2 281q2 352 2 458
q0 225 -3.5 415t-10.5 355zM332 1804q19 33 44.5 64.5t56.5 58.5q26 -3 47.5 -12.5t39.5 -26.5q-42 -48 -77 -107.5t-68 -138.5q-23 -4 -38.5 -6t-22.5 -2q-11 0 -22 2.5t-23 7.5q-22 71 -51 130t-66 112q17 20 35.5 30t43.5 13q29 -20 53.5 -50.5t47.5 -74.5z" />
    <glyph glyph-name="rcaron" unicode="&#x159;" horiz-adv-x="510" 
d="M76 16q5 137 7.5 238.5t2.5 183.5q0 181 -6.5 344t-20.5 314q24 26 53.5 41.5t69.5 21.5q32 -22 46 -64t18 -153q68 67 115.5 109.5t78.5 64.5q34 -13 53.5 -40.5t32.5 -84.5q-72 -43 -139 -100.5t-131 -132.5q-3 -95 -4.5 -192t-1.5 -197q0 -63 2 -152t6 -194l-31 -39
q-9 0 -27 1t-26 1q-36 0 -59 7t-39 23zM256 1407q19 33 44.5 64.5t56.5 58.5q26 -3 47.5 -12.5t39.5 -26.5q-42 -48 -77 -107.5t-68 -138.5q-23 -4 -38.5 -6t-22.5 -2q-11 0 -22 2.5t-23 7.5q-22 71 -51 130t-66 112q17 20 35.5 30t43.5 13q29 -20 53.5 -50.5t47.5 -74.5z
" />
    <glyph glyph-name="Sacute" unicode="&#x15a;" horiz-adv-x="469" 
d="M368 1488q-87 -84 -130 -161t-43 -149q0 -77 104 -365q12 -33 18 -51q59 -159 85 -268.5t26 -190.5q0 -141 -71 -241.5t-216 -163.5q-55 24 -79.5 49t-24.5 57v4q137 87 179 145.5t42 141.5q0 118 -128 483q-6 16 -9 25q-55 156 -71.5 231t-16.5 142q0 82 24 152.5
t74 133.5q43 54 86.5 87.5t67.5 33.5q32 0 53 -23.5t30 -71.5zM283 1927q8 1 15.5 1.5t15.5 0.5q15 0 34.5 -6.5t53.5 -22.5q-50 -105 -96.5 -173.5t-85.5 -92.5q-28 3 -49 14.5t-37 32.5q10 17 33 55q68 115 116 191z" />
    <glyph glyph-name="sacute" unicode="&#x15b;" horiz-adv-x="408" 
d="M254 1214q36 -12 58.5 -33.5t37.5 -60.5l-15 -16q-138 -151 -138 -238q0 -43 57 -210q28 -80 43 -128q35 -112 46 -169t11 -107q0 -112 -47 -191.5t-141 -123.5q-35 6 -54 22.5t-42 71.5q56 64 84 127.5t28 128.5q0 42 -14 99t-57 179q-1 2 -2 5q-74 215 -74 290
q0 105 56.5 196.5t162.5 157.5zM252 1530q8 1 15.5 1.5t15.5 0.5q15 0 34.5 -6.5t53.5 -22.5q-50 -105 -96.5 -173.5t-85.5 -92.5q-28 3 -49 14.5t-37 32.5q10 17 33 55q68 115 116 191z" />
    <glyph glyph-name="Scircumflex" unicode="&#x15c;" horiz-adv-x="469" 
d="M368 1488q-87 -84 -130 -161t-43 -149q0 -77 104 -365q12 -33 18 -51q59 -159 85 -268.5t26 -190.5q0 -141 -71 -241.5t-216 -163.5q-55 24 -79.5 49t-24.5 57v4q137 87 179 145.5t42 141.5q0 118 -128 483q-6 16 -9 25q-55 156 -71.5 231t-16.5 142q0 82 24 152.5
t74 133.5q43 54 86.5 87.5t67.5 33.5q32 0 53 -23.5t30 -71.5zM244 1759q-19 -33 -44 -63t-57 -58q-28 3 -49 12t-38 25q39 45 74.5 105t71.5 143q9 1 25 3q32 5 40 5q15 0 40 -10h1q22 -74 51 -134t65 -110q-17 -20 -35.5 -30t-43.5 -13q-29 20 -53.5 50t-47.5 75z" />
    <glyph glyph-name="scircumflex" unicode="&#x15d;" horiz-adv-x="408" 
d="M254 1214q36 -12 58.5 -33.5t37.5 -60.5l-15 -16q-138 -151 -138 -238q0 -43 57 -210q28 -80 43 -128q35 -112 46 -169t11 -107q0 -112 -47 -191.5t-141 -123.5q-35 6 -54 22.5t-42 71.5q56 64 84 127.5t28 128.5q0 42 -14 99t-57 179q-1 2 -2 5q-74 215 -74 290
q0 105 56.5 196.5t162.5 157.5zM213 1362q-19 -33 -44 -63t-57 -58q-28 3 -49 12t-38 25q39 45 74.5 105t71.5 143q9 1 25 3q32 5 40 5q15 0 40 -10h1q22 -74 51 -134t65 -110q-17 -20 -35.5 -30t-43.5 -13q-29 20 -53.5 50t-47.5 75z" />
    <glyph glyph-name="Scedilla" unicode="&#x15e;" horiz-adv-x="469" 
d="M368 1488q-87 -84 -130 -161t-43 -149q0 -77 104 -365q12 -33 18 -51q59 -159 85 -268.5t26 -190.5q0 -141 -71 -241.5t-216 -163.5q-55 24 -79.5 49t-24.5 57v4q137 87 179 145.5t42 141.5q0 118 -128 483q-6 16 -9 25q-55 156 -71.5 231t-16.5 142q0 82 24 152.5
t74 133.5q43 54 86.5 87.5t67.5 33.5q32 0 53 -23.5t30 -71.5zM173 0q16 5 29.5 7.5t23.5 2.5t27 -2t53 -8q-7 -101 -33 -182.5t-76 -153.5q-2 0 -7 -1q-17 -3 -22 -3q-13 0 -36.5 11t-38.5 12q34 82 53.5 160.5t26.5 156.5z" />
    <glyph glyph-name="scedilla" unicode="&#x15f;" horiz-adv-x="408" 
d="M254 1214q36 -12 58.5 -33.5t37.5 -60.5l-15 -16q-138 -151 -138 -238q0 -43 57 -210q28 -80 43 -128q35 -112 46 -169t11 -107q0 -112 -47 -191.5t-141 -123.5q-35 6 -54 22.5t-42 71.5q56 64 84 127.5t28 128.5q0 42 -14 99t-57 179q-1 2 -2 5q-74 215 -74 290
q0 105 56.5 196.5t162.5 157.5zM142 0q16 5 29.5 7.5t23.5 2.5t27 -2t53 -8q-7 -101 -33 -182.5t-76 -153.5q-2 0 -7 -1q-17 -3 -22 -3q-13 0 -36.5 11t-38.5 12q34 82 53.5 160.5t26.5 156.5z" />
    <glyph glyph-name="Scaron" unicode="&#x160;" horiz-adv-x="469" 
d="M368 1488q-87 -84 -130 -161t-43 -149q0 -77 104 -365q12 -33 18 -51q59 -159 85 -268.5t26 -190.5q0 -141 -71 -241.5t-216 -163.5q-55 24 -79.5 49t-24.5 57v4q137 87 179 145.5t42 141.5q0 118 -128 483q-6 16 -9 25q-55 156 -71.5 231t-16.5 142q0 82 24 152.5
t74 133.5q43 54 86.5 87.5t67.5 33.5q32 0 53 -23.5t30 -71.5zM236 1804q19 33 44.5 64.5t56.5 58.5q26 -3 47.5 -12.5t39.5 -26.5q-42 -48 -77 -107.5t-68 -138.5q-23 -4 -38.5 -6t-22.5 -2q-11 0 -22 2.5t-23 7.5q-22 71 -51 130t-66 112q17 20 35.5 30t43.5 13
q29 -20 53.5 -50.5t47.5 -74.5z" />
    <glyph glyph-name="scaron" unicode="&#x161;" horiz-adv-x="408" 
d="M254 1214q36 -12 58.5 -33.5t37.5 -60.5l-15 -16q-138 -151 -138 -238q0 -43 57 -210q28 -80 43 -128q35 -112 46 -169t11 -107q0 -112 -47 -191.5t-141 -123.5q-35 6 -54 22.5t-42 71.5q56 64 84 127.5t28 128.5q0 42 -14 99t-57 179q-1 2 -2 5q-74 215 -74 290
q0 105 56.5 196.5t162.5 157.5zM205 1407q19 33 44.5 64.5t56.5 58.5q26 -3 47.5 -12.5t39.5 -26.5q-42 -48 -77 -107.5t-68 -138.5q-23 -4 -38.5 -6t-22.5 -2q-11 0 -22 2.5t-23 7.5q-22 71 -51 130t-66 112q17 20 35.5 30t43.5 13q29 -20 53.5 -50.5t47.5 -74.5z" />
    <glyph glyph-name="Tcedilla" unicode="&#x162;" horiz-adv-x="604" 
d="M571 1378q-37 2 -76.5 3t-103.5 1q-9 -398 -13.5 -742.5t-4.5 -633.5q-29 -11 -50 -15.5t-38 -4.5q-19 0 -39.5 6t-46.5 20q9 271 13.5 543t4.5 549v37q-2 127 -2 241q-27 -1 -85 -2t-89 -2q-9 18 -13.5 37.5t-4.5 40.5q0 3 1 10.5t1 10.5q17 41 67 58t158 17
q77 0 164.5 -12.5t187.5 -38.5v-24q0 -33 -7.5 -56.5t-23.5 -42.5zM297 -457l-64 27q18 40 28 80t13 82q-23 37 -38 70.5t-23 64.5q34 20 60 29.5t48 9.5q9 0 37 -3q6 -1 8 -1q15 -28 22 -56t7 -59q0 -60 -22.5 -117t-75.5 -127z" />
    <glyph glyph-name="tcedilla" unicode="&#x163;" horiz-adv-x="467" 
d="M266 1315q5 -19 7.5 -41.5t2.5 -50.5v-86q0 -1 -1 -10.5t0 -20.5q34 1 79 6.5t105 15.5q29 -24 42.5 -54t14.5 -72q-33 -17 -80 -27.5t-159 -22.5q-10 -161 -14.5 -308.5t-4.5 -278.5q0 -168 15 -205t57 -37q22 0 41 4.5t36 13.5q14 -12 20.5 -25t6.5 -28q0 -19 -8.5 -38
t-30.5 -46q-53 -23 -89.5 -33t-65.5 -10q-85 0 -121.5 70.5t-36.5 236.5q0 82 10 253t10 259q0 68 -0.5 103.5t-1.5 64.5q-26 7 -48.5 16.5t-43.5 22.5v10q0 27 7.5 53t21.5 52l69 6l7 197q22 18 42.5 27t41.5 9q15 0 31 -5.5t38 -20.5zM227 -457l-64 27q18 40 28 80t13 82
q-23 37 -38 70.5t-23 64.5q34 20 60 29.5t48 9.5q9 0 37 -3q6 -1 8 -1q15 -28 22 -56t7 -59q0 -60 -22.5 -117t-75.5 -127z" />
    <glyph glyph-name="Tcaron" unicode="&#x164;" horiz-adv-x="604" 
d="M571 1378q-37 2 -76.5 3t-103.5 1q-9 -398 -13.5 -742.5t-4.5 -633.5q-29 -11 -50 -15.5t-38 -4.5q-19 0 -39.5 6t-46.5 20q9 271 13.5 543t4.5 549v37q-2 127 -2 241q-27 -1 -85 -2t-89 -2q-9 18 -13.5 37.5t-4.5 40.5q0 3 1 10.5t1 10.5q17 41 67 58t158 17
q77 0 164.5 -12.5t187.5 -38.5v-24q0 -33 -7.5 -56.5t-23.5 -42.5zM303 1804q19 33 44.5 64.5t56.5 58.5q26 -3 47.5 -12.5t39.5 -26.5q-42 -48 -77 -107.5t-68 -138.5q-23 -4 -38.5 -6t-22.5 -2q-11 0 -22 2.5t-23 7.5q-22 71 -51 130t-66 112q17 20 35.5 30t43.5 13
q29 -20 53.5 -50.5t47.5 -74.5z" />
    <glyph glyph-name="tcaron" unicode="&#x165;" horiz-adv-x="684" 
d="M266 1315q5 -19 7.5 -41.5t2.5 -50.5v-86q0 -1 -1 -10.5t0 -20.5q34 1 79 6.5t105 15.5q29 -24 42.5 -54t14.5 -72q-33 -17 -80 -27.5t-159 -22.5q-10 -161 -14.5 -308.5t-4.5 -278.5q0 -168 15 -205t57 -37q22 0 41 4.5t36 13.5q14 -12 20.5 -25t6.5 -28q0 -19 -8.5 -38
t-30.5 -46q-53 -23 -89.5 -33t-65.5 -10q-85 0 -121.5 70.5t-36.5 236.5q0 82 10 253t10 259q0 68 -0.5 103.5t-1.5 64.5q-26 7 -48.5 16.5t-43.5 22.5v10q0 27 7.5 53t21.5 52l69 6l7 197q22 18 42.5 27t41.5 9q15 0 31 -5.5t38 -20.5zM565 1137q-28 0 -51.5 6.5
t-46.5 20.5q3 15 9 47q46 234 46 325v12l21 13q5 0 16 1t14 1q36 0 62.5 -7t48.5 -22q-15 -95 -44.5 -193.5t-74.5 -203.5z" />
    <glyph glyph-name="Tbar" unicode="&#x166;" horiz-adv-x="604" 
d="M571 1378q-34 2 -72 3t-108 1q-4 -182 -6 -325.5t-2 -204.5q42 0 78 -2t67 -6q5 -11 8 -26t3 -32q0 -15 -2 -29t-7 -28q-21 -2 -51 -3t-100 -1q-1 -113 -3.5 -358t-2.5 -361q-22 -10 -45 -15t-47 -5q-16 0 -37 6.5t-45 19.5q4 127 7.5 278t8.5 435h-29q-24 0 -51.5 2
t-64.5 6q-5 11 -7 23.5t-2 27.5q0 14 3.5 29.5t9.5 30.5q30 4 64.5 6t76.5 2q1 39 1.5 88t0.5 156q0 112 -0.5 172.5t-1.5 113.5q-9 0 -27 -1q-53 -3 -86 -3h-61q-9 17 -13.5 36t-4.5 40q0 4 1 11.5t1 11.5q17 41 67 58t158 17q77 0 164.5 -12.5t187.5 -38.5v-24
q0 -33 -7.5 -56.5t-23.5 -42.5z" />
    <glyph glyph-name="tbar" unicode="&#x167;" horiz-adv-x="467" 
d="M266 1315q6 -30 8 -47.5t2 -30.5q0 -1 -1 -44.5t0 -86.5q37 1 83 6.5t101 15.5q28 -21 42.5 -52.5t14.5 -73.5q-32 -18 -86 -29t-153 -21q-4 -58 -8 -166q-1 -8 0 -12q50 -1 102.5 -4.5t103.5 -7.5q1 -5 1.5 -11t0.5 -16q0 -15 -4.5 -29t-13.5 -28q-49 -8 -98 -12t-97 -5
q-3 -60 -4.5 -134t-1.5 -162q0 -168 15 -205t57 -37q22 0 41 4.5t36 13.5q14 -12 20.5 -25t6.5 -28q0 -18 -9 -38t-30 -46q-54 -23 -91 -33t-64 -10q-85 0 -121.5 70t-36.5 237q0 59 13 296q3 64 5 99q-17 2 -36 6t-39 11l-18 62q17 15 36.5 22.5t42.5 7.5h16v59
q0 53 -0.5 76.5t-1.5 40.5q-26 7 -48.5 16.5t-43.5 22.5v10q0 27 7.5 53t21.5 52l69 6l7 197q22 18 42.5 27t41.5 9q18 0 35.5 -6.5t33.5 -19.5z" />
    <glyph glyph-name="Utilde" unicode="&#x168;" horiz-adv-x="696" 
d="M359 146q46 52 68 194t22 389q0 175 -21 710q-1 39 -2 60q7 30 33 42.5t84 12.5q11 0 36 -11q7 -3 11 -5q13 -273 17.5 -426.5t4.5 -280.5q0 -445 -40 -596t-138 -239q-26 -11 -49 -17t-43 -6q-156 0 -212 100t-56 539v332q0 128 -0.5 281.5t-1.5 324.5q20 4 42 6.5
t46 2.5q24 -1 44 -5.5t44 -15.5v-467v-446v-109q0 -244 18 -309.5t66 -65.5q3 0 8.5 1t18.5 4zM561 1800q-46 -90 -79 -116.5t-85 -26.5q-38 0 -69 14t-62 45l-43 -57q-28 8 -47.5 21.5t-32.5 33.5q28 80 54.5 107.5t70.5 27.5h4q26 -9 63 -42.5t66 -33.5h10l74 90
q27 -6 44.5 -20.5t31.5 -42.5z" />
    <glyph glyph-name="utilde" unicode="&#x169;" horiz-adv-x="631" 
d="M250 -8q-171 43 -177 614q-4 320 -16 522q25 12 47 17.5t43 5.5t43.5 -6.5t51.5 -22.5q-2 -81 -3 -209.5t-1 -283.5v-45q0 -244 14 -320t51 -104h12q15 0 28.5 2.5t28.5 7.5q7 77 10 157t3 177q0 177 -5 337.5t-15 307.5q21 9 42 13.5t42 4.5q24 0 49 -6.5t55 -21.5v-78
q0 -11 -1 -67q-5 -306 -5 -617q0 -147 2.5 -223t7.5 -143q-20 -14 -44.5 -19.5t-66.5 -5.5h-30q-13 22 -21 40t-12 33q-34 -32 -65.5 -50.5t-51.5 -18.5q-1 0 -6.5 1t-9.5 1zM528 1403q-46 -90 -79 -116.5t-85 -26.5q-38 0 -69 14t-62 45l-43 -57q-28 8 -47.5 21.5
t-32.5 33.5q28 80 54.5 107.5t70.5 27.5h4q26 -9 63 -42.5t66 -33.5h10l74 90q27 -6 44.5 -20.5t31.5 -42.5z" />
    <glyph glyph-name="Umacron" unicode="&#x16a;" horiz-adv-x="696" 
d="M359 146q46 52 68 194t22 389q0 175 -21 710q-1 39 -2 60q7 30 33 42.5t84 12.5q11 0 36 -11q7 -3 11 -5q13 -273 17.5 -426.5t4.5 -280.5q0 -445 -40 -596t-138 -239q-26 -11 -49 -17t-43 -6q-156 0 -212 100t-56 539v332q0 128 -0.5 281.5t-1.5 324.5q20 4 42 6.5
t46 2.5q24 -1 44 -5.5t44 -15.5v-467v-446v-109q0 -244 18 -309.5t66 -65.5q3 0 8.5 1t18.5 4zM188 1671q-8 32 -11 47t-3 25q0 14 2 26t6 25q76 8 122 11t81 3q28 0 59 -3.5t69 -10.5q1 -2 2 -7q7 -38 7 -55q0 -19 -5 -36t-15 -31q-27 4 -54 6t-69 2q-32 0 -95.5 -1
t-95.5 -1z" />
    <glyph glyph-name="umacron" unicode="&#x16b;" horiz-adv-x="631" 
d="M250 -8q-171 43 -177 614q-4 320 -16 522q25 12 47 17.5t43 5.5t43.5 -6.5t51.5 -22.5q-2 -81 -3 -209.5t-1 -283.5v-45q0 -244 14 -320t51 -104h12q15 0 28.5 2.5t28.5 7.5q7 77 10 157t3 177q0 177 -5 337.5t-15 307.5q21 9 42 13.5t42 4.5q24 0 49 -6.5t55 -21.5v-78
q0 -11 -1 -67q-5 -306 -5 -617q0 -147 2.5 -223t7.5 -143q-20 -14 -44.5 -19.5t-66.5 -5.5h-30q-13 22 -21 40t-12 33q-34 -32 -65.5 -50.5t-51.5 -18.5q-1 0 -6.5 1t-9.5 1zM155 1274q-8 32 -11 47t-3 25q0 14 2 26t6 25q76 8 122 11t81 3q28 0 59 -3.5t69 -10.5q1 -2 2 -7
q7 -38 7 -55q0 -19 -5 -36t-15 -31q-27 4 -54 6t-69 2q-32 0 -95.5 -1t-95.5 -1z" />
    <glyph glyph-name="Ubreve" unicode="&#x16c;" horiz-adv-x="696" 
d="M359 146q46 52 68 194t22 389q0 175 -21 710q-1 39 -2 60q7 30 33 42.5t84 12.5q11 0 36 -11q7 -3 11 -5q13 -273 17.5 -426.5t4.5 -280.5q0 -445 -40 -596t-138 -239q-26 -11 -49 -17t-43 -6q-156 0 -212 100t-56 539v332q0 128 -0.5 281.5t-1.5 324.5q20 4 42 6.5
t46 2.5q24 -1 44 -5.5t44 -15.5v-467v-446v-109q0 -244 18 -309.5t66 -65.5q3 0 8.5 1t18.5 4zM456 1869q27 -3 45 -12.5t35 -29.5q-42 -97 -81.5 -135t-94.5 -38q-61 0 -111.5 46t-80.5 129q18 15 39 24.5t45 13.5q4 -6 11 -18q45 -74 85 -74q33 0 79 59q18 22 29 35z" />
    <glyph glyph-name="ubreve" unicode="&#x16d;" horiz-adv-x="631" 
d="M250 -8q-171 43 -177 614q-4 320 -16 522q25 12 47 17.5t43 5.5t43.5 -6.5t51.5 -22.5q-2 -81 -3 -209.5t-1 -283.5v-45q0 -244 14 -320t51 -104h12q15 0 28.5 2.5t28.5 7.5q7 77 10 157t3 177q0 177 -5 337.5t-15 307.5q21 9 42 13.5t42 4.5q24 0 49 -6.5t55 -21.5v-78
q0 -11 -1 -67q-5 -306 -5 -617q0 -147 2.5 -223t7.5 -143q-20 -14 -44.5 -19.5t-66.5 -5.5h-30q-13 22 -21 40t-12 33q-34 -32 -65.5 -50.5t-51.5 -18.5q-1 0 -6.5 1t-9.5 1zM423 1472q27 -3 45 -12.5t35 -29.5q-42 -97 -81.5 -135t-94.5 -38q-61 0 -111.5 46t-80.5 129
q18 15 39 24.5t45 13.5q4 -6 11 -18q45 -74 85 -74q33 0 79 59q18 22 29 35z" />
    <glyph glyph-name="Uring" unicode="&#x16e;" horiz-adv-x="696" 
d="M359 146q46 52 68 194t22 389q0 175 -21 710q-1 39 -2 60q7 30 33 42.5t84 12.5q11 0 36 -11q7 -3 11 -5q13 -273 17.5 -426.5t4.5 -280.5q0 -445 -40 -596t-138 -239q-26 -11 -49 -17t-43 -6q-156 0 -212 100t-56 539v332q0 128 -0.5 281.5t-1.5 324.5q20 4 42 6.5
t46 2.5q24 -1 44 -5.5t44 -15.5v-467v-446v-109q0 -244 18 -309.5t66 -65.5q3 0 8.5 1t18.5 4zM418 1878q-18 11 -32.5 15.5t-31.5 4.5q-47 0 -75.5 -28.5t-28.5 -73.5q0 -40 26 -66t66 -26q44 0 73 27.5t29 68.5q0 21 -6 39t-20 39zM340 1614q-79 0 -130.5 52t-51.5 132
q0 77 58 135.5t136 58.5q81 0 132.5 -52t51.5 -134q0 -80 -57 -136t-139 -56z" />
    <glyph glyph-name="uring" unicode="&#x16f;" horiz-adv-x="631" 
d="M250 -8q-171 43 -177 614q-4 320 -16 522q25 12 47 17.5t43 5.5t43.5 -6.5t51.5 -22.5q-2 -81 -3 -209.5t-1 -283.5v-45q0 -244 14 -320t51 -104h12q15 0 28.5 2.5t28.5 7.5q7 77 10 157t3 177q0 177 -5 337.5t-15 307.5q21 9 42 13.5t42 4.5q24 0 49 -6.5t55 -21.5v-78
q0 -11 -1 -67q-5 -306 -5 -617q0 -147 2.5 -223t7.5 -143q-20 -14 -44.5 -19.5t-66.5 -5.5h-30q-13 22 -21 40t-12 33q-34 -32 -65.5 -50.5t-51.5 -18.5q-1 0 -6.5 1t-9.5 1zM385 1481q-18 11 -32.5 15.5t-31.5 4.5q-47 0 -75.5 -28.5t-28.5 -73.5q0 -40 26 -66t66 -26
q44 0 73 27.5t29 68.5q0 21 -6 39t-20 39zM307 1217q-79 0 -130.5 52t-51.5 132q0 77 58 135.5t136 58.5q81 0 132.5 -52t51.5 -134q0 -80 -57 -136t-139 -56z" />
    <glyph glyph-name="Udblacute" unicode="&#x170;" horiz-adv-x="696" 
d="M359 146q46 52 68 194t22 389q0 175 -21 710q-1 39 -2 60q7 30 33 42.5t84 12.5q11 0 36 -11q7 -3 11 -5q13 -273 17.5 -426.5t4.5 -280.5q0 -445 -40 -596t-138 -239q-26 -11 -49 -17t-43 -6q-156 0 -212 100t-56 539v332q0 128 -0.5 281.5t-1.5 324.5q20 4 42 6.5
t46 2.5q24 -1 44 -5.5t44 -15.5v-467v-446v-109q0 -244 18 -309.5t66 -65.5q3 0 8.5 1t18.5 4zM495 1926q7 2 12.5 2.5t12.5 0.5q13 0 29.5 -6.5t42.5 -22.5q-40 -105 -79 -174t-71 -92q-23 5 -39 16t-30 31zM291 1927q6 1 11.5 1.5t12.5 0.5q13 0 29.5 -6.5t42.5 -22.5
q-40 -105 -79 -174t-71 -92q-23 5 -39 16t-30 31z" />
    <glyph glyph-name="udblacute" unicode="&#x171;" horiz-adv-x="631" 
d="M250 -8q-171 43 -177 614q-4 320 -16 522q25 12 47 17.5t43 5.5t43.5 -6.5t51.5 -22.5q-2 -81 -3 -209.5t-1 -283.5v-45q0 -244 14 -320t51 -104h12q15 0 28.5 2.5t28.5 7.5q7 77 10 157t3 177q0 177 -5 337.5t-15 307.5q21 9 42 13.5t42 4.5q24 0 49 -6.5t55 -21.5v-78
q0 -11 -1 -67q-5 -306 -5 -617q0 -147 2.5 -223t7.5 -143q-20 -14 -44.5 -19.5t-66.5 -5.5h-30q-13 22 -21 40t-12 33q-34 -32 -65.5 -50.5t-51.5 -18.5q-1 0 -6.5 1t-9.5 1zM462 1529q7 2 12.5 2.5t12.5 0.5q13 0 29.5 -6.5t42.5 -22.5q-40 -105 -79 -174t-71 -92
q-23 5 -39 16t-30 31zM258 1530q6 1 11.5 1.5t12.5 0.5q13 0 29.5 -6.5t42.5 -22.5q-40 -105 -79 -174t-71 -92q-23 5 -39 16t-30 31z" />
    <glyph glyph-name="Uogonek" unicode="&#x172;" horiz-adv-x="696" 
d="M359 146q46 52 68 194t22 389q0 175 -21 710q-1 39 -2 60q7 30 33 42.5t84 12.5q11 0 36 -11q7 -3 11 -5q13 -273 17.5 -426.5t4.5 -280.5q0 -445 -40 -596t-138 -239q-26 -11 -49 -17t-43 -6q-156 0 -212 100t-56 539v332q0 128 -0.5 281.5t-1.5 324.5q20 4 42 6.5
t46 2.5q24 -1 44 -5.5t44 -15.5v-467v-446v-109q0 -244 18 -309.5t66 -65.5q3 0 8.5 1t18.5 4zM409 31q-38 -65 -57.5 -141t-19.5 -156v-23q12 1 24.5 1.5t30.5 0.5q17 0 59 -3q10 0 17 -1q9 -20 12.5 -34t3.5 -27q0 -10 -2 -24t-6 -30q-44 -17 -80 -25.5t-68 -8.5
q-14 0 -27 0.5t-26 1.5q-36 32 -51.5 65t-15.5 74q0 70 42.5 163.5t110.5 166.5h53z" />
    <glyph glyph-name="uogonek" unicode="&#x173;" horiz-adv-x="631" 
d="M250 -8q-171 43 -177 614q-4 320 -16 522q25 12 47 17.5t43 5.5t43.5 -6.5t51.5 -22.5q-2 -81 -3 -209.5t-1 -283.5v-45q0 -244 14 -320t51 -104h12q15 0 28.5 2.5t28.5 7.5q7 77 10 157t3 177q0 177 -5 337.5t-15 307.5q21 9 42 13.5t42 4.5q24 0 49 -6.5t55 -21.5v-78
q0 -11 -1 -67q-5 -306 -5 -617q0 -148 2.5 -224.5t7.5 -141.5q-32 -70 -47.5 -135.5t-15.5 -131.5v-33q12 1 25 1.5t32 0.5q16 0 53 -2q13 -1 20 -2q10 -20 13.5 -34t3.5 -27q0 -10 -2 -24t-6 -30q-44 -17 -80 -25.5t-68 -8.5q-13 0 -25.5 0.5t-25.5 1.5q-36 32 -51.5 65
t-15.5 74q0 60 30.5 139t83.5 148q-12 -1 -26 -1.5t-39 -0.5q-13 22 -21 40t-12 33q-34 -32 -65.5 -50.5t-51.5 -18.5q-1 0 -6.5 1t-9.5 1z" />
    <glyph glyph-name="Wcircumflex" unicode="&#x174;" horiz-adv-x="868" 
d="M369 961q21 12 37 17t32 5q15 0 31 -4.5t39 -16.5q13 -98 37.5 -224.5t66.5 -313.5q12 305 31 578t47 522q3 1 11 5q50 25 75 25q26 0 44 -12.5t28 -38.5q-47 -371 -73.5 -693.5t-39.5 -651.5l-6 -142q-21 -9 -45.5 -13.5t-58.5 -4.5h-29l-47 16l-6 143q-4 84 -32 236
t-79 357q-85 -294 -116.5 -421.5t-36.5 -188.5l-13 -140q-10 -5 -21.5 -7.5t-35.5 -2.5q-4 0 -11 1t-10 1l-76 9q-6 11 -9 25t-3 44l-26 1454l65 24q9 3 18.5 4.5t18.5 1.5q25 0 40.5 -8.5t29.5 -30.5l-17 -1103q125 405 140 549zM442 1759q-19 -33 -44 -63t-57 -58
q-28 3 -49 12t-38 25q39 45 74.5 105t71.5 143q9 1 25 3q32 5 40 5q15 0 40 -10h1q22 -74 51 -134t65 -110q-17 -20 -35.5 -30t-43.5 -13q-29 20 -53.5 50t-47.5 75z" />
    <glyph glyph-name="wcircumflex" unicode="&#x175;" horiz-adv-x="819" 
d="M209 -6q-37 293 -90.5 566.5t-124.5 533.5q29 37 62.5 55t72.5 18q11 0 32 -5t29 -7v-37q0 -52 20.5 -191.5t76.5 -459.5l1 4q75 212 83 303q-19 133 -37.5 201t-44.5 106q17 40 51.5 63t73.5 23q12 0 23.5 -4.5t27.5 -17.5q8 -70 38 -265t68 -431l62 366q14 78 23 147.5
t14 137.5q15 23 38 35.5t62 19.5q30 -11 47.5 -28t30.5 -48q-78 -267 -136.5 -541.5t-99.5 -557.5q-22 -6 -34.5 -8.5t-18.5 -2.5t-16.5 1.5t-26.5 5.5v32q0 13 -7 60.5t-28 169.5l-59 337q-48 -150 -80.5 -298t-48.5 -287q-18 -4 -27 -5t-16 -1q-9 0 -19.5 2.5t-21.5 7.5z
M418 1362q-19 -33 -44 -63t-57 -58q-28 3 -49 12t-38 25q39 45 74.5 105t71.5 143q9 1 25 3q32 5 40 5q15 0 40 -10h1q22 -74 51 -134t65 -110q-17 -20 -35.5 -30t-43.5 -13q-29 20 -53.5 50t-47.5 75z" />
    <glyph glyph-name="Ycircumflex" unicode="&#x176;" horiz-adv-x="502" 
d="M338 870l-8 -303q-5 -185 -7 -322t-4 -266l-90 -14q-21 14 -40.5 21t-40.5 10q8 308 11 438t3 215q0 71 -2 132t-6 116q-28 115 -67.5 253t-102.5 343q17 29 41 44t55 15q5 0 21 -2q8 -1 14 -2q42 -108 76 -223.5t61 -239.5q38 181 69.5 288t67.5 183q3 1 9 1q31 4 46 4
q13 0 37.5 -7.5t55.5 -19.5q-30 -57 -84.5 -238.5t-114.5 -425.5zM260 1759q-19 -33 -44 -63t-57 -58q-28 3 -49 12t-38 25q39 45 74.5 105t71.5 143q9 1 25 3q32 5 40 5q15 0 40 -10h1q22 -74 51 -134t65 -110q-17 -20 -35.5 -30t-43.5 -13q-29 20 -53.5 50t-47.5 75z" />
    <glyph glyph-name="ycircumflex" unicode="&#x177;" horiz-adv-x="575" 
d="M188 49q-32 273 -76.5 532t-101.5 504q25 20 49.5 28.5t67.5 8.5q19 0 33.5 -0.5t29.5 -1.5q28 -158 53 -341t48 -394q36 177 64 368.5t48 399.5q28 6 39.5 8t18.5 2q22 0 48.5 -7.5t61.5 -22.5q-60 -434 -151 -826t-211 -737h-21q-43 0 -79.5 17.5t-73.5 56.5
q42 73 78 168t75 237zM297 1362q-19 -33 -44 -63t-57 -58q-28 3 -49 12t-38 25q39 45 74.5 105t71.5 143q9 1 25 3q32 5 40 5q15 0 40 -10h1q22 -74 51 -134t65 -110q-17 -20 -35.5 -30t-43.5 -13q-29 20 -53.5 50t-47.5 75z" />
    <glyph glyph-name="Ydieresis" unicode="&#x178;" horiz-adv-x="502" 
d="M338 870l-8 -303q-5 -185 -7 -322t-4 -266l-90 -14q-21 14 -40.5 21t-40.5 10q8 308 11 438t3 215q0 71 -2 132t-6 116q-28 115 -67.5 253t-102.5 343q17 29 41 44t55 15q5 0 21 -2q8 -1 14 -2q42 -108 76 -223.5t61 -239.5q38 181 69.5 288t67.5 183q3 1 9 1q31 4 46 4
q13 0 37.5 -7.5t55.5 -19.5q-30 -57 -84.5 -238.5t-114.5 -425.5zM285 1692q0 5 -1 17.5t-1 18.5q0 30 4.5 56t14.5 51q11 2 22 3t20 1q21 0 46 -3.5t54 -10.5q2 -9 2.5 -19t0.5 -27q0 -14 -5.5 -39.5t-15.5 -60.5q-10 -2 -21 -3t-26 -1q-17 0 -38 3.5t-56 13.5zM80 1679
q-9 23 -12.5 40t-3.5 32t3 33t11 49q26 4 45.5 6t32.5 2q14 0 50 -6q9 -1 15 -2q2 -15 3 -27t1 -23q0 -31 -4 -52.5t-14 -43.5q-28 -9 -40 -11.5t-24 -2.5q-15 0 -30.5 1.5t-32.5 4.5z" />
    <glyph glyph-name="Zacute" unicode="&#x179;" horiz-adv-x="547" 
d="M508 1479q-73 -288 -140 -617.5t-130 -711.5h10q36 0 76 15t118 62q34 -27 48 -56.5t14 -74.5q0 -6 -2 -26.5t-2 -30.5q-85 -29 -151.5 -43t-117.5 -14q-25 0 -58 4t-77 12q-23 20 -37 43.5t-20 52.5l108 508q42 189 79.5 374.5t72.5 373.5h-12q-58 0 -116 12.5
t-120 38.5q-1 4 -3 10q-9 30 -9 43q0 19 5.5 42t16.5 48q54 -17 98.5 -25t84.5 -8q41 0 84.5 8.5t92.5 26.5q29 -6 48 -21t39 -46zM321 1927q8 1 15.5 1.5t15.5 0.5q15 0 34.5 -6.5t53.5 -22.5q-50 -105 -96.5 -173.5t-85.5 -92.5q-28 3 -49 14.5t-37 32.5q10 17 33 55
q68 115 116 191z" />
    <glyph glyph-name="zacute" unicode="&#x17a;" horiz-adv-x="537" 
d="M461 178q32 -22 46.5 -46.5t14.5 -53.5q0 -15 -7 -46q-1 -4 -1 -5q-52 -22 -99.5 -31.5t-97.5 -9.5q-52 0 -122 11.5t-158 35.5q-9 24 -14 48t-5 46q0 13 0.5 20t1.5 12l261 830q-15 -2 -29.5 -3t-34.5 -1q-31 0 -70 5t-88 16q-8 32 -12 58.5t-4 45.5q0 13 7 24t22 21
q32 -11 67.5 -15.5t83.5 -4.5q50 0 92.5 5t77.5 15q30 -15 46 -41.5t24 -75.5q-92 -297 -153.5 -503.5t-106.5 -370.5q22 -7 45 -10.5t45 -3.5q33 0 76 7t92 21zM315 1530q8 1 15.5 1.5t15.5 0.5q15 0 34.5 -6.5t53.5 -22.5q-50 -105 -96.5 -173.5t-85.5 -92.5
q-28 3 -49 14.5t-37 32.5q10 17 33 55q68 115 116 191z" />
    <glyph glyph-name="Zdot" unicode="&#x17b;" horiz-adv-x="547" 
d="M508 1479q-73 -288 -140 -617.5t-130 -711.5h10q36 0 76 15t118 62q34 -27 48 -56.5t14 -74.5q0 -6 -2 -26.5t-2 -30.5q-85 -29 -151.5 -43t-117.5 -14q-25 0 -58 4t-77 12q-23 20 -37 43.5t-20 52.5l108 508q42 189 79.5 374.5t72.5 373.5h-12q-58 0 -116 12.5
t-120 38.5q-1 4 -3 10q-9 30 -9 43q0 19 5.5 42t16.5 48q54 -17 98.5 -25t84.5 -8q41 0 84.5 8.5t92.5 26.5q29 -6 48 -21t39 -46zM350 1693q-18 -4 -35 -6t-33 -2t-33.5 4t-34.5 11q-10 18 -15 39.5t-5 50.5q0 24 1 38t3 27q3 1 7 1q46 7 63 7q14 0 35 -2t47 -6
q8 -25 12 -46t4 -40q0 -16 -4 -34t-12 -42z" />
    <glyph glyph-name="zdot" unicode="&#x17c;" horiz-adv-x="537" 
d="M461 178q32 -22 46.5 -46.5t14.5 -53.5q0 -15 -7 -46q-1 -4 -1 -5q-52 -22 -99.5 -31.5t-97.5 -9.5q-52 0 -122 11.5t-158 35.5q-9 24 -14 48t-5 46q0 13 0.5 20t1.5 12l261 830q-15 -2 -29.5 -3t-34.5 -1q-31 0 -70 5t-88 16q-8 32 -12 58.5t-4 45.5q0 13 7 24t22 21
q32 -11 67.5 -15.5t83.5 -4.5q50 0 92.5 5t77.5 15q30 -15 46 -41.5t24 -75.5q-92 -297 -153.5 -503.5t-106.5 -370.5q22 -7 45 -10.5t45 -3.5q33 0 76 7t92 21zM344 1296q-18 -4 -35 -6t-33 -2t-33.5 4t-34.5 11q-10 18 -15 39.5t-5 50.5q0 24 1 38t3 27q3 1 7 1q46 7 63 7
q14 0 35 -2t47 -6q8 -25 12 -46t4 -40q0 -16 -4 -34t-12 -42z" />
    <glyph glyph-name="Zcaron" unicode="&#x17d;" horiz-adv-x="547" 
d="M508 1479q-73 -288 -140 -617.5t-130 -711.5h10q36 0 76 15t118 62q34 -27 48 -56.5t14 -74.5q0 -6 -2 -26.5t-2 -30.5q-85 -29 -151.5 -43t-117.5 -14q-25 0 -58 4t-77 12q-23 20 -37 43.5t-20 52.5l108 508q42 189 79.5 374.5t72.5 373.5h-12q-58 0 -116 12.5
t-120 38.5q-1 4 -3 10q-9 30 -9 43q0 19 5.5 42t16.5 48q54 -17 98.5 -25t84.5 -8q41 0 84.5 8.5t92.5 26.5q29 -6 48 -21t39 -46zM274 1804q19 33 44.5 64.5t56.5 58.5q26 -3 47.5 -12.5t39.5 -26.5q-42 -48 -77 -107.5t-68 -138.5q-23 -4 -38.5 -6t-22.5 -2q-11 0 -22 2.5
t-23 7.5q-22 71 -51 130t-66 112q17 20 35.5 30t43.5 13q29 -20 53.5 -50.5t47.5 -74.5z" />
    <glyph glyph-name="zcaron" unicode="&#x17e;" horiz-adv-x="537" 
d="M461 178q32 -22 46.5 -46.5t14.5 -53.5q0 -15 -7 -46q-1 -4 -1 -5q-52 -22 -99.5 -31.5t-97.5 -9.5q-52 0 -122 11.5t-158 35.5q-9 24 -14 48t-5 46q0 13 0.5 20t1.5 12l261 830q-15 -2 -29.5 -3t-34.5 -1q-31 0 -70 5t-88 16q-8 32 -12 58.5t-4 45.5q0 13 7 24t22 21
q32 -11 67.5 -15.5t83.5 -4.5q50 0 92.5 5t77.5 15q30 -15 46 -41.5t24 -75.5q-92 -297 -153.5 -503.5t-106.5 -370.5q22 -7 45 -10.5t45 -3.5q33 0 76 7t92 21zM268 1407q19 33 44.5 64.5t56.5 58.5q26 -3 47.5 -12.5t39.5 -26.5q-42 -48 -77 -107.5t-68 -138.5
q-23 -4 -38.5 -6t-22.5 -2q-11 0 -22 2.5t-23 7.5q-22 71 -51 130t-66 112q17 20 35.5 30t43.5 13q29 -20 53.5 -50.5t47.5 -74.5z" />
    <glyph glyph-name="slong" unicode="&#x17f;" horiz-adv-x="340" 
d="M205 -170q-6 -1 -11.5 -1.5t-17.5 -0.5q-35 0 -67.5 12t-65.5 38q2 48 12 191q38 502 39 903q-4 0 -9 -0.5t-15 -0.5q-17 0 -34 3t-34 9v23q6 28 20 51.5t33 40.5l39 2q0 132 37 229.5t113 167.5q30 15 51.5 23.5t40.5 13.5q121 -8 154.5 -24.5t33.5 -55.5
q0 -19 -9.5 -39t-29.5 -43q-5 0 -16 -1t-16 -1q-25 0 -49 4.5t-47 13.5q-59 -31 -82 -99t-23 -259v-94q0 -26 -1 -118t-1 -159q0 -52 1 -111.5t1 -68.5q0 -311 -11 -459t-36 -190z" />
    <glyph glyph-name="florin" unicode="&#x192;" horiz-adv-x="498" 
d="M180 707q-28 0 -55.5 1.5t-56.5 4.5q-15 17 -21 33.5t-6 35.5v11l14 28q29 9 59.5 15.5t65.5 11.5q0 12 -1 47.5t-1 58.5q0 107 14.5 204t45.5 194q10 28 46 43.5t158 31.5q43 -28 60.5 -57.5t17.5 -71.5v-14l-22 -14l-8 -8q-7 1 -14.5 1.5t-20.5 0.5q-22 0 -47 -3
t-50 -8q-15 -71 -22.5 -153t-7.5 -182v-70q26 -2 54 -6t56 -10q6 -17 9.5 -31t3.5 -25q0 -18 -7.5 -33.5t-23.5 -31.5l-90 -2q0 -26 2 -76q6 -199 6 -273q0 -294 -41 -440.5t-136 -198.5q-40 -5 -72.5 -7.5t-59.5 -2.5q-22 18 -31.5 42t-9.5 57v10q32 14 68.5 25t76.5 20
q29 98 42 219.5t13 298.5q0 107 -8 318v6z" />
    <glyph glyph-name="Aringacute" unicode="&#x1fa;" horiz-adv-x="641" 
d="M295 1849q-24 12 -40 31.5t-24 46.5q69 68 134.5 110.5t119.5 55.5q25 -13 40.5 -31.5t23.5 -43.5q-47 -40 -111 -82.5t-143 -86.5zM334 1219q-34 -197 -61.5 -367.5t-49.5 -314.5q16 -2 33.5 -2h52.5q34 0 52 0.5t32 1.5q-22 202 -37.5 379t-21.5 303zM262 1481
q-50 26 -76 69t-26 101q0 77 57 134.5t135 57.5q82 0 134.5 -51.5t52.5 -132.5q0 -53 -26 -97.5t-71 -68.5q20 -225 65 -597.5t111 -856.5q-19 -20 -45.5 -29.5t-60.5 -9.5q-20 0 -30.5 1t-20.5 3q-6 40 -15 111q-32 229 -38 286q-37 3 -58 3.5t-41 1.5q-18 -1 -39 -1.5
t-67 -3.5q-14 -96 -25 -190.5t-21 -188.5q-26 -15 -50 -22.5t-46 -7.5q-20 0 -39.5 7.5t-39.5 23.5q67 443 137 805t143 653zM420 1731q-18 10 -33.5 15t-30.5 5q-44 0 -74 -28.5t-30 -69.5q0 -46 26 -71.5t72 -25.5q40 0 68 28.5t28 68.5q0 21 -6 40t-20 38z" />
    <glyph glyph-name="aringacute" unicode="&#x1fb;" horiz-adv-x="602" 
d="M262 1602q-24 12 -40 30.5t-23 44.5q70 69 135 112t119 56q24 -13 40 -32t23 -43q-46 -40 -110.5 -82.5t-143.5 -85.5zM131 932h-6q-33 0 -56.5 24.5t-23.5 57.5q0 4 3 10t11 16q63 37 122.5 68.5t119.5 58.5q126 -22 173.5 -135t47.5 -530q0 -113 -6 -409q-1 -65 -2 -99
q-15 -8 -33 -12.5t-39 -4.5q-14 1 -29.5 5.5t-33.5 13.5l-8 47q-46 -21 -87 -32t-71 -11q-82 0 -122 82t-40 252q0 198 64.5 285.5t208.5 87.5h30q-1 124 -29 204t-67 80q-9 0 -23.5 -5t-29.5 -13zM362 180q0 61 -3 186.5t-3 190.5q-5 1 -11 1.5t-17 0.5q-59 0 -89 -47
t-30 -139q0 -120 21 -160.5t75 -40.5q14 0 46 6q7 1 11 2zM371 1481q-18 10 -33.5 15t-30.5 5q-44 0 -74 -28.5t-30 -69.5q0 -46 26 -71t72 -25q40 0 68 28t28 68q0 22 -6.5 40.5t-19.5 37.5zM297 1217q-82 0 -134 51.5t-52 132.5q0 78 57.5 136t134.5 58q81 0 133.5 -51
t52.5 -129q0 -83 -55.5 -140.5t-136.5 -57.5z" />
    <glyph glyph-name="AEacute" unicode="&#x1fc;" horiz-adv-x="829" 
d="M234 750q17 1 33 1.5t38 0.5q11 0 43 -3q16 -1 25 -1q-2 187 -7 354.5t-14 320.5l-12 -2q-33 -130 -59 -294t-47 -377zM18 -6q28 506 84.5 900t135.5 636l24 20q6 1 17 1q80 3 114 3q84 0 163 -8.5t157 -26.5q5 -14 8.5 -27.5t3.5 -21.5q0 -25 -8 -45.5t-27 -42.5
q-28 4 -56 6.5t-54 2.5q-19 0 -36.5 -0.5t-37.5 -1.5q10 -93 15.5 -180.5t7.5 -172.5q3 0 11 -1q66 -7 95 -7q12 0 58 3q14 1 22 1q6 -20 9 -37.5t3 -33.5q0 -18 -4.5 -34t-13.5 -36q-7 -1 -18 -2q-54 -6 -75 -6q-18 0 -65 3q-10 0 -16 1l2 -242q2 -196 3.5 -302t4.5 -187
q28 -5 59.5 -7t71.5 -2q38 0 57 0.5t38 1.5q19 -7 26.5 -19.5t7.5 -37.5q0 -16 -5 -36.5t-16 -49.5q-40 -12 -79.5 -18t-79.5 -6q-41 0 -93 6t-122 20l-35 45v541q-14 2 -29 3t-41 1q-9 0 -32 -3t-58 -9q-10 -116 -24.5 -311.5t-22.5 -264.5l-12 -2q-13 -19 -26.5 -27
t-33.5 -8q-19 0 -38 5t-40 16zM463 1927q8 1 15.5 1.5t15.5 0.5q15 0 34.5 -6.5t53.5 -22.5q-50 -105 -96.5 -173.5t-85.5 -92.5q-28 3 -49 14.5t-37 32.5q10 17 33 55q68 115 116 191z" />
    <glyph glyph-name="aeacute" unicode="&#x1fd;" horiz-adv-x="895" 
d="M524 741q21 1 46.5 2.5t29.5 1.5q14 0 39 -1t37 -1q16 29 23.5 51t7.5 42q0 69 -21.5 112t-64.5 60l-58 -13q-20 -64 -29.5 -119.5t-9.5 -105.5v-29zM364 602q-4 1 -11 1.5t-19 0.5q-25 0 -48.5 -5.5t-47.5 -16.5q-22 -49 -31.5 -93.5t-9.5 -91.5q0 -103 14.5 -160
t46.5 -83q35 4 64.5 19t62.5 46q-12 44 -17.5 91.5t-5.5 129.5q0 43 1 82t1 80zM217 -16q-100 25 -143 112.5t-43 268.5q0 100 24.5 174t79.5 145q36 27 87.5 39t141.5 14q1 64 -8.5 122t-29.5 116l-82 26q-23 -22 -53 -39t-72 -30q-34 8 -49 24t-15 43v6l8 9
q142 151 224 151q57 0 109 -30.5t91 -87.5q45 54 87 80.5t93 33.5q84 -11 142.5 -101.5t58.5 -209.5q0 -60 -20.5 -117.5t-63.5 -114.5q-26 -4 -53 -6t-57 -2q-20 0 -61 3t-89 7q-1 -22 -1.5 -47.5t-0.5 -72.5q0 -137 26 -213.5t87 -128.5q3 -1 8 -1q23 -3 35 -3
q40 0 66.5 14.5t42.5 44.5q34 -4 49 -14.5t18 -32.5q-46 -103 -78.5 -142.5t-68.5 -39.5q-49 0 -105 17t-108 48q-25 19 -41.5 40t-28.5 46q-56 -73 -99 -102.5t-108 -48.5zM496 1530q8 1 15.5 1.5t15.5 0.5q15 0 34.5 -6.5t53.5 -22.5q-50 -105 -96.5 -173.5t-85.5 -92.5
q-28 3 -49 14.5t-37 32.5q10 17 33 55q68 115 116 191z" />
    <glyph glyph-name="Oslashacute" unicode="&#x1fe;" horiz-adv-x="694" 
d="M412 1551l30 178q18 8 30 11t22 3q13 0 24.5 -1t24.5 -3l49 -41q-16 -53 -29 -114t-24 -138q56 -91 82 -242t26 -395q0 -452 -72 -642t-241 -190h-45q-10 -59 -22.5 -130.5t-12.5 -73.5q-3 -1 -10 -3q-38 -10 -58 -10q-23 0 -42.5 7.5t-43.5 23.5l62 275
q-57 89 -86 274.5t-29 464.5q0 295 27.5 429t93.5 220q44 59 84.5 83t99.5 24q11 0 25 -2.5t35 -7.5zM270 1374q-23 -80 -33 -205t-10 -419q0 -308 30 -470.5t87 -162.5q69 0 97 147.5t28 536.5q0 331 -32 465.5t-107 134.5q-16 0 -31 -7t-29 -20zM395 1927q8 1 15.5 1.5
t15.5 0.5q15 0 34.5 -6.5t53.5 -22.5q-50 -105 -96.5 -173.5t-85.5 -92.5q-28 3 -49 14.5t-37 32.5q10 17 33 55q68 115 116 191z" />
    <glyph glyph-name="oslashacute" unicode="&#x1ff;" horiz-adv-x="606" 
d="M292 958q-43 -7 -63 -121t-20 -362q0 -147 25.5 -216.5t84.5 -90.5q45 25 62.5 76t17.5 174q0 243 -27 381.5t-80 158.5zM186 23q-72 44 -106.5 162.5t-34.5 326.5q0 295 67.5 443t219.5 192l16 155q26 12 47 17.5t37 5.5q17 0 32.5 -4.5t30.5 -13.5q-11 -78 -17 -135.5
t-9 -106.5q42 -62 68 -206t26 -324q0 -236 -71.5 -391.5t-178.5 -163.5l-10 -160q-30 -15 -51 -22t-37 -7q-13 0 -25 6t-26 21zM350 1530q8 1 15.5 1.5t15.5 0.5q15 0 34.5 -6.5t53.5 -22.5q-50 -105 -96.5 -173.5t-85.5 -92.5q-28 3 -49 14.5t-37 32.5q10 17 33 55
q68 115 116 191z" />
    <glyph glyph-name="circumflex" unicode="&#x2c6;" horiz-adv-x="1024" 
d="M520 1362q-19 -33 -44 -63t-57 -58q-28 3 -49 12t-38 25q39 45 74.5 105t71.5 143q9 1 25 3q32 5 40 5q15 0 40 -10h1q22 -74 51 -134t65 -110q-17 -20 -35.5 -30t-43.5 -13q-29 20 -53.5 50t-47.5 75z" />
    <glyph glyph-name="caron" unicode="&#x2c7;" horiz-adv-x="1024" 
d="M512 1407q19 33 44.5 64.5t56.5 58.5q26 -3 47.5 -12.5t39.5 -26.5q-42 -48 -77 -107.5t-68 -138.5q-23 -4 -38.5 -6t-22.5 -2q-11 0 -22 2.5t-23 7.5q-22 71 -51 130t-66 112q17 20 35.5 30t43.5 13q29 -20 53.5 -50.5t47.5 -74.5z" />
    <glyph glyph-name="macron" unicode="&#x2c9;" horiz-adv-x="1024" 
d="M352 1274q-8 32 -11 47t-3 25q0 14 2 26t6 25q76 8 122 11t81 3q28 0 59 -3.5t69 -10.5q1 -2 2 -7q7 -38 7 -55q0 -19 -5 -36t-15 -31q-27 4 -54 6t-69 2q-32 0 -95.5 -1t-95.5 -1z" />
    <glyph glyph-name="breve" unicode="&#x2d8;" horiz-adv-x="1024" 
d="M620 1472q27 -3 45 -12.5t35 -29.5q-42 -97 -81.5 -135t-94.5 -38q-61 0 -111.5 46t-80.5 129q18 15 39 24.5t45 13.5q4 -6 11 -18q45 -74 85 -74q33 0 79 59q18 22 29 35z" />
    <glyph glyph-name="dotaccent" unicode="&#x2d9;" horiz-adv-x="1024" 
d="M588 1296q-18 -4 -35 -6t-33 -2t-33.5 4t-34.5 11q-10 18 -15 39.5t-5 50.5q0 24 1 38t3 27q3 1 7 1q46 7 63 7q14 0 35 -2t47 -6q8 -25 12 -46t4 -40q0 -16 -4 -34t-12 -42z" />
    <glyph glyph-name="ring" unicode="&#x2da;" horiz-adv-x="1024" 
d="M582 1481q-18 11 -32.5 15.5t-31.5 4.5q-47 0 -75.5 -28.5t-28.5 -73.5q0 -40 26 -66t66 -26q44 0 73 27.5t29 68.5q0 21 -6 39t-20 39zM504 1217q-79 0 -130.5 52t-51.5 132q0 77 58 135.5t136 58.5q81 0 132.5 -52t51.5 -134q0 -80 -57 -136t-139 -56z" />
    <glyph glyph-name="ogonek" unicode="&#x2db;" horiz-adv-x="1024" 
d="M573 31q-38 -65 -57.5 -141t-19.5 -156v-23q12 1 24.5 1.5t30.5 0.5q17 0 59 -3q10 0 17 -1q9 -20 12.5 -34t3.5 -27q0 -10 -2 -24t-6 -30q-44 -17 -80 -25.5t-68 -8.5q-14 0 -27 0.5t-26 1.5q-36 32 -51.5 65t-15.5 74q0 70 42.5 163.5t110.5 166.5h53z" />
    <glyph glyph-name="tilde" unicode="&#x2dc;" horiz-adv-x="1024" 
d="M725 1403q-46 -90 -79 -116.5t-85 -26.5q-38 0 -69 14t-62 45l-43 -57q-28 8 -47.5 21.5t-32.5 33.5q28 80 54.5 107.5t70.5 27.5h4q26 -9 63 -42.5t66 -33.5h10l74 90q27 -6 44.5 -20.5t31.5 -42.5z" />
    <glyph glyph-name="hungarumlaut" unicode="&#x2dd;" horiz-adv-x="1024" 
d="M659 1529q7 2 12.5 2.5t12.5 0.5q13 0 29.5 -6.5t42.5 -22.5q-40 -105 -79 -174t-71 -92q-23 5 -39 16t-30 31zM455 1530q6 1 11.5 1.5t12.5 0.5q13 0 29.5 -6.5t42.5 -22.5q-40 -105 -79 -174t-71 -92q-23 5 -39 16t-30 31z" />
    <glyph glyph-name="U037e" unicode="&#x37e;" horiz-adv-x="387" 
d="M166 -16q-26 35 -46 72t-34 75q30 28 65.5 44.5t79.5 23.5q40 -84 52 -124.5t12 -74.5q0 -79 -88 -283l-2 -5l-78 16q25 118 32 163.5t7 75.5v17zM155 660q-27 32 -45 66.5t-24 70.5q23 23 58.5 41.5t82.5 31.5q22 -24 39 -62t29 -85q-23 -24 -57.5 -40t-82.5 -23z" />
    <glyph glyph-name="greekacute" unicode="&#x384;" horiz-adv-x="442" 
d="M269 1530q4 1 8.5 1.5t13.5 0.5q19 0 41 -6.5t55 -22.5q-48 -104 -95 -172t-87 -94q-27 3 -48.5 15t-37.5 32l30 49q71 118 120 197z" />
    <glyph glyph-name="greekacutedieresis" unicode="&#x385;" horiz-adv-x="807" 
d="M115 1282q-8 21 -12.5 39t-4.5 33q0 18 4 39.5t11 42.5q18 4 36.5 6t38.5 2t37.5 -2t30.5 -7q3 -15 4.5 -29t1.5 -28q0 -25 -5 -46.5t-15 -41.5l-6 -2q-41 -12 -58 -12q-15 0 -31 1.5t-32 4.5zM543 1294q0 6 -1 17.5t-1 17.5q0 32 4.5 59t14.5 50q13 2 23 3t19 1
q23 0 49 -3.5t54 -11.5q0 -3 1 -9t1 -17q0 -25 -5.5 -54t-17.5 -65q-7 -2 -16 -3t-27 -1q-21 0 -45.5 4t-52.5 12zM444 1223q-8 -2 -14.5 -3t-11.5 -1q-12 0 -26.5 2.5t-39.5 11.5q-3 90 -8 155t-12 111l19 19q16 5 34 7.5t37 2.5q11 0 24.5 -3t38.5 -12q-8 -54 -18.5 -129
t-22.5 -161z" />
    <glyph glyph-name="Alphaacute" unicode="&#x386;" horiz-adv-x="649" 
d="M444 1542q29 -299 74 -674t109 -837q-21 -20 -48 -30.5t-61 -10.5q-14 0 -40 3q-5 0 -9 1q-28 204 -38.5 282t-14.5 117q-36 3 -57.5 3.5t-41.5 0.5q-17 0 -38.5 -0.5t-67.5 -3.5q-13 -96 -24.5 -191t-20.5 -187q-26 -16 -50 -23.5t-46 -7.5q-21 0 -40 7t-40 23
q66 436 140.5 817t158.5 713q29 8 49.5 11.5t38.5 3.5q13 0 29.5 -4t37.5 -13zM342 1210q-32 -184 -60 -356t-50 -326q15 -1 32.5 -1.5t52.5 -0.5q34 0 51.5 0.5t32.5 2.5q-22 202 -37 379t-22 302zM-139 1188h-16q-18 0 -32.5 3t-25.5 9q44 118 79.5 199.5t66.5 136.5
l20 12q12 2 25 3t39 1t43.5 -2.5t29.5 -7.5q-67 -119 -122 -204t-107 -150z" />
    <glyph glyph-name="anoteleia" unicode="&#x387;" horiz-adv-x="358" 
d="M76 569q0 42 30.5 72.5t71.5 30.5q43 0 73 -30t30 -73q0 -42 -30.5 -72t-72.5 -30q-40 0 -71 31t-31 71z" />
    <glyph glyph-name="Epsilonacute" unicode="&#x388;" horiz-adv-x="889" 
d="M49 1188h-16q-18 0 -32.5 3t-25.5 9q44 118 79.5 199.5t66.5 136.5l20 12q12 2 25 3t39 1t43.5 -2.5t29.5 -7.5q-67 -119 -122 -204t-107 -150zM829 1440l-27 -58q-8 1 -23 2q-47 2 -65 2q-37 0 -75.5 -4.5t-77.5 -13.5q1 -91 5 -168.5t9 -144.5h59q32 0 65.5 1t79.5 3
q20 -9 31.5 -26t14.5 -42q-3 -30 -15 -52t-35 -38q-32 3 -69.5 4.5t-77.5 1.5h-53q1 -27 1 -76q3 -155 3 -208q0 -117 -3.5 -230.5t-10.5 -226.5q4 -1 12 -2q113 -17 150 -17q30 0 60.5 4.5t64.5 12.5q13 -24 21 -49t11 -54q-15 -26 -35.5 -47.5t-43.5 -35.5
q-43 -3 -64.5 -4t-38.5 -1q-85 0 -167 10.5t-163 30.5q20 162 29.5 337.5t9.5 365.5q0 82 -3.5 237t-16.5 568q81 12 192.5 18.5t257.5 7.5q5 -14 7 -22.5t2 -14.5q0 -13 -5 -30t-16 -41z" />
    <glyph glyph-name="Etaacute" unicode="&#x389;" horiz-adv-x="1036" 
d="M49 1188h-16q-18 0 -32.5 3t-25.5 9q44 118 79.5 199.5t66.5 136.5l20 12q12 2 25 3t39 1t43.5 -2.5t29.5 -7.5q-67 -119 -122 -204t-107 -150zM389 1499q5 29 31.5 41t84.5 12q12 0 23.5 -3.5t23.5 -10.5q4 -70 11.5 -230t11.5 -251h39q35 0 72.5 2t84.5 6q1 208 3 302
t6 167q26 12 51 18.5t49 6.5q14 -1 29.5 -3t40.5 -8q-3 -123 -4.5 -227.5t-1.5 -192.5v-710v-404q-26 -12 -46.5 -17t-41.5 -5q-17 0 -36.5 2t-51.5 8q3 142 4.5 281.5t1.5 275.5q0 128 -0.5 207t-1.5 155l-103 -1q-34 0 -57 -2t-37 -7v-397q0 -152 -5 -282t-15 -240
q-23 -7 -50 -11t-57 -4h-22l-29 19q7 156 10.5 311t3.5 309q0 172 -5.5 389.5t-16.5 493.5z" />
    <glyph glyph-name="Iotaacute" unicode="&#x38a;" horiz-adv-x="657" 
d="M49 1188h-16q-18 0 -32.5 3t-25.5 9q44 118 79.5 199.5t66.5 136.5l20 12q12 2 25 3t39 1t43.5 -2.5t29.5 -7.5q-67 -119 -122 -204t-107 -150zM407 -6l-2 422q-1 129 -1.5 271.5t-0.5 404.5q0 179 0.5 263t1.5 154q3 14 11 23t19 12q19 3 27 3.5t15 0.5q21 0 41 -6
t39 -18q8 -227 12 -412.5t4 -341.5q0 -186 -3 -382.5t-9 -401.5q-17 -9 -37.5 -13t-46.5 -4h-19z" />
    <glyph glyph-name="Omicronacute" unicode="&#x38c;" horiz-adv-x="938" 
d="M49 1188h-16q-18 0 -32.5 3t-25.5 9q44 118 79.5 199.5t66.5 136.5l20 12q12 2 25 3t39 1t43.5 -2.5t29.5 -7.5q-67 -119 -122 -204t-107 -150zM535 -23q-119 0 -181.5 211.5t-62.5 616.5q0 265 23.5 404.5t76.5 215.5q55 78 99 107t104 29q148 0 222.5 -184.5
t74.5 -551.5q0 -281 -35 -455.5t-110 -265.5q-51 -61 -106 -94t-105 -33zM514 1374q-22 -75 -32.5 -206.5t-10.5 -368.5q0 -285 17 -434t55 -220h6q86 0 125 156t39 500q0 324 -31.5 463t-103.5 139q-18 0 -33.5 -7t-30.5 -22z" />
    <glyph glyph-name="Upsilonacute" unicode="&#x38e;" horiz-adv-x="911" 
d="M49 1188h-16q-18 0 -32.5 3t-25.5 9q44 118 79.5 199.5t66.5 136.5l20 12q12 2 25 3t39 1t43.5 -2.5t29.5 -7.5q-67 -119 -122 -204t-107 -150zM748 870l-8 -302q-5 -225 -7 -351t-4 -238l-90 -14q-18 13 -38.5 20.5t-42.5 10.5q7 192 10.5 364t3.5 318q0 52 -2 107
t-6 112q-31 127 -74 277.5t-96 318.5q15 29 40 44t56 15q11 0 30 -3q3 0 5 -1q42 -104 76 -219.5t61 -243.5q35 168 68.5 282t68.5 189q13 3 22.5 4t16.5 1q27 0 53.5 -7t55.5 -20q-33 -66 -86.5 -243t-112.5 -421z" />
    <glyph glyph-name="Omegaacute" unicode="&#x38f;" horiz-adv-x="944" 
d="M49 1188h-16q-18 0 -32.5 3t-25.5 9q44 118 79.5 199.5t66.5 136.5l20 12q12 2 25 3t39 1t43.5 -2.5t29.5 -7.5q-67 -119 -122 -204t-107 -150zM885 4q-14 -5 -33 -7.5t-47 -2.5q-44 0 -175 13q-8 1 -11 1l-17 31q0 4 -1 13q-3 27 -3 36q0 3 2 20t2 25q61 40 86 181.5
t25 494.5q0 336 -28.5 475t-94.5 139q-14 0 -29.5 -5t-35.5 -17q-28 -69 -41 -199.5t-13 -359.5q0 -419 17.5 -549t60.5 -162q0 -41 -2.5 -69t-8.5 -50q-40 -8 -81.5 -13t-75.5 -5q-22 0 -48.5 4.5t-54.5 14.5q-13 15 -20.5 41t-7.5 57q0 16 5.5 31t17.5 30q14 -9 43 -14
t85 -6q-56 65 -82 221.5t-26 433.5q0 207 24 362.5t66 229.5q41 69 107.5 115.5t124.5 46.5q139 0 208.5 -171t69.5 -513q0 -339 -34.5 -497.5t-116.5 -229.5q4 -1 14 -2q25 -3 33 -3q15 0 33.5 3t42.5 10l14 -4q10 -15 14 -29.5t4 -32.5q0 -27 -3 -49.5t-9 -38.5z" />
    <glyph glyph-name="iotaacutedieresis" unicode="&#x390;" horiz-adv-x="319" 
d="M248 8q-16 -6 -31.5 -9t-32.5 -3q-32 0 -62.5 4.5t-59.5 13.5q7 258 10.5 435.5t3.5 324.5q0 80 -1 157t-3 157q10 9 23.5 20.5t42.5 34.5q37 -5 55.5 -6.5t33.5 -1.5l19 -1q-4 -43 -5 -130.5t-1 -360.5v-283q0 -103 2 -189t6 -163zM-129 1282q-8 21 -12.5 39t-4.5 33
q0 18 4 39.5t11 42.5q18 4 36.5 6t38.5 2t37.5 -2t30.5 -7q3 -15 4.5 -29t1.5 -28q0 -25 -5 -46.5t-15 -41.5l-6 -2q-41 -12 -58 -12q-15 0 -31 1.5t-32 4.5zM299 1294q0 6 -1 17.5t-1 17.5q0 32 4.5 59t14.5 50q13 2 23 3t19 1q23 0 49 -3.5t54 -11.5q0 -3 1 -9t1 -17
q0 -25 -5.5 -54t-17.5 -65q-7 -2 -16 -3t-27 -1q-21 0 -45.5 4t-52.5 12zM200 1223q-8 -2 -14.5 -3t-11.5 -1q-12 0 -26.5 2.5t-39.5 11.5q-3 90 -8 155t-12 111l19 19q16 5 34 7.5t37 2.5q11 0 24.5 -3t38.5 -12q-8 -54 -18.5 -129t-22.5 -161z" />
    <glyph glyph-name="Alpha" unicode="&#x391;" horiz-adv-x="649" 
d="M444 1542q29 -299 74 -674t109 -837q-21 -20 -48 -30.5t-61 -10.5q-14 0 -40 3q-5 0 -9 1q-28 204 -38.5 282t-14.5 117q-36 3 -57.5 3.5t-41.5 0.5q-17 0 -38.5 -0.5t-67.5 -3.5q-13 -96 -24.5 -191t-20.5 -187q-26 -16 -50 -23.5t-46 -7.5q-21 0 -40 7t-40 23
q66 436 140.5 817t158.5 713q29 8 49.5 11.5t38.5 3.5q13 0 29.5 -4t37.5 -13zM342 1210q-32 -184 -60 -356t-50 -326q15 -1 32.5 -1.5t52.5 -0.5q34 0 51.5 0.5t32.5 2.5q-22 202 -37 379t-22 302z" />
    <glyph glyph-name="Beta" unicode="&#x392;" horiz-adv-x="684" 
d="M457 887q77 -62 113 -159.5t36 -244.5q0 -246 -91 -372.5t-269 -126.5q-18 0 -88 3q-51 3 -82 5q15 282 22.5 538.5t7.5 487.5q0 153 -2 271t-7 223q40 21 85 31.5t97 10.5q151 0 230 -92.5t79 -269.5q0 -113 -32 -186.5t-99 -118.5zM246 152q10 -4 18 -5.5t17 -1.5
q71 0 112 96t41 265q0 166 -34 238.5t-111 72.5q-3 0 -10.5 -1t-10.5 -1q0 -162 -5.5 -327.5t-16.5 -335.5zM268 943q6 -2 11.5 -2.5t15.5 -0.5q65 0 94 51.5t29 171.5q0 125 -31.5 192.5t-89.5 67.5q-6 0 -12 -0.5t-19 -3.5q1 -86 1.5 -185t0.5 -291z" />
    <glyph glyph-name="Gamma" unicode="&#x393;" horiz-adv-x="565" 
d="M569 1472l-34 -96h-13q-37 0 -105.5 7.5t-99.5 7.5q-12 0 -18 -0.5t-12 -1.5q-8 -23 -11.5 -119t-3.5 -279q0 -82 3 -321t10 -643q-13 -14 -27 -23.5t-28 -13.5h-13q-17 0 -42 2.5t-85 11.5q14 343 17.5 456t3.5 169q0 178 -16 777q-2 63 -3 95l23 23q42 6 91 9t118 3
q121 0 158.5 -0.5t51.5 -1.5q17 -12 25.5 -27.5t9.5 -34.5z" />
    <glyph glyph-name="glyph353" unicode="&#x394;" horiz-adv-x="627" 
d="M428 129q-39 226 -68 456.5t-47 465.5q-13 -222 -45 -453.5t-82 -470.5q13 -1 35 -2q54 -2 74 -2q25 0 58.5 1.5t74.5 4.5zM614 31q-8 -12 -16.5 -18t-20.5 -9q-69 -5 -127 -7.5t-110 -2.5q-193 0 -253 9.5t-87 33.5q86 319 148 693t102 812q27 6 48 9t34 3
q24 0 39.5 -5.5t29.5 -18.5q28 -399 81 -774t132 -725z" />
    <glyph glyph-name="Epsilon" unicode="&#x395;" horiz-adv-x="573" 
d="M514 1440l-27 -58q-8 1 -23 2q-47 2 -65 2q-37 0 -75.5 -4.5t-77.5 -13.5q1 -91 5 -168.5t9 -144.5h59q32 0 65.5 1t79.5 3q20 -9 31.5 -26t14.5 -42q-3 -30 -15 -52t-35 -38q-32 3 -69.5 4.5t-77.5 1.5h-53q1 -27 1 -76q3 -155 3 -208q0 -117 -3.5 -230.5t-10.5 -226.5
q4 -1 12 -2q113 -17 150 -17q30 0 60.5 4.5t64.5 12.5q13 -24 21 -49t11 -54q-15 -26 -35.5 -47.5t-43.5 -35.5q-43 -3 -64.5 -4t-38.5 -1q-85 0 -167 10.5t-163 30.5q20 162 29.5 337.5t9.5 365.5q0 82 -3.5 237t-16.5 568q81 12 192.5 18.5t257.5 7.5q5 -14 7 -22.5
t2 -14.5q0 -13 -5 -30t-16 -41z" />
    <glyph glyph-name="Zeta" unicode="&#x396;" horiz-adv-x="547" 
d="M508 1479q-70 -272 -138 -607t-132 -722h10q36 0 81 17.5t113 59.5q32 -21 47 -53.5t15 -81.5q0 -8 -1 -19.5t-3 -33.5q-87 -30 -152.5 -43.5t-116.5 -13.5q-24 0 -56.5 3.5t-78.5 12.5q-25 21 -39 45t-18 51l108 508q59 280 93.5 449.5t58.5 298.5h-12
q-56 0 -114.5 12.5t-121.5 38.5q-6 16 -9 28.5t-3 24.5q0 18 5.5 40t16.5 50q56 -17 100.5 -25t82.5 -8q39 0 82.5 8.5t95.5 26.5q25 -4 45.5 -19.5t40.5 -47.5z" />
    <glyph glyph-name="Eta" unicode="&#x397;" horiz-adv-x="721" 
d="M74 1499q5 29 31.5 41t84.5 12q12 0 23.5 -3.5t23.5 -10.5q4 -70 11.5 -230t11.5 -251h39q35 0 72.5 2t84.5 6q1 208 3 302t6 167q26 12 51 18.5t49 6.5q14 -1 29.5 -3t40.5 -8q-3 -123 -4.5 -227.5t-1.5 -192.5v-710v-404q-26 -12 -46.5 -17t-41.5 -5q-17 0 -36.5 2
t-51.5 8q3 142 4.5 281.5t1.5 275.5q0 128 -0.5 207t-1.5 155l-103 -1q-34 0 -57 -2t-37 -7v-397q0 -152 -5 -282t-15 -240q-23 -7 -50 -11t-57 -4h-22l-29 19q7 156 10.5 311t3.5 309q0 172 -5.5 389.5t-16.5 493.5z" />
    <glyph glyph-name="Theta" unicode="&#x398;" horiz-adv-x="702" 
d="M434 715q-26 -10 -44.5 -14.5t-33.5 -4.5q-22 0 -73 4h-7q-12 9 -17 21t-5 35q0 15 2 29.5t6 29.5q24 14 51 21.5t56 7.5q13 0 27 -3t30 -10q10 -7 14 -19.5t4 -39.5q0 -19 -2.5 -32.5t-7.5 -24.5zM332 1417q-41 -26 -59 -51t-23 -63q-14 -112 -21.5 -257.5t-7.5 -306.5
q0 -226 22 -369t68 -231l41 19q65 67 96 219t31 399q0 279 -42.5 460t-102.5 181h-2zM655 727q0 -335 -92.5 -543.5t-232.5 -208.5q-147 0 -215 177.5t-68 566.5q0 234 27 417t71 269q32 61 103 107.5t135 46.5q127 0 199.5 -220t72.5 -612z" />
    <glyph glyph-name="Iota" unicode="&#x399;" horiz-adv-x="342" 
d="M92 -6l-2 422q-1 129 -1.5 271.5t-0.5 404.5q0 179 0.5 263t1.5 154q3 14 11 23t19 12q19 3 27 3.5t15 0.5q21 0 41 -6t39 -18q8 -227 12 -412.5t4 -341.5q0 -186 -3 -382.5t-9 -401.5q-17 -9 -37.5 -13t-46.5 -4h-19z" />
    <glyph glyph-name="Kappa" unicode="&#x39a;" horiz-adv-x="698" 
d="M59 2q9 115 13 264t4 488q0 299 -3 472.5t-10 291.5l37 20q13 4 25.5 6t26.5 2q22 0 41 -7t36 -21q7 -176 10 -377t3 -428q0 -185 -4.5 -360t-12.5 -337q-12 -18 -26.5 -26t-34.5 -8t-46.5 5t-58.5 15zM246 950q115 225 176.5 360.5t87.5 221.5l57 -2q30 -5 50.5 -19.5
t33.5 -40.5q-42 -124 -103.5 -251.5t-144.5 -264.5q68 -266 143.5 -486t153.5 -384v-8q0 -31 -21 -55.5t-73 -51.5l-61 8q-64 138 -136.5 374.5t-162.5 598.5z" />
    <glyph glyph-name="Lambda" unicode="&#x39b;" horiz-adv-x="635" 
d="M623 55q-16 -38 -44.5 -55.5t-74.5 -17.5q-13 0 -25.5 4.5t-27.5 15.5q-62 343 -96.5 649t-41.5 568q-62 -588 -86.5 -844.5t-29.5 -361.5q-5 -13 -14.5 -18t-32.5 -5q-56 0 -89 11t-47 34q60 365 112.5 737.5t98.5 755.5l21 18q21 -5 35.5 -7.5t23.5 -2.5q33 0 56.5 2.5
t41.5 7.5l15 -18q32 -462 83.5 -829.5t121.5 -643.5z" />
    <glyph glyph-name="Mu" unicode="&#x39c;" horiz-adv-x="862" 
d="M625 1202q-88 -248 -114.5 -332.5t-35.5 -130.5q-11 -10 -25.5 -17.5t-32.5 -10.5l-38 10q-29 126 -60 250t-65 247q-11 -282 -17 -523t-6 -449q0 -102 0.5 -151t1.5 -91q-16 -12 -36 -18t-43 -6q-28 0 -51.5 4.5t-45.5 13.5q9 490 29 879t49 651q22 10 42 15t38 5
q16 0 31.5 -4.5t32.5 -14.5q34 -95 69.5 -225.5t81.5 -332.5q36 113 88 248t127 307q15 13 29 19.5t28 6.5q15 0 33.5 -5t40.5 -15q-4 -174 -6 -341.5t-2 -324.5q0 -183 5 -389t15 -452q-25 -15 -50.5 -22t-49.5 -7q-19 0 -37.5 5.5t-38.5 16.5q-2 96 -3 201t-1 289
q0 191 4 361.5t13 332.5z" />
    <glyph glyph-name="Nu" unicode="&#x39d;" horiz-adv-x="705" 
d="M211 1532q65 -174 129 -326t133 -296q-2 70 -3 125.5t-1 109.5q0 97 3 334q1 41 1 61q5 2 9 5.5t14 13.5l60 1q15 -3 33 -9t38 -15q0 -35 1 -104q3 -270 3 -371q0 -347 -5.5 -625t-15.5 -463q-15 -3 -30 -9t-35 -17q-3 0 -10.5 -1t-10.5 -1q-16 0 -34 4t-35 12
q4 134 6 294.5t2 365.5q-66 129 -124.5 250t-107.5 227q4 -226 6.5 -409t2.5 -292q0 -104 -1.5 -206.5t-5.5 -203.5q-16 -8 -35 -13t-38 -5q-18 0 -35.5 6t-40.5 19q-3 297 -4.5 580t-1.5 550v402q11 8 22.5 12t22.5 4q18 0 38.5 -2.5t49.5 -7.5z" />
    <glyph glyph-name="Xi" unicode="&#x39e;" horiz-adv-x="657" 
d="M578 193q17 -33 25.5 -60.5t8.5 -52.5q0 -13 -1.5 -23t-6.5 -20q-79 -17 -155 -26t-146 -9q-72 0 -135.5 11.5t-116.5 33.5q-6 28 -8 41t-2 21q0 28 16 49t45 30q91 -14 139.5 -20t75.5 -6q103 0 216 32q17 5 24 7zM539 915q14 -23 21 -43t7 -41q0 -14 -2 -29t-6 -30
q-66 -15 -130 -23t-126 -8q-68 0 -124 7.5t-99 21.5q-6 15 -9 31.5t-3 34.5q0 26 4.5 42.5t16.5 28.5q54 -5 109.5 -7.5t110.5 -2.5q65 0 115 6t92 19zM594 1444l-14 -41q-88 -15 -153 -22t-112 -7q-79 0 -139 6.5t-94 18.5q-12 12 -17.5 24.5t-5.5 28.5q0 32 8.5 52.5
t26.5 37.5q32 -6 92 -9t148 -3q55 0 108.5 7t104.5 22q21 -9 33 -38t14 -77z" />
    <glyph glyph-name="Omicron" unicode="&#x39f;" horiz-adv-x="694" 
d="M291 -23q-119 0 -181.5 211.5t-62.5 616.5q0 265 23.5 404.5t76.5 215.5q55 78 99 107t104 29q148 0 222.5 -184.5t74.5 -551.5q0 -281 -35 -455.5t-110 -265.5q-51 -61 -106 -94t-105 -33zM270 1374q-22 -75 -32.5 -206.5t-10.5 -368.5q0 -285 17 -434t55 -220h6
q86 0 125 156t39 500q0 324 -31.5 463t-103.5 139q-18 0 -33.5 -7t-30.5 -22z" />
    <glyph glyph-name="Pi" unicode="&#x3a0;" horiz-adv-x="707" 
d="M625 33q-16 -22 -39.5 -32.5t-55.5 -10.5q-14 0 -35 4t-46 12q-7 79 -10 300.5t-3 588.5q0 195 1.5 319t4.5 176q-18 0 -38 -0.5t-52 -0.5q-34 0 -56 0.5t-44 0.5q6 -413 13 -844.5t7 -465.5v-55q-20 -18 -42 -26.5t-46 -8.5q-6 0 -30.5 4t-40.5 6l-27 21
q7 129 10.5 268.5t3.5 294.5q0 340 -6.5 577t-19.5 348l16 29q55 -4 114.5 -6t125.5 -2q92 0 156 5t114 15l25 -26q-11 -59 -16 -136t-5 -253q0 -423 5.5 -707.5t15.5 -394.5z" />
    <glyph glyph-name="Rho" unicode="&#x3a1;" horiz-adv-x="633" 
d="M256 573v-100q0 -108 2.5 -224.5t7.5 -246.5q-29 -7 -55 -10.5t-45 -3.5t-38.5 4t-43.5 13q2 170 3 278t1 204q0 179 -5 715q-2 204 -3 316l29 24h6q249 0 364 -118.5t115 -376.5q0 -235 -83 -354.5t-247 -119.5h-8zM254 1372q0 -44 -1 -132.5t-1 -133.5q0 -67 0.5 -145
t3.5 -238q4 -1 9 -1.5t16 -0.5q74 0 107.5 74t33.5 239q0 177 -38.5 253.5t-129.5 84.5z" />
    <glyph glyph-name="Sigma" unicode="&#x3a3;" horiz-adv-x="606" 
d="M528 1522q8 -17 11.5 -29.5t3.5 -22.5q0 -22 -9 -44t-28 -46h-8q-12 0 -82 5.5t-129 5.5h-25q79 -158 137.5 -306.5t96.5 -285.5q-66 -175 -139 -335t-152 -302q56 -12 100 -17.5t80 -5.5q43 0 81.5 5.5t70.5 14.5q12 -16 18 -35.5t6 -43.5q0 -13 -0.5 -20t-1.5 -13
l-22 -63q-273 12 -380 24t-130 29l-23 45q118 238 203 425.5t121 289.5q-39 142 -112 320t-181 396l25 27q91 -3 149.5 -4.5t87.5 -1.5q74 0 120 2.5t77 7.5q9 -3 17.5 -8.5t16.5 -13.5z" />
    <glyph glyph-name="Tau" unicode="&#x3a4;" horiz-adv-x="604" 
d="M571 1378q-34 2 -72 3t-108 1q-7 -318 -11.5 -648.5t-6.5 -727.5q-22 -10 -45 -15t-47 -5q-16 0 -37 6.5t-45 19.5q9 284 13.5 559t4.5 541q0 47 -1 137t-1 133q-43 -2 -70 -3t-39 -1h-65q-9 17 -13.5 36t-4.5 40q0 4 1 11.5t1 11.5q17 41 67 58t158 17q77 0 164.5 -12.5
t187.5 -38.5v-24q0 -33 -7.5 -56.5t-23.5 -42.5z" />
    <glyph glyph-name="Upsilon" unicode="&#x3a5;" horiz-adv-x="502" 
d="M338 870l-8 -302q-5 -225 -7 -351t-4 -238l-90 -14q-18 13 -38.5 20.5t-42.5 10.5q7 192 10.5 364t3.5 318q0 52 -2 107t-6 112q-31 127 -74 277.5t-96 318.5q15 29 40 44t56 15q11 0 30 -3q3 0 5 -1q42 -104 76 -219.5t61 -243.5q35 168 68.5 282t68.5 189q13 3 22.5 4
t16.5 1q27 0 53.5 -7t55.5 -20q-33 -66 -86.5 -243t-112.5 -421z" />
    <glyph glyph-name="Phi" unicode="&#x3a6;" horiz-adv-x="811" 
d="M319 1059q-19 -3 -36 -10.5t-33 -20.5q-26 -43 -39.5 -100.5t-13.5 -122.5q0 -130 28 -184t96 -66q2 46 2.5 99t0.5 159v174q0 11 -1 31t-1 26q-3 9 -3 15zM480 559q68 5 102 60t34 159q0 43 -5.5 93t-16.5 108q-22 37 -47.5 55.5t-65.5 23.5q-1 -26 -1.5 -73.5
t-0.5 -181.5zM486 1208q148 -9 219 -108.5t71 -298.5q0 -108 -31 -199.5t-79 -130.5q-42 -32 -87 -49.5t-100 -22.5q0 -22 1 -75t1 -84q0 -86 2 -176v-21v-18q-13 -19 -32.5 -27t-53.5 -8q-30 0 -50.5 6t-37.5 20q4 59 6 152t2 233q-159 34 -220.5 115.5t-61.5 269.5
q0 194 71 297t213 115q2 8 2.5 16.5t0.5 26.5q0 97 -3 167.5t-7 107.5q19 16 42 24t49 8q19 0 40.5 -3t48.5 -9q0 -3 -1.5 -9t-1.5 -9v-30q-4 -140 -3 -280z" />
    <glyph glyph-name="Chi" unicode="&#x3a7;" horiz-adv-x="653" 
d="M637 31q-21 -25 -45.5 -37t-50.5 -12q-13 0 -27 3.5t-31 12.5q-18 145 -57 315.5t-100 370.5l-224 -715q-4 0 -12 -1t-12 -1q-44 0 -72.5 19.5t-48.5 62.5l285 858q-49 129 -102.5 261.5t-118.5 286.5q7 43 43.5 71t85.5 28q4 0 11 -1t11 -1q22 -77 106 -301
q37 -100 58 -155l147 438q15 10 31 15t33 5q26 0 51 -12t53 -39q-60 -149 -117.5 -299t-113.5 -305q96 -285 149.5 -500t67.5 -368z" />
    <glyph glyph-name="Psi" unicode="&#x3a8;" horiz-adv-x="879" 
d="M290 701q20 -8 36 -13t30 -8l4 133q3 104 4 185.5t1 158.5q0 102 -4 339q0 21 -1 32q16 12 33 18t37 6q42 0 73 -11t42 -30q-13 -115 -20 -295.5t-11 -521.5l27 4q68 11 94.5 92t26.5 332q-1 109 -4.5 202t-10.5 175l21 31q25 5 41 7.5t26 2.5q18 0 27 -0.5t16 -1.5
q25 -55 37 -153.5t12 -239.5q0 -332 -70 -462t-243 -136v-162q0 -111 1.5 -197.5t4.5 -150.5q-18 -24 -48 -35.5t-75 -11.5h-12q-14 6 -28 14.5t-29 20.5q5 42 15 281q5 145 9 235h-20q-149 0 -215 116t-66 381q0 119 9 235.5t27 228.5q9 8 16.5 15t15.5 15q14 3 25 4.5
t20 1.5q17 0 34.5 -6t41.5 -21q-13 -116 -19 -221.5t-6 -197.5q0 -155 21 -261t54 -130z" />
    <glyph glyph-name="glyph373" unicode="&#x3a9;" horiz-adv-x="700" 
d="M641 4q-14 -5 -33 -7.5t-47 -2.5q-44 0 -175 13q-8 1 -11 1l-17 31q0 4 -1 13q-3 27 -3 36q0 3 2 20t2 25q61 40 86 181.5t25 494.5q0 336 -28.5 475t-94.5 139q-14 0 -29.5 -5t-35.5 -17q-28 -69 -41 -199.5t-13 -359.5q0 -419 17.5 -549t60.5 -162q0 -41 -2.5 -69
t-8.5 -50q-40 -8 -81.5 -13t-75.5 -5q-22 0 -48.5 4.5t-54.5 14.5q-13 15 -20.5 41t-7.5 57q0 16 5.5 31t17.5 30q14 -9 43 -14t85 -6q-56 65 -82 221.5t-26 433.5q0 207 24 362.5t66 229.5q41 69 107.5 115.5t124.5 46.5q139 0 208.5 -171t69.5 -513q0 -339 -34.5 -497.5
t-116.5 -229.5q4 -1 14 -2q25 -3 33 -3q15 0 33.5 3t42.5 10l14 -4q10 -15 14 -29.5t4 -32.5q0 -27 -3 -49.5t-9 -38.5z" />
    <glyph glyph-name="Iotadieresis" unicode="&#x3aa;" horiz-adv-x="342" 
d="M92 -6l-2 422q-1 129 -1.5 271.5t-0.5 404.5q0 179 0.5 263t1.5 154q3 14 11 23t19 12q19 3 27 3.5t15 0.5q21 0 41 -6t39 -18q8 -227 12 -412.5t4 -341.5q0 -186 -3 -382.5t-9 -401.5q-17 -9 -37.5 -13t-46.5 -4h-19zM205 1691q0 6 -1 17.5t-1 17.5q0 32 4.5 58.5
t13.5 49.5q13 3 23 4t18 1q23 0 49 -3.5t54 -11.5q1 -5 1.5 -11.5t0.5 -18.5q0 -27 -5.5 -56t-15.5 -59q-7 -2 -16 -3t-27 -1q-21 0 -45.5 4t-52.5 12zM0 1679q-8 21 -12 39t-4 33q0 19 3.5 40t11.5 42q17 4 35.5 6t39.5 2q20 0 37 -2t30 -6q4 -17 5.5 -31t1.5 -27
q0 -25 -5.5 -46.5t-15.5 -41.5q-30 -9 -42.5 -11.5t-22.5 -2.5q-15 0 -30 1.5t-32 4.5z" />
    <glyph glyph-name="Upsilondieresis" unicode="&#x3ab;" horiz-adv-x="502" 
d="M338 870l-8 -302q-5 -225 -7 -351t-4 -238l-90 -14q-18 13 -38.5 20.5t-42.5 10.5q7 192 10.5 364t3.5 318q0 52 -2 107t-6 112q-31 127 -74 277.5t-96 318.5q15 29 40 44t56 15q11 0 30 -3q3 0 5 -1q42 -104 76 -219.5t61 -243.5q35 168 68.5 282t68.5 189q13 3 22.5 4
t16.5 1q27 0 53.5 -7t55.5 -20q-33 -66 -86.5 -243t-112.5 -421zM285 1691q0 6 -1 17.5t-1 17.5q0 32 4.5 58.5t13.5 49.5q13 3 23 4t18 1q23 0 49 -3.5t54 -11.5q1 -5 1.5 -11.5t0.5 -18.5q0 -27 -5.5 -56t-15.5 -59q-7 -2 -16 -3t-27 -1q-21 0 -45.5 4t-52.5 12zM80 1679
q-8 21 -12 39t-4 33q0 19 3.5 40t11.5 42q17 4 35.5 6t39.5 2q20 0 37 -2t30 -6q4 -17 5.5 -31t1.5 -27q0 -25 -5.5 -46.5t-15.5 -41.5q-30 -9 -42.5 -11.5t-22.5 -2.5q-15 0 -30 1.5t-32 4.5z" />
    </font>
</defs>
</svg>
